%TF.GenerationSoftware,KiCad,Pcbnew,9.0.4*%
%TF.CreationDate,2025-09-23T18:33:03+01:00*%
%TF.ProjectId,Breadboard Power Supply,42726561-6462-46f6-9172-6420506f7765,v1.0*%
%TF.SameCoordinates,Original*%
%TF.FileFunction,Soldermask,Top*%
%TF.FilePolarity,Negative*%
%FSLAX46Y46*%
G04 Gerber Fmt 4.6, Leading zero omitted, Abs format (unit mm)*
G04 Created by KiCad (PCBNEW 9.0.4) date 2025-09-23 18:33:03*
%MOMM*%
%LPD*%
G01*
G04 APERTURE LIST*
G04 Aperture macros list*
%AMRoundRect*
0 Rectangle with rounded corners*
0 $1 Rounding radius*
0 $2 $3 $4 $5 $6 $7 $8 $9 X,Y pos of 4 corners*
0 Add a 4 corners polygon primitive as box body*
4,1,4,$2,$3,$4,$5,$6,$7,$8,$9,$2,$3,0*
0 Add four circle primitives for the rounded corners*
1,1,$1+$1,$2,$3*
1,1,$1+$1,$4,$5*
1,1,$1+$1,$6,$7*
1,1,$1+$1,$8,$9*
0 Add four rect primitives between the rounded corners*
20,1,$1+$1,$2,$3,$4,$5,0*
20,1,$1+$1,$4,$5,$6,$7,0*
20,1,$1+$1,$6,$7,$8,$9,0*
20,1,$1+$1,$8,$9,$2,$3,0*%
G04 Aperture macros list end*
%ADD10C,1.600000*%
%ADD11R,3.000000X3.000000*%
%ADD12C,3.000000*%
%ADD13R,1.700000X1.700000*%
%ADD14C,1.700000*%
%ADD15RoundRect,0.875000X-0.875000X-0.875000X0.875000X-0.875000X0.875000X0.875000X-0.875000X0.875000X0*%
%ADD16RoundRect,0.750000X-0.750000X-1.000000X0.750000X-1.000000X0.750000X1.000000X-0.750000X1.000000X0*%
%ADD17R,3.500000X3.500000*%
%ADD18C,1.800000*%
%ADD19R,1.800000X1.800000*%
%ADD20C,1.400000*%
%ADD21C,1.712000*%
%ADD22O,1.905000X2.000000*%
%ADD23R,1.905000X2.000000*%
%ADD24R,1.500000X1.500000*%
G04 APERTURE END LIST*
D10*
%TO.C,C3*%
X130423600Y-109474000D03*
X132923600Y-109474000D03*
%TD*%
D11*
%TO.C,J5*%
X148183600Y-72644000D03*
D12*
X153263600Y-72644000D03*
%TD*%
D13*
%TO.C,J1*%
X161137600Y-70353000D03*
D14*
X161137600Y-72893000D03*
%TD*%
D15*
%TO.C,J7*%
X140515600Y-98230500D03*
D16*
X137515600Y-93530500D03*
D17*
X143515600Y-93530500D03*
%TD*%
D10*
%TO.C,C1*%
X136773600Y-79248000D03*
X139273600Y-79248000D03*
%TD*%
D13*
%TO.C,J2*%
X161137600Y-116128800D03*
D14*
X161137600Y-118668800D03*
%TD*%
D10*
%TO.C,C2*%
X134447600Y-79248000D03*
X131947600Y-79248000D03*
%TD*%
D11*
%TO.C,J6*%
X148183600Y-116840000D03*
D12*
X153263600Y-116840000D03*
%TD*%
D18*
%TO.C,D1*%
X151993600Y-92207000D03*
D19*
X151993600Y-94747000D03*
%TD*%
D20*
%TO.C,R2*%
X147167600Y-103378000D03*
X154787600Y-103378000D03*
%TD*%
%TO.C,R3*%
X154769600Y-106680000D03*
X147149600Y-106680000D03*
%TD*%
D21*
%TO.C,S2*%
X133705600Y-118364000D03*
X136205600Y-118364000D03*
X138705600Y-118364000D03*
%TD*%
%TO.C,S1*%
X133705600Y-71120000D03*
X136205600Y-71120000D03*
X138705600Y-71120000D03*
%TD*%
D22*
%TO.C,U1*%
X131927600Y-83378000D03*
X134467600Y-83378000D03*
D23*
X137007600Y-83378000D03*
%TD*%
D10*
%TO.C,SW1*%
X153517600Y-81534000D03*
X148437600Y-81534000D03*
D24*
X150977600Y-81534000D03*
%TD*%
D20*
%TO.C,R1*%
X154787600Y-87122000D03*
X147167600Y-87122000D03*
%TD*%
D22*
%TO.C,U2*%
X137007600Y-104902000D03*
X134467600Y-104902000D03*
D23*
X131927600Y-104902000D03*
%TD*%
M02*
