%TF.GenerationSoftware,KiCad,Pcbnew,9.0.4*%
%TF.CreationDate,2025-09-23T18:33:02+01:00*%
%TF.ProjectId,Breadboard Power Supply,42726561-6462-46f6-9172-6420506f7765,v1.0*%
%TF.SameCoordinates,Original*%
%TF.FileFunction,Copper,L2,Bot*%
%TF.FilePolarity,Positive*%
%FSLAX46Y46*%
G04 Gerber Fmt 4.6, Leading zero omitted, Abs format (unit mm)*
G04 Created by KiCad (PCBNEW 9.0.4) date 2025-09-23 18:33:02*
%MOMM*%
%LPD*%
G01*
G04 APERTURE LIST*
G04 Aperture macros list*
%AMRoundRect*
0 Rectangle with rounded corners*
0 $1 Rounding radius*
0 $2 $3 $4 $5 $6 $7 $8 $9 X,Y pos of 4 corners*
0 Add a 4 corners polygon primitive as box body*
4,1,4,$2,$3,$4,$5,$6,$7,$8,$9,$2,$3,0*
0 Add four circle primitives for the rounded corners*
1,1,$1+$1,$2,$3*
1,1,$1+$1,$4,$5*
1,1,$1+$1,$6,$7*
1,1,$1+$1,$8,$9*
0 Add four rect primitives between the rounded corners*
20,1,$1+$1,$2,$3,$4,$5,0*
20,1,$1+$1,$4,$5,$6,$7,0*
20,1,$1+$1,$6,$7,$8,$9,0*
20,1,$1+$1,$8,$9,$2,$3,0*%
G04 Aperture macros list end*
%TA.AperFunction,ComponentPad*%
%ADD10C,1.600000*%
%TD*%
%TA.AperFunction,ComponentPad*%
%ADD11R,3.000000X3.000000*%
%TD*%
%TA.AperFunction,ComponentPad*%
%ADD12C,3.000000*%
%TD*%
%TA.AperFunction,ComponentPad*%
%ADD13R,1.700000X1.700000*%
%TD*%
%TA.AperFunction,ComponentPad*%
%ADD14C,1.700000*%
%TD*%
%TA.AperFunction,ComponentPad*%
%ADD15RoundRect,0.875000X-0.875000X-0.875000X0.875000X-0.875000X0.875000X0.875000X-0.875000X0.875000X0*%
%TD*%
%TA.AperFunction,ComponentPad*%
%ADD16RoundRect,0.750000X-0.750000X-1.000000X0.750000X-1.000000X0.750000X1.000000X-0.750000X1.000000X0*%
%TD*%
%TA.AperFunction,ComponentPad*%
%ADD17R,3.500000X3.500000*%
%TD*%
%TA.AperFunction,ComponentPad*%
%ADD18C,1.800000*%
%TD*%
%TA.AperFunction,ComponentPad*%
%ADD19R,1.800000X1.800000*%
%TD*%
%TA.AperFunction,ComponentPad*%
%ADD20C,1.400000*%
%TD*%
%TA.AperFunction,ComponentPad*%
%ADD21C,1.508000*%
%TD*%
%TA.AperFunction,ComponentPad*%
%ADD22O,1.905000X2.000000*%
%TD*%
%TA.AperFunction,ComponentPad*%
%ADD23R,1.905000X2.000000*%
%TD*%
%TA.AperFunction,ComponentPad*%
%ADD24R,1.500000X1.500000*%
%TD*%
%TA.AperFunction,ViaPad*%
%ADD25C,0.900000*%
%TD*%
%TA.AperFunction,Conductor*%
%ADD26C,0.350000*%
%TD*%
%TA.AperFunction,Conductor*%
%ADD27C,0.200000*%
%TD*%
G04 APERTURE END LIST*
D10*
%TO.P,C3,2*%
%TO.N,GND*%
X130423600Y-109474000D03*
%TO.P,C3,1*%
%TO.N,/3.3V*%
X132923600Y-109474000D03*
%TD*%
D11*
%TO.P,J5,1,Pin_1*%
%TO.N,GND*%
X148183600Y-72644000D03*
D12*
%TO.P,J5,2,Pin_2*%
%TO.N,/PWR_output*%
X153263600Y-72644000D03*
%TD*%
D13*
%TO.P,J1,1,Pin_1*%
%TO.N,GND*%
X161137600Y-70353000D03*
D14*
%TO.P,J1,2,Pin_2*%
%TO.N,/PWR_output*%
X161137600Y-72893000D03*
%TD*%
D15*
%TO.P,J7,3*%
%TO.N,GND*%
X140515600Y-98230500D03*
D16*
%TO.P,J7,2*%
X137515600Y-93530500D03*
D17*
%TO.P,J7,1*%
%TO.N,/PWR_input*%
X143515600Y-93530500D03*
%TD*%
D10*
%TO.P,C1,2*%
%TO.N,GND*%
X136773600Y-79248000D03*
%TO.P,C1,1*%
%TO.N,/12V*%
X139273600Y-79248000D03*
%TD*%
D13*
%TO.P,J2,1,Pin_1*%
%TO.N,GND*%
X161137600Y-116128800D03*
D14*
%TO.P,J2,2,Pin_2*%
%TO.N,/PWR_output*%
X161137600Y-118668800D03*
%TD*%
D10*
%TO.P,C2,2*%
%TO.N,GND*%
X134447600Y-79248000D03*
%TO.P,C2,1*%
%TO.N,/5V*%
X131947600Y-79248000D03*
%TD*%
D11*
%TO.P,J6,1,Pin_1*%
%TO.N,GND*%
X148183600Y-116840000D03*
D12*
%TO.P,J6,2,Pin_2*%
%TO.N,/PWR_output*%
X153263600Y-116840000D03*
%TD*%
D18*
%TO.P,D1,2,A*%
%TO.N,Net-(D1-A)*%
X151993600Y-92207000D03*
D19*
%TO.P,D1,1,K*%
%TO.N,GND*%
X151993600Y-94747000D03*
%TD*%
D20*
%TO.P,R2,2*%
%TO.N,/3.3V*%
X147167600Y-103378000D03*
%TO.P,R2,1*%
%TO.N,Net-(U2-ADJ)*%
X154787600Y-103378000D03*
%TD*%
%TO.P,R3,2*%
%TO.N,Net-(U2-ADJ)*%
X154769600Y-106680000D03*
%TO.P,R3,1*%
%TO.N,GND*%
X147149600Y-106680000D03*
%TD*%
D21*
%TO.P,S2,3*%
%TO.N,/3.3V*%
X133705600Y-118364000D03*
%TO.P,S2,2*%
%TO.N,/PWR_output*%
X136205600Y-118364000D03*
%TO.P,S2,1*%
%TO.N,/5V*%
X138705600Y-118364000D03*
%TD*%
%TO.P,S1,3*%
%TO.N,/3.3V*%
X133705600Y-71120000D03*
%TO.P,S1,2*%
%TO.N,/PWR_output*%
X136205600Y-71120000D03*
%TO.P,S1,1*%
%TO.N,/5V*%
X138705600Y-71120000D03*
%TD*%
D22*
%TO.P,U1,3,VO*%
%TO.N,/5V*%
X131927600Y-83378000D03*
%TO.P,U1,2,GND*%
%TO.N,GND*%
X134467600Y-83378000D03*
D23*
%TO.P,U1,1,VI*%
%TO.N,/12V*%
X137007600Y-83378000D03*
%TD*%
D10*
%TO.P,SW1,3,A*%
%TO.N,/12V*%
X153517600Y-81534000D03*
%TO.P,SW1,2,C*%
%TO.N,unconnected-(SW1-C-Pad2)*%
X148437600Y-81534000D03*
D24*
%TO.P,SW1,1,B*%
%TO.N,/PWR_input*%
X150977600Y-81534000D03*
%TD*%
D20*
%TO.P,R1,2*%
%TO.N,/12V*%
X154787600Y-87122000D03*
%TO.P,R1,1*%
%TO.N,Net-(D1-A)*%
X147167600Y-87122000D03*
%TD*%
D22*
%TO.P,U2,3,VI*%
%TO.N,/12V*%
X137007600Y-104902000D03*
%TO.P,U2,2,VO*%
%TO.N,/3.3V*%
X134467600Y-104902000D03*
D23*
%TO.P,U2,1,ADJ*%
%TO.N,Net-(U2-ADJ)*%
X131927600Y-104902000D03*
%TD*%
D25*
%TO.N,/3.3V*%
X142341600Y-106426000D03*
%TD*%
D26*
%TO.N,/12V*%
X137007600Y-89408000D02*
X134721600Y-91694000D01*
X134721600Y-91694000D02*
X134721600Y-99568000D01*
X137007600Y-83378000D02*
X137007600Y-89408000D01*
X137007600Y-101854000D02*
X137007600Y-104902000D01*
X134721600Y-99568000D02*
X137007600Y-101854000D01*
%TO.N,/3.3V*%
X136499600Y-106934000D02*
X134467600Y-104902000D01*
X142341600Y-106426000D02*
X141833600Y-106934000D01*
X141833600Y-106934000D02*
X136499600Y-106934000D01*
D27*
%TO.N,Net-(U2-ADJ)*%
X152229600Y-109220000D02*
X134721600Y-109220000D01*
X134721600Y-109220000D02*
X131927600Y-106426000D01*
X131927600Y-106426000D02*
X131927600Y-104902000D01*
X154769600Y-106680000D02*
X152229600Y-109220000D01*
%TD*%
%TA.AperFunction,Conductor*%
%TO.N,GND*%
G36*
X162922522Y-68319280D02*
G01*
X162930953Y-68320230D01*
X163016431Y-68329861D01*
X163043492Y-68336037D01*
X163126081Y-68364937D01*
X163151091Y-68376980D01*
X163225181Y-68423534D01*
X163246890Y-68440847D01*
X163308752Y-68502709D01*
X163326065Y-68524418D01*
X163372617Y-68598505D01*
X163384664Y-68623522D01*
X163413560Y-68706101D01*
X163419739Y-68733171D01*
X163422820Y-68760513D01*
X163423600Y-68774398D01*
X163423600Y-74227600D01*
X163422820Y-74241484D01*
X163419739Y-74268827D01*
X163413561Y-74295893D01*
X163398493Y-74338956D01*
X163357773Y-74395730D01*
X163292821Y-74421478D01*
X163281453Y-74422000D01*
X161585035Y-74422000D01*
X161517996Y-74402315D01*
X161472241Y-74349511D01*
X161462297Y-74280353D01*
X161491322Y-74216797D01*
X161546716Y-74180069D01*
X161656012Y-74144557D01*
X161845416Y-74048051D01*
X161867389Y-74032086D01*
X162017386Y-73923109D01*
X162017388Y-73923106D01*
X162017392Y-73923104D01*
X162167704Y-73772792D01*
X162167706Y-73772788D01*
X162167709Y-73772786D01*
X162292648Y-73600820D01*
X162292647Y-73600820D01*
X162292651Y-73600816D01*
X162389157Y-73411412D01*
X162454846Y-73209243D01*
X162488100Y-72999287D01*
X162488100Y-72786713D01*
X162454846Y-72576757D01*
X162389157Y-72374588D01*
X162292651Y-72185184D01*
X162292649Y-72185181D01*
X162292648Y-72185179D01*
X162167709Y-72013213D01*
X162053781Y-71899285D01*
X162020296Y-71837962D01*
X162025280Y-71768270D01*
X162067152Y-71712337D01*
X162098129Y-71695422D01*
X162229686Y-71646354D01*
X162229693Y-71646350D01*
X162344787Y-71560190D01*
X162344790Y-71560187D01*
X162430950Y-71445093D01*
X162430954Y-71445086D01*
X162481196Y-71310379D01*
X162481198Y-71310372D01*
X162487599Y-71250844D01*
X162487600Y-71250827D01*
X162487600Y-70603000D01*
X161570612Y-70603000D01*
X161603525Y-70545993D01*
X161637600Y-70418826D01*
X161637600Y-70287174D01*
X161603525Y-70160007D01*
X161570612Y-70103000D01*
X162487600Y-70103000D01*
X162487600Y-69455172D01*
X162487599Y-69455155D01*
X162481198Y-69395627D01*
X162481196Y-69395620D01*
X162430954Y-69260913D01*
X162430950Y-69260906D01*
X162344790Y-69145812D01*
X162344787Y-69145809D01*
X162229693Y-69059649D01*
X162229686Y-69059645D01*
X162094979Y-69009403D01*
X162094972Y-69009401D01*
X162035444Y-69003000D01*
X161387600Y-69003000D01*
X161387600Y-69919988D01*
X161330593Y-69887075D01*
X161203426Y-69853000D01*
X161071774Y-69853000D01*
X160944607Y-69887075D01*
X160887600Y-69919988D01*
X160887600Y-69003000D01*
X160239755Y-69003000D01*
X160180227Y-69009401D01*
X160180220Y-69009403D01*
X160045513Y-69059645D01*
X160045506Y-69059649D01*
X159930412Y-69145809D01*
X159930409Y-69145812D01*
X159844249Y-69260906D01*
X159844245Y-69260913D01*
X159794003Y-69395620D01*
X159794001Y-69395627D01*
X159787600Y-69455155D01*
X159787600Y-70103000D01*
X160704588Y-70103000D01*
X160671675Y-70160007D01*
X160637600Y-70287174D01*
X160637600Y-70418826D01*
X160671675Y-70545993D01*
X160704588Y-70603000D01*
X159787600Y-70603000D01*
X159787600Y-71250844D01*
X159794001Y-71310372D01*
X159794003Y-71310379D01*
X159844245Y-71445086D01*
X159844249Y-71445093D01*
X159930409Y-71560187D01*
X159930412Y-71560190D01*
X160045506Y-71646350D01*
X160045513Y-71646354D01*
X160177070Y-71695422D01*
X160233004Y-71737293D01*
X160257421Y-71802758D01*
X160242569Y-71871031D01*
X160221419Y-71899285D01*
X160107489Y-72013215D01*
X159982551Y-72185179D01*
X159886044Y-72374585D01*
X159820353Y-72576760D01*
X159797848Y-72718853D01*
X159787100Y-72786713D01*
X159787100Y-72999287D01*
X159820354Y-73209243D01*
X159828505Y-73234330D01*
X159886044Y-73411414D01*
X159982551Y-73600820D01*
X160107490Y-73772786D01*
X160257813Y-73923109D01*
X160429779Y-74048048D01*
X160429781Y-74048049D01*
X160429784Y-74048051D01*
X160619188Y-74144557D01*
X160728483Y-74180069D01*
X160786159Y-74219507D01*
X160813357Y-74283865D01*
X160801442Y-74352712D01*
X160754198Y-74404187D01*
X160690165Y-74422000D01*
X158343599Y-74422000D01*
X157581600Y-75183999D01*
X157580599Y-75337106D01*
X157560918Y-75403333D01*
X157517204Y-75471354D01*
X157517191Y-75471379D01*
X157427087Y-75668678D01*
X157365970Y-75876820D01*
X157335100Y-76091537D01*
X157335100Y-112888821D01*
X157335151Y-112890439D01*
X157327599Y-114045999D01*
X157327600Y-114046000D01*
X157986344Y-114046000D01*
X158053383Y-114065685D01*
X158053384Y-114065685D01*
X158122957Y-114110397D01*
X158122973Y-114110406D01*
X158320278Y-114200512D01*
X158320282Y-114200513D01*
X158320284Y-114200514D01*
X158413508Y-114227887D01*
X158528420Y-114261629D01*
X158559291Y-114266067D01*
X158743138Y-114292500D01*
X158785708Y-114292500D01*
X162849708Y-114292500D01*
X162908639Y-114292500D01*
X162922522Y-114293280D01*
X162930953Y-114294230D01*
X163016431Y-114303861D01*
X163043492Y-114310037D01*
X163126081Y-114338937D01*
X163151091Y-114350980D01*
X163183543Y-114371371D01*
X163225181Y-114397534D01*
X163246890Y-114414847D01*
X163308752Y-114476709D01*
X163326065Y-114498418D01*
X163372617Y-114572505D01*
X163384664Y-114597522D01*
X163413560Y-114680101D01*
X163419739Y-114707172D01*
X163430320Y-114801077D01*
X163431100Y-114814961D01*
X163431100Y-120135038D01*
X163430320Y-120148922D01*
X163419739Y-120242827D01*
X163413560Y-120269898D01*
X163384664Y-120352477D01*
X163372617Y-120377494D01*
X163326065Y-120451581D01*
X163308752Y-120473290D01*
X163246890Y-120535152D01*
X163225181Y-120552465D01*
X163151094Y-120599017D01*
X163126077Y-120611064D01*
X163043498Y-120639960D01*
X163016427Y-120646139D01*
X162922523Y-120656720D01*
X162908639Y-120657500D01*
X129446462Y-120657500D01*
X129379423Y-120637815D01*
X129358781Y-120621181D01*
X129162419Y-120424819D01*
X129128934Y-120363496D01*
X129126100Y-120337138D01*
X129126100Y-119659500D01*
X130124100Y-119659500D01*
X130876100Y-119659500D01*
X141874100Y-119659500D01*
X143376100Y-119659500D01*
X144374100Y-119659500D01*
X145876100Y-119659500D01*
X145876100Y-119625568D01*
X154374100Y-119625568D01*
X154374100Y-119659500D01*
X155876100Y-119659500D01*
X156874100Y-119659500D01*
X158376100Y-119659500D01*
X158376100Y-118566500D01*
X156874100Y-118566500D01*
X156874100Y-119659500D01*
X155876100Y-119659500D01*
X155876100Y-118566500D01*
X155718336Y-118566500D01*
X155552714Y-118782341D01*
X155550195Y-118785516D01*
X155534649Y-118804460D01*
X155532030Y-118807547D01*
X155510496Y-118832107D01*
X155507766Y-118835120D01*
X155490962Y-118853063D01*
X155488136Y-118855982D01*
X155279582Y-119064536D01*
X155276663Y-119067362D01*
X155258720Y-119084166D01*
X155255707Y-119086896D01*
X155231147Y-119108430D01*
X155228060Y-119111049D01*
X155209116Y-119126595D01*
X155205941Y-119129114D01*
X154971995Y-119308629D01*
X154968735Y-119311047D01*
X154948785Y-119325343D01*
X154945450Y-119327651D01*
X154918289Y-119345800D01*
X154914876Y-119348001D01*
X154894026Y-119360966D01*
X154890547Y-119363051D01*
X154635158Y-119510499D01*
X154631615Y-119512468D01*
X154609984Y-119524031D01*
X154606375Y-119525885D01*
X154577080Y-119540333D01*
X154573412Y-119542068D01*
X154551039Y-119552206D01*
X154547312Y-119553822D01*
X154374100Y-119625568D01*
X145876100Y-119625568D01*
X145876100Y-119606524D01*
X145871968Y-119603655D01*
X145699784Y-119474757D01*
X145692893Y-119469204D01*
X145652408Y-119434124D01*
X145645929Y-119428092D01*
X145595508Y-119377671D01*
X145589476Y-119371192D01*
X145554396Y-119330707D01*
X145548843Y-119323816D01*
X145419945Y-119151632D01*
X145414897Y-119144362D01*
X145385933Y-119099295D01*
X145381415Y-119091681D01*
X145347238Y-119029091D01*
X145343277Y-119021177D01*
X145321019Y-118972441D01*
X145317630Y-118964261D01*
X145244021Y-118766904D01*
X145241542Y-118759564D01*
X145227932Y-118714695D01*
X145225915Y-118707212D01*
X145211572Y-118646501D01*
X145210028Y-118638916D01*
X145202122Y-118592738D01*
X145201055Y-118585069D01*
X145199058Y-118566500D01*
X144374100Y-118566500D01*
X144374100Y-119659500D01*
X143376100Y-119659500D01*
X143376100Y-118566500D01*
X141874100Y-118566500D01*
X141874100Y-119659500D01*
X130876100Y-119659500D01*
X130876100Y-118566500D01*
X130124100Y-118566500D01*
X130124100Y-119659500D01*
X129126100Y-119659500D01*
X129126100Y-118265263D01*
X132451100Y-118265263D01*
X132451100Y-118462736D01*
X132481989Y-118657763D01*
X132541202Y-118839999D01*
X132543009Y-118845561D01*
X132632491Y-119021177D01*
X132632658Y-119021504D01*
X132748715Y-119181246D01*
X132888353Y-119320884D01*
X133035915Y-119428092D01*
X133048099Y-119436944D01*
X133224039Y-119526591D01*
X133307848Y-119553822D01*
X133411836Y-119587610D01*
X133606864Y-119618500D01*
X133606869Y-119618500D01*
X133804336Y-119618500D01*
X133999363Y-119587610D01*
X134187161Y-119526591D01*
X134363101Y-119436944D01*
X134467677Y-119360966D01*
X134522846Y-119320884D01*
X134522848Y-119320881D01*
X134522852Y-119320879D01*
X134662479Y-119181252D01*
X134662481Y-119181248D01*
X134662484Y-119181246D01*
X134778541Y-119021505D01*
X134778542Y-119021504D01*
X134778544Y-119021501D01*
X134845116Y-118890846D01*
X134893090Y-118840052D01*
X134960911Y-118823257D01*
X135027046Y-118845794D01*
X135066082Y-118890845D01*
X135129766Y-119015830D01*
X135132658Y-119021505D01*
X135248715Y-119181246D01*
X135388353Y-119320884D01*
X135535915Y-119428092D01*
X135548099Y-119436944D01*
X135724039Y-119526591D01*
X135807848Y-119553822D01*
X135911836Y-119587610D01*
X136106864Y-119618500D01*
X136106869Y-119618500D01*
X136304336Y-119618500D01*
X136499363Y-119587610D01*
X136687161Y-119526591D01*
X136863101Y-119436944D01*
X136967677Y-119360966D01*
X137022846Y-119320884D01*
X137022848Y-119320881D01*
X137022852Y-119320879D01*
X137162479Y-119181252D01*
X137162481Y-119181248D01*
X137162484Y-119181246D01*
X137278541Y-119021505D01*
X137278542Y-119021504D01*
X137278544Y-119021501D01*
X137345116Y-118890846D01*
X137393090Y-118840052D01*
X137460911Y-118823257D01*
X137527046Y-118845794D01*
X137566082Y-118890845D01*
X137629766Y-119015830D01*
X137632658Y-119021505D01*
X137748715Y-119181246D01*
X137888353Y-119320884D01*
X138035915Y-119428092D01*
X138048099Y-119436944D01*
X138224039Y-119526591D01*
X138307848Y-119553822D01*
X138411836Y-119587610D01*
X138606864Y-119618500D01*
X138606869Y-119618500D01*
X138804336Y-119618500D01*
X138999363Y-119587610D01*
X139187161Y-119526591D01*
X139363101Y-119436944D01*
X139467677Y-119360966D01*
X139522846Y-119320884D01*
X139522848Y-119320881D01*
X139522852Y-119320879D01*
X139662479Y-119181252D01*
X139662481Y-119181248D01*
X139662484Y-119181246D01*
X139722024Y-119099295D01*
X139778544Y-119021501D01*
X139868191Y-118845561D01*
X139929210Y-118657763D01*
X139953101Y-118506924D01*
X139960100Y-118462736D01*
X139960100Y-118265263D01*
X139929210Y-118070236D01*
X139908870Y-118007637D01*
X139868191Y-117882439D01*
X139778544Y-117706499D01*
X139729283Y-117638696D01*
X139662484Y-117546753D01*
X139522846Y-117407115D01*
X139363104Y-117291058D01*
X139363103Y-117291057D01*
X139363101Y-117291056D01*
X139187161Y-117201409D01*
X139182809Y-117199995D01*
X138999363Y-117140389D01*
X138804336Y-117109500D01*
X138804331Y-117109500D01*
X138606869Y-117109500D01*
X138606864Y-117109500D01*
X138411836Y-117140389D01*
X138224041Y-117201408D01*
X138048095Y-117291058D01*
X137888353Y-117407115D01*
X137748715Y-117546753D01*
X137632658Y-117706495D01*
X137632656Y-117706499D01*
X137590612Y-117789015D01*
X137566085Y-117837151D01*
X137518110Y-117887947D01*
X137450289Y-117904742D01*
X137384154Y-117882204D01*
X137345115Y-117837151D01*
X137278544Y-117706499D01*
X137229283Y-117638696D01*
X137162484Y-117546753D01*
X137022846Y-117407115D01*
X136863104Y-117291058D01*
X136863103Y-117291057D01*
X136863101Y-117291056D01*
X136687161Y-117201409D01*
X136682809Y-117199995D01*
X136499363Y-117140389D01*
X136304336Y-117109500D01*
X136304331Y-117109500D01*
X136106869Y-117109500D01*
X136106864Y-117109500D01*
X135911836Y-117140389D01*
X135724041Y-117201408D01*
X135548095Y-117291058D01*
X135388353Y-117407115D01*
X135248715Y-117546753D01*
X135132658Y-117706495D01*
X135132656Y-117706499D01*
X135090612Y-117789015D01*
X135066085Y-117837151D01*
X135018110Y-117887947D01*
X134950289Y-117904742D01*
X134884154Y-117882204D01*
X134845115Y-117837151D01*
X134778544Y-117706499D01*
X134729283Y-117638696D01*
X134662484Y-117546753D01*
X134522846Y-117407115D01*
X134363104Y-117291058D01*
X134363103Y-117291057D01*
X134363101Y-117291056D01*
X134187161Y-117201409D01*
X134182809Y-117199995D01*
X133999363Y-117140389D01*
X133804336Y-117109500D01*
X133804331Y-117109500D01*
X133606869Y-117109500D01*
X133606864Y-117109500D01*
X133411836Y-117140389D01*
X133224041Y-117201408D01*
X133048095Y-117291058D01*
X132888353Y-117407115D01*
X132748715Y-117546753D01*
X132632658Y-117706495D01*
X132543008Y-117882441D01*
X132481989Y-118070236D01*
X132451100Y-118265263D01*
X129126100Y-118265263D01*
X129126100Y-117568500D01*
X130124100Y-117568500D01*
X130876100Y-117568500D01*
X130876100Y-117052662D01*
X131874100Y-117052662D01*
X131952850Y-116944271D01*
X131955793Y-116940383D01*
X131974052Y-116917224D01*
X131977142Y-116913459D01*
X132002603Y-116883652D01*
X132005837Y-116880013D01*
X132025811Y-116858408D01*
X132029181Y-116854904D01*
X132196504Y-116687581D01*
X132200008Y-116684211D01*
X132221613Y-116664237D01*
X132225252Y-116661003D01*
X132255059Y-116635542D01*
X132258824Y-116632452D01*
X132281983Y-116614193D01*
X132285871Y-116611250D01*
X132477351Y-116472133D01*
X132481346Y-116469348D01*
X132505840Y-116452982D01*
X132509942Y-116450357D01*
X132543365Y-116429876D01*
X132547565Y-116427414D01*
X132573261Y-116413024D01*
X132577554Y-116410729D01*
X132788415Y-116303289D01*
X132792795Y-116301165D01*
X132819538Y-116288836D01*
X132823998Y-116286885D01*
X132860214Y-116271883D01*
X132864751Y-116270107D01*
X132892394Y-116259909D01*
X132896994Y-116258314D01*
X133037101Y-116212790D01*
X139374100Y-116212790D01*
X139514206Y-116258314D01*
X139518806Y-116259909D01*
X139546449Y-116270107D01*
X139550986Y-116271883D01*
X139587202Y-116286885D01*
X139591662Y-116288836D01*
X139618405Y-116301165D01*
X139622785Y-116303289D01*
X139833646Y-116410729D01*
X139837939Y-116413024D01*
X139863635Y-116427414D01*
X139867835Y-116429876D01*
X139901258Y-116450357D01*
X139905360Y-116452982D01*
X139929854Y-116469348D01*
X139933849Y-116472133D01*
X140125329Y-116611250D01*
X140129217Y-116614193D01*
X140152376Y-116632452D01*
X140156141Y-116635542D01*
X140185948Y-116661003D01*
X140189587Y-116664237D01*
X140211192Y-116684211D01*
X140214696Y-116687581D01*
X140382019Y-116854904D01*
X140385389Y-116858408D01*
X140405363Y-116880013D01*
X140408597Y-116883652D01*
X140434058Y-116913459D01*
X140437148Y-116917224D01*
X140455407Y-116940383D01*
X140458350Y-116944271D01*
X140597467Y-117135751D01*
X140600252Y-117139746D01*
X140616618Y-117164240D01*
X140619243Y-117168342D01*
X140639724Y-117201765D01*
X140642186Y-117205965D01*
X140656576Y-117231661D01*
X140658871Y-117235954D01*
X140766311Y-117446815D01*
X140768435Y-117451195D01*
X140780764Y-117477938D01*
X140782715Y-117482398D01*
X140797717Y-117518614D01*
X140799493Y-117523151D01*
X140809691Y-117550794D01*
X140811286Y-117555394D01*
X140815544Y-117568500D01*
X140876100Y-117568500D01*
X141874100Y-117568500D01*
X143376100Y-117568500D01*
X144374100Y-117568500D01*
X145185600Y-117568500D01*
X145185600Y-116889454D01*
X145195039Y-116842002D01*
X145195868Y-116840000D01*
X145195039Y-116837998D01*
X145185600Y-116790546D01*
X145185600Y-116066500D01*
X144374100Y-116066500D01*
X144374100Y-117568500D01*
X143376100Y-117568500D01*
X143376100Y-116066500D01*
X141874100Y-116066500D01*
X141874100Y-117568500D01*
X140876100Y-117568500D01*
X140876100Y-116066500D01*
X139374100Y-116066500D01*
X139374100Y-116212790D01*
X133037101Y-116212790D01*
X133122088Y-116185176D01*
X133126747Y-116183763D01*
X133155116Y-116175762D01*
X133159836Y-116174530D01*
X133197952Y-116165382D01*
X133202703Y-116164340D01*
X133231574Y-116158598D01*
X133236363Y-116157743D01*
X133376100Y-116135609D01*
X133376100Y-116066500D01*
X131874100Y-116066500D01*
X131874100Y-117052662D01*
X130876100Y-117052662D01*
X130876100Y-116066500D01*
X130124100Y-116066500D01*
X130124100Y-117568500D01*
X129126100Y-117568500D01*
X129126100Y-115292155D01*
X146183600Y-115292155D01*
X146183600Y-116590000D01*
X147464536Y-116590000D01*
X147452807Y-116618316D01*
X147423600Y-116765147D01*
X147423600Y-116914853D01*
X147452807Y-117061684D01*
X147464536Y-117090000D01*
X146183600Y-117090000D01*
X146183600Y-118387844D01*
X146190001Y-118447372D01*
X146190003Y-118447379D01*
X146240245Y-118582086D01*
X146240249Y-118582093D01*
X146326409Y-118697187D01*
X146326412Y-118697190D01*
X146441506Y-118783350D01*
X146441513Y-118783354D01*
X146576220Y-118833596D01*
X146576227Y-118833598D01*
X146635755Y-118839999D01*
X146635772Y-118840000D01*
X147933600Y-118840000D01*
X147933600Y-117559064D01*
X147961916Y-117570793D01*
X148108747Y-117600000D01*
X148258453Y-117600000D01*
X148405284Y-117570793D01*
X148433600Y-117559064D01*
X148433600Y-118840000D01*
X149731428Y-118840000D01*
X149731444Y-118839999D01*
X149790972Y-118833598D01*
X149790979Y-118833596D01*
X149925686Y-118783354D01*
X149925693Y-118783350D01*
X150040787Y-118697190D01*
X150040790Y-118697187D01*
X150126950Y-118582093D01*
X150126954Y-118582086D01*
X150177196Y-118447379D01*
X150177198Y-118447372D01*
X150183599Y-118387844D01*
X150183600Y-118387827D01*
X150183600Y-117090000D01*
X148902664Y-117090000D01*
X148914393Y-117061684D01*
X148943600Y-116914853D01*
X148943600Y-116765147D01*
X148932406Y-116708872D01*
X151263100Y-116708872D01*
X151263100Y-116971127D01*
X151285385Y-117140389D01*
X151297330Y-117231116D01*
X151365202Y-117484418D01*
X151365205Y-117484428D01*
X151465553Y-117726690D01*
X151465558Y-117726700D01*
X151596675Y-117953803D01*
X151756318Y-118161851D01*
X151756326Y-118161860D01*
X151941740Y-118347274D01*
X151941748Y-118347281D01*
X151941749Y-118347282D01*
X151990154Y-118384424D01*
X152149796Y-118506924D01*
X152376899Y-118638041D01*
X152376909Y-118638046D01*
X152619171Y-118738394D01*
X152619181Y-118738398D01*
X152872484Y-118806270D01*
X153120788Y-118838960D01*
X153128674Y-118839999D01*
X153132480Y-118840500D01*
X153132487Y-118840500D01*
X153394713Y-118840500D01*
X153394720Y-118840500D01*
X153654716Y-118806270D01*
X153908019Y-118738398D01*
X154129878Y-118646501D01*
X154150290Y-118638046D01*
X154150291Y-118638045D01*
X154150297Y-118638043D01*
X154281120Y-118562513D01*
X159787100Y-118562513D01*
X159787100Y-118775087D01*
X159820354Y-118985043D01*
X159884106Y-119181252D01*
X159886044Y-119187214D01*
X159982551Y-119376620D01*
X160107490Y-119548586D01*
X160257813Y-119698909D01*
X160429779Y-119823848D01*
X160429781Y-119823849D01*
X160429784Y-119823851D01*
X160619188Y-119920357D01*
X160821357Y-119986046D01*
X161031313Y-120019300D01*
X161031314Y-120019300D01*
X161243886Y-120019300D01*
X161243887Y-120019300D01*
X161453843Y-119986046D01*
X161656012Y-119920357D01*
X161845416Y-119823851D01*
X161867389Y-119807886D01*
X162017386Y-119698909D01*
X162017388Y-119698906D01*
X162017392Y-119698904D01*
X162167704Y-119548592D01*
X162167706Y-119548588D01*
X162167709Y-119548586D01*
X162276686Y-119398589D01*
X162292651Y-119376616D01*
X162389157Y-119187212D01*
X162454846Y-118985043D01*
X162488100Y-118775087D01*
X162488100Y-118562513D01*
X162454846Y-118352557D01*
X162389157Y-118150388D01*
X162292651Y-117960984D01*
X162292649Y-117960981D01*
X162292648Y-117960979D01*
X162167709Y-117789013D01*
X162053781Y-117675085D01*
X162020296Y-117613762D01*
X162025280Y-117544070D01*
X162067152Y-117488137D01*
X162098129Y-117471222D01*
X162229686Y-117422154D01*
X162229693Y-117422150D01*
X162344787Y-117335990D01*
X162344790Y-117335987D01*
X162430950Y-117220893D01*
X162430954Y-117220886D01*
X162481196Y-117086179D01*
X162481198Y-117086172D01*
X162487599Y-117026644D01*
X162487600Y-117026627D01*
X162487600Y-116378800D01*
X161570612Y-116378800D01*
X161603525Y-116321793D01*
X161637600Y-116194626D01*
X161637600Y-116062974D01*
X161603525Y-115935807D01*
X161570612Y-115878800D01*
X162487600Y-115878800D01*
X162487600Y-115230972D01*
X162487599Y-115230955D01*
X162481198Y-115171427D01*
X162481196Y-115171420D01*
X162430954Y-115036713D01*
X162430950Y-115036706D01*
X162344790Y-114921612D01*
X162344787Y-114921609D01*
X162229693Y-114835449D01*
X162229686Y-114835445D01*
X162094979Y-114785203D01*
X162094972Y-114785201D01*
X162035444Y-114778800D01*
X161387600Y-114778800D01*
X161387600Y-115695788D01*
X161330593Y-115662875D01*
X161203426Y-115628800D01*
X161071774Y-115628800D01*
X160944607Y-115662875D01*
X160887600Y-115695788D01*
X160887600Y-114778800D01*
X160239755Y-114778800D01*
X160180227Y-114785201D01*
X160180220Y-114785203D01*
X160045513Y-114835445D01*
X160045506Y-114835449D01*
X159930412Y-114921609D01*
X159930409Y-114921612D01*
X159844249Y-115036706D01*
X159844245Y-115036713D01*
X159794003Y-115171420D01*
X159794001Y-115171427D01*
X159787600Y-115230955D01*
X159787600Y-115878800D01*
X160704588Y-115878800D01*
X160671675Y-115935807D01*
X160637600Y-116062974D01*
X160637600Y-116194626D01*
X160671675Y-116321793D01*
X160704588Y-116378800D01*
X159787600Y-116378800D01*
X159787600Y-117026644D01*
X159794001Y-117086172D01*
X159794003Y-117086179D01*
X159844245Y-117220886D01*
X159844249Y-117220893D01*
X159930409Y-117335987D01*
X159930412Y-117335990D01*
X160045506Y-117422150D01*
X160045513Y-117422154D01*
X160177070Y-117471222D01*
X160233004Y-117513093D01*
X160257421Y-117578558D01*
X160242569Y-117646831D01*
X160221419Y-117675085D01*
X160107489Y-117789015D01*
X159982551Y-117960979D01*
X159886044Y-118150385D01*
X159820353Y-118352560D01*
X159802904Y-118462731D01*
X159787100Y-118562513D01*
X154281120Y-118562513D01*
X154377403Y-118506924D01*
X154585451Y-118347282D01*
X154585455Y-118347277D01*
X154585460Y-118347274D01*
X154770874Y-118161860D01*
X154770877Y-118161855D01*
X154770882Y-118161851D01*
X154930524Y-117953803D01*
X155061643Y-117726697D01*
X155127170Y-117568500D01*
X156874100Y-117568500D01*
X158376100Y-117568500D01*
X158376100Y-116066500D01*
X156874100Y-116066500D01*
X156874100Y-117568500D01*
X155127170Y-117568500D01*
X155161998Y-117484419D01*
X155229870Y-117231116D01*
X155264100Y-116971120D01*
X155264100Y-116708880D01*
X155229870Y-116448884D01*
X155161998Y-116195581D01*
X155161994Y-116195571D01*
X155061646Y-115953309D01*
X155061641Y-115953299D01*
X154930524Y-115726196D01*
X154770881Y-115518148D01*
X154770874Y-115518140D01*
X154585460Y-115332726D01*
X154585451Y-115332718D01*
X154377403Y-115173075D01*
X154150300Y-115041958D01*
X154150290Y-115041953D01*
X153908028Y-114941605D01*
X153908021Y-114941603D01*
X153908019Y-114941602D01*
X153654716Y-114873730D01*
X153596939Y-114866123D01*
X153394727Y-114839500D01*
X153394720Y-114839500D01*
X153132480Y-114839500D01*
X153132472Y-114839500D01*
X152901372Y-114869926D01*
X152872484Y-114873730D01*
X152693785Y-114921612D01*
X152619181Y-114941602D01*
X152619171Y-114941605D01*
X152376909Y-115041953D01*
X152376899Y-115041958D01*
X152149796Y-115173075D01*
X151941748Y-115332718D01*
X151756318Y-115518148D01*
X151596675Y-115726196D01*
X151465558Y-115953299D01*
X151465553Y-115953309D01*
X151365205Y-116195571D01*
X151365202Y-116195581D01*
X151297330Y-116448884D01*
X151294636Y-116469348D01*
X151263100Y-116708872D01*
X148932406Y-116708872D01*
X148914393Y-116618316D01*
X148902664Y-116590000D01*
X150183600Y-116590000D01*
X150183600Y-115292172D01*
X150183599Y-115292155D01*
X150177198Y-115232627D01*
X150177196Y-115232620D01*
X150126954Y-115097913D01*
X150126950Y-115097906D01*
X150040790Y-114982812D01*
X150040787Y-114982809D01*
X149925693Y-114896649D01*
X149925686Y-114896645D01*
X149790979Y-114846403D01*
X149790972Y-114846401D01*
X149731444Y-114840000D01*
X148433600Y-114840000D01*
X148433600Y-116120935D01*
X148405284Y-116109207D01*
X148258453Y-116080000D01*
X148108747Y-116080000D01*
X147961916Y-116109207D01*
X147933600Y-116120935D01*
X147933600Y-114840000D01*
X146635755Y-114840000D01*
X146576227Y-114846401D01*
X146576220Y-114846403D01*
X146441513Y-114896645D01*
X146441506Y-114896649D01*
X146326412Y-114982809D01*
X146326409Y-114982812D01*
X146240249Y-115097906D01*
X146240245Y-115097913D01*
X146190003Y-115232620D01*
X146190001Y-115232627D01*
X146183600Y-115292155D01*
X129126100Y-115292155D01*
X129126100Y-115068500D01*
X130124100Y-115068500D01*
X130876100Y-115068500D01*
X131874100Y-115068500D01*
X133376100Y-115068500D01*
X134374100Y-115068500D01*
X135876100Y-115068500D01*
X136874100Y-115068500D01*
X138376100Y-115068500D01*
X139374100Y-115068500D01*
X140876100Y-115068500D01*
X141874100Y-115068500D01*
X143376100Y-115068500D01*
X144374100Y-115068500D01*
X145205334Y-115068500D01*
X145210028Y-115041084D01*
X145211572Y-115033499D01*
X145225915Y-114972788D01*
X145227932Y-114965305D01*
X145241542Y-114920436D01*
X145244021Y-114913096D01*
X145317630Y-114715739D01*
X145321019Y-114707559D01*
X145343277Y-114658823D01*
X145347238Y-114650909D01*
X145381415Y-114588319D01*
X145385933Y-114580705D01*
X145414897Y-114535638D01*
X145419945Y-114528368D01*
X145548843Y-114356184D01*
X145554396Y-114349293D01*
X145589476Y-114308808D01*
X145595508Y-114302329D01*
X145645929Y-114251908D01*
X145652408Y-114245876D01*
X145692893Y-114210796D01*
X145699784Y-114205243D01*
X145871968Y-114076345D01*
X145876100Y-114073475D01*
X145876100Y-113842000D01*
X149374100Y-113842000D01*
X149744777Y-113842000D01*
X149748091Y-113842044D01*
X149768139Y-113842580D01*
X149771455Y-113842713D01*
X149798142Y-113844142D01*
X149801456Y-113844364D01*
X149821505Y-113845977D01*
X149824817Y-113846289D01*
X149928669Y-113857455D01*
X149936338Y-113858522D01*
X149982516Y-113866428D01*
X149990101Y-113867972D01*
X150050812Y-113882315D01*
X150058295Y-113884332D01*
X150103164Y-113897942D01*
X150110504Y-113900421D01*
X150307861Y-113974030D01*
X150316041Y-113977419D01*
X150364777Y-113999677D01*
X150372691Y-114003638D01*
X150435281Y-114037815D01*
X150442895Y-114042333D01*
X150487962Y-114071297D01*
X150495232Y-114076345D01*
X150667416Y-114205243D01*
X150674307Y-114210796D01*
X150714792Y-114245876D01*
X150721271Y-114251908D01*
X150771692Y-114302329D01*
X150777724Y-114308808D01*
X150812804Y-114349293D01*
X150818357Y-114356184D01*
X150876100Y-114433318D01*
X150876100Y-114179859D01*
X151874100Y-114179859D01*
X151892042Y-114169501D01*
X151895585Y-114167532D01*
X151917216Y-114155969D01*
X151920825Y-114154115D01*
X151950120Y-114139667D01*
X151953788Y-114137932D01*
X151976161Y-114127794D01*
X151979888Y-114126178D01*
X152153104Y-114054430D01*
X154374100Y-114054430D01*
X154547312Y-114126178D01*
X154551039Y-114127794D01*
X154573412Y-114137932D01*
X154577080Y-114139667D01*
X154606375Y-114154115D01*
X154609984Y-114155969D01*
X154631615Y-114167532D01*
X154635158Y-114169501D01*
X154890547Y-114316949D01*
X154894026Y-114319034D01*
X154914876Y-114331999D01*
X154918289Y-114334200D01*
X154945450Y-114352349D01*
X154948785Y-114354657D01*
X154968735Y-114368953D01*
X154971995Y-114371371D01*
X155205941Y-114550886D01*
X155209116Y-114553405D01*
X155228060Y-114568951D01*
X155231147Y-114571570D01*
X155255707Y-114593104D01*
X155258720Y-114595834D01*
X155276663Y-114612638D01*
X155279582Y-114615464D01*
X155488136Y-114824018D01*
X155490962Y-114826937D01*
X155507766Y-114844880D01*
X155510496Y-114847893D01*
X155532030Y-114872453D01*
X155534649Y-114875540D01*
X155550195Y-114894484D01*
X155552714Y-114897659D01*
X155683806Y-115068500D01*
X155876100Y-115068500D01*
X155876100Y-113566500D01*
X154374100Y-113566500D01*
X154374100Y-114054430D01*
X152153104Y-114054430D01*
X152252367Y-114013314D01*
X152256142Y-114011822D01*
X152279144Y-114003165D01*
X152282975Y-114001795D01*
X152313908Y-113991298D01*
X152317765Y-113990059D01*
X152341224Y-113982944D01*
X152345120Y-113981831D01*
X152629957Y-113905509D01*
X152633893Y-113904523D01*
X152657794Y-113898950D01*
X152661762Y-113898093D01*
X152693798Y-113891721D01*
X152697788Y-113890995D01*
X152722008Y-113886996D01*
X152726022Y-113886401D01*
X153018405Y-113847907D01*
X153022433Y-113847444D01*
X153046863Y-113845037D01*
X153050913Y-113844704D01*
X153083510Y-113842568D01*
X153087561Y-113842369D01*
X153112092Y-113841566D01*
X153116149Y-113841500D01*
X153376100Y-113841500D01*
X153376100Y-113566500D01*
X151874100Y-113566500D01*
X151874100Y-114179859D01*
X150876100Y-114179859D01*
X150876100Y-113566500D01*
X149374100Y-113566500D01*
X149374100Y-113842000D01*
X145876100Y-113842000D01*
X145876100Y-113566500D01*
X144374100Y-113566500D01*
X144374100Y-115068500D01*
X143376100Y-115068500D01*
X143376100Y-113566500D01*
X141874100Y-113566500D01*
X141874100Y-115068500D01*
X140876100Y-115068500D01*
X140876100Y-113566500D01*
X139374100Y-113566500D01*
X139374100Y-115068500D01*
X138376100Y-115068500D01*
X138376100Y-113566500D01*
X136874100Y-113566500D01*
X136874100Y-115068500D01*
X135876100Y-115068500D01*
X135876100Y-113566500D01*
X134374100Y-113566500D01*
X134374100Y-115068500D01*
X133376100Y-115068500D01*
X133376100Y-113566500D01*
X131874100Y-113566500D01*
X131874100Y-115068500D01*
X130876100Y-115068500D01*
X130876100Y-113566500D01*
X130124100Y-113566500D01*
X130124100Y-115068500D01*
X129126100Y-115068500D01*
X129126100Y-111753209D01*
X130124100Y-111753209D01*
X130124100Y-112568500D01*
X130876100Y-112568500D01*
X131874100Y-112568500D01*
X133376100Y-112568500D01*
X133376100Y-111729480D01*
X133162725Y-111763277D01*
X133157901Y-111763945D01*
X133128667Y-111767405D01*
X133123830Y-111767881D01*
X133084751Y-111770959D01*
X133079886Y-111771246D01*
X133050434Y-111772404D01*
X133045562Y-111772500D01*
X132801638Y-111772500D01*
X132796766Y-111772404D01*
X132767314Y-111771246D01*
X132762449Y-111770959D01*
X132723370Y-111767881D01*
X132718533Y-111767405D01*
X132689299Y-111763945D01*
X132684475Y-111763277D01*
X132443599Y-111725125D01*
X132438811Y-111724270D01*
X132409948Y-111718530D01*
X132405197Y-111717488D01*
X132367078Y-111708340D01*
X132362359Y-111707109D01*
X132333980Y-111699106D01*
X132329317Y-111697692D01*
X132097350Y-111622320D01*
X132092756Y-111620727D01*
X132065147Y-111610543D01*
X132060616Y-111608770D01*
X132024400Y-111593772D01*
X132019933Y-111591818D01*
X131993157Y-111579475D01*
X131988773Y-111577349D01*
X131874100Y-111518919D01*
X131874100Y-112568500D01*
X130876100Y-112568500D01*
X130876100Y-111728975D01*
X130662667Y-111762781D01*
X130657837Y-111763449D01*
X130628564Y-111766912D01*
X130623720Y-111767389D01*
X130584640Y-111770463D01*
X130579781Y-111770750D01*
X130550367Y-111771905D01*
X130545502Y-111772000D01*
X130301698Y-111772000D01*
X130296833Y-111771905D01*
X130267419Y-111770750D01*
X130262560Y-111770463D01*
X130223480Y-111767389D01*
X130218636Y-111766912D01*
X130189363Y-111763449D01*
X130184532Y-111762781D01*
X130124100Y-111753209D01*
X129126100Y-111753209D01*
X129126100Y-111261228D01*
X134374100Y-111261228D01*
X134374100Y-112568500D01*
X135876100Y-112568500D01*
X136874100Y-112568500D01*
X138376100Y-112568500D01*
X139374100Y-112568500D01*
X140876100Y-112568500D01*
X141874100Y-112568500D01*
X143376100Y-112568500D01*
X144374100Y-112568500D01*
X145876100Y-112568500D01*
X146874100Y-112568500D01*
X148376100Y-112568500D01*
X149374100Y-112568500D01*
X150876100Y-112568500D01*
X151874100Y-112568500D01*
X153376100Y-112568500D01*
X154374100Y-112568500D01*
X155876100Y-112568500D01*
X155876100Y-111066500D01*
X154374100Y-111066500D01*
X154374100Y-112568500D01*
X153376100Y-112568500D01*
X153376100Y-111066500D01*
X151874100Y-111066500D01*
X151874100Y-112568500D01*
X150876100Y-112568500D01*
X150876100Y-111066500D01*
X149374100Y-111066500D01*
X149374100Y-112568500D01*
X148376100Y-112568500D01*
X148376100Y-111066500D01*
X146874100Y-111066500D01*
X146874100Y-112568500D01*
X145876100Y-112568500D01*
X145876100Y-111066500D01*
X144374100Y-111066500D01*
X144374100Y-112568500D01*
X143376100Y-112568500D01*
X143376100Y-111066500D01*
X141874100Y-111066500D01*
X141874100Y-112568500D01*
X140876100Y-112568500D01*
X140876100Y-111066500D01*
X139374100Y-111066500D01*
X139374100Y-112568500D01*
X138376100Y-112568500D01*
X138376100Y-111066500D01*
X136874100Y-111066500D01*
X136874100Y-112568500D01*
X135876100Y-112568500D01*
X135876100Y-111066500D01*
X134581669Y-111066500D01*
X134462663Y-111185506D01*
X134459159Y-111188876D01*
X134437554Y-111208850D01*
X134433915Y-111212084D01*
X134404108Y-111237545D01*
X134400343Y-111240635D01*
X134377184Y-111258894D01*
X134374100Y-111261228D01*
X129126100Y-111261228D01*
X129126100Y-110281471D01*
X129145785Y-110214432D01*
X129198589Y-110168677D01*
X129267747Y-110158733D01*
X129331303Y-110187758D01*
X129342338Y-110199781D01*
X129344124Y-110199922D01*
X130023600Y-109520446D01*
X130023600Y-109526661D01*
X130050859Y-109628394D01*
X130103520Y-109719606D01*
X130177994Y-109794080D01*
X130269206Y-109846741D01*
X130370939Y-109874000D01*
X130377153Y-109874000D01*
X129697676Y-110553474D01*
X129742250Y-110585859D01*
X129924568Y-110678755D01*
X130119182Y-110741990D01*
X130321283Y-110774000D01*
X130525917Y-110774000D01*
X130728017Y-110741990D01*
X130922631Y-110678755D01*
X131104949Y-110585859D01*
X131149521Y-110553474D01*
X130470047Y-109874000D01*
X130476261Y-109874000D01*
X130577994Y-109846741D01*
X130669206Y-109794080D01*
X130743680Y-109719606D01*
X130796341Y-109628394D01*
X130823600Y-109526661D01*
X130823600Y-109520447D01*
X131503074Y-110199921D01*
X131535459Y-110155349D01*
X131562833Y-110101624D01*
X131610807Y-110050827D01*
X131678628Y-110034031D01*
X131744763Y-110056567D01*
X131783803Y-110101621D01*
X131811313Y-110155611D01*
X131931628Y-110321213D01*
X132076386Y-110465971D01*
X132196826Y-110553474D01*
X132241990Y-110586287D01*
X132358207Y-110645503D01*
X132424376Y-110679218D01*
X132424378Y-110679218D01*
X132424381Y-110679220D01*
X132528737Y-110713127D01*
X132619065Y-110742477D01*
X132720157Y-110758488D01*
X132821248Y-110774500D01*
X132821249Y-110774500D01*
X133025951Y-110774500D01*
X133025952Y-110774500D01*
X133228134Y-110742477D01*
X133422819Y-110679220D01*
X133605210Y-110586287D01*
X133698190Y-110518732D01*
X133770813Y-110465971D01*
X133770815Y-110465968D01*
X133770819Y-110465966D01*
X133915566Y-110321219D01*
X133915568Y-110321215D01*
X133915571Y-110321213D01*
X133968332Y-110248590D01*
X134035887Y-110155610D01*
X134128820Y-109973219D01*
X134191503Y-109780297D01*
X134230940Y-109722624D01*
X134295299Y-109695425D01*
X134364145Y-109707340D01*
X134371433Y-109711230D01*
X134488009Y-109778534D01*
X134489816Y-109779577D01*
X134642543Y-109820501D01*
X134642545Y-109820501D01*
X134808254Y-109820501D01*
X134808270Y-109820500D01*
X152142931Y-109820500D01*
X152142947Y-109820501D01*
X152150543Y-109820501D01*
X152308654Y-109820501D01*
X152308657Y-109820501D01*
X152461385Y-109779577D01*
X152511504Y-109750639D01*
X152598316Y-109700520D01*
X152710120Y-109588716D01*
X152710120Y-109588714D01*
X152720328Y-109578507D01*
X152720330Y-109578504D01*
X152962718Y-109336116D01*
X154374100Y-109336116D01*
X154374100Y-110068500D01*
X155876100Y-110068500D01*
X155876100Y-108583414D01*
X155873640Y-108584792D01*
X155869343Y-108587088D01*
X155666038Y-108690676D01*
X155661656Y-108692801D01*
X155634881Y-108705144D01*
X155630413Y-108707099D01*
X155594197Y-108722097D01*
X155589667Y-108723869D01*
X155562059Y-108734053D01*
X155557464Y-108735647D01*
X155340468Y-108806155D01*
X155335804Y-108807570D01*
X155307424Y-108815573D01*
X155302706Y-108816803D01*
X155264587Y-108825951D01*
X155259837Y-108826993D01*
X155230975Y-108832733D01*
X155226186Y-108833588D01*
X155000835Y-108869281D01*
X154996005Y-108869949D01*
X154966733Y-108873412D01*
X154961889Y-108873889D01*
X154922809Y-108876963D01*
X154917950Y-108877250D01*
X154888536Y-108878405D01*
X154883671Y-108878500D01*
X154831717Y-108878500D01*
X154374100Y-109336116D01*
X152962718Y-109336116D01*
X154408769Y-107890064D01*
X154470090Y-107856581D01*
X154515846Y-107855274D01*
X154675114Y-107880500D01*
X154675119Y-107880500D01*
X154864086Y-107880500D01*
X155050718Y-107850940D01*
X155081353Y-107840986D01*
X155230432Y-107792547D01*
X155398799Y-107706760D01*
X155551673Y-107595690D01*
X155685290Y-107462073D01*
X155796360Y-107309199D01*
X155882147Y-107140832D01*
X155940540Y-106961118D01*
X155940706Y-106960070D01*
X155970100Y-106774486D01*
X155970100Y-106585513D01*
X155940540Y-106398881D01*
X155895267Y-106259547D01*
X155882147Y-106219168D01*
X155882145Y-106219165D01*
X155882145Y-106219163D01*
X155829816Y-106116462D01*
X155796360Y-106050801D01*
X155685290Y-105897927D01*
X155551673Y-105764310D01*
X155398799Y-105653240D01*
X155230436Y-105567454D01*
X155050718Y-105509059D01*
X154864086Y-105479500D01*
X154864081Y-105479500D01*
X154675119Y-105479500D01*
X154675114Y-105479500D01*
X154488481Y-105509059D01*
X154308763Y-105567454D01*
X154140400Y-105653240D01*
X154092971Y-105687700D01*
X153987527Y-105764310D01*
X153987525Y-105764312D01*
X153987524Y-105764312D01*
X153853912Y-105897924D01*
X153853912Y-105897925D01*
X153853910Y-105897927D01*
X153839798Y-105917351D01*
X153742840Y-106050800D01*
X153657054Y-106219163D01*
X153598659Y-106398881D01*
X153569100Y-106585513D01*
X153569100Y-106774486D01*
X153594325Y-106933751D01*
X153585370Y-107003045D01*
X153559533Y-107040830D01*
X152017184Y-108583181D01*
X151955861Y-108616666D01*
X151929503Y-108619500D01*
X135021698Y-108619500D01*
X134954659Y-108599815D01*
X134934017Y-108583181D01*
X134038718Y-107687882D01*
X146495269Y-107687882D01*
X146495270Y-107687883D01*
X146520659Y-107706329D01*
X146688962Y-107792085D01*
X146868597Y-107850451D01*
X147055153Y-107880000D01*
X147244047Y-107880000D01*
X147430602Y-107850451D01*
X147610237Y-107792085D01*
X147778537Y-107706331D01*
X147803928Y-107687883D01*
X147803928Y-107687882D01*
X147684546Y-107568500D01*
X149374100Y-107568500D01*
X150876100Y-107568500D01*
X150876100Y-107314879D01*
X151874100Y-107314879D01*
X152571100Y-106617879D01*
X152571100Y-106565929D01*
X152571195Y-106561064D01*
X152572350Y-106531650D01*
X152572637Y-106526791D01*
X152575711Y-106487711D01*
X152576188Y-106482867D01*
X152579651Y-106453595D01*
X152580319Y-106448765D01*
X152616012Y-106223414D01*
X152616867Y-106218625D01*
X152622607Y-106189763D01*
X152623649Y-106185013D01*
X152632797Y-106146894D01*
X152634027Y-106142176D01*
X152642030Y-106113796D01*
X152643445Y-106109132D01*
X152657297Y-106066500D01*
X151874100Y-106066500D01*
X151874100Y-107314879D01*
X150876100Y-107314879D01*
X150876100Y-106066500D01*
X149374100Y-106066500D01*
X149374100Y-107568500D01*
X147684546Y-107568500D01*
X147149601Y-107033554D01*
X147149600Y-107033554D01*
X146495269Y-107687882D01*
X134038718Y-107687882D01*
X133946523Y-107595687D01*
X132948736Y-106597901D01*
X132915252Y-106536579D01*
X132920236Y-106466887D01*
X132962108Y-106410954D01*
X132993085Y-106394039D01*
X133100832Y-106353852D01*
X133122431Y-106345796D01*
X133237646Y-106259546D01*
X133323896Y-106144331D01*
X133334290Y-106116460D01*
X133376160Y-106060527D01*
X133441623Y-106036108D01*
X133509897Y-106050958D01*
X133523346Y-106059465D01*
X133706062Y-106192217D01*
X133836150Y-106258500D01*
X133909844Y-106296049D01*
X134127351Y-106366721D01*
X134127352Y-106366721D01*
X134127355Y-106366722D01*
X134353246Y-106402500D01*
X134353247Y-106402500D01*
X134581953Y-106402500D01*
X134581954Y-106402500D01*
X134807845Y-106366722D01*
X134863263Y-106348714D01*
X134933103Y-106346718D01*
X134989263Y-106378964D01*
X136068990Y-107458692D01*
X136068994Y-107458695D01*
X136179624Y-107532616D01*
X136179628Y-107532618D01*
X136179631Y-107532620D01*
X136302564Y-107583541D01*
X136433064Y-107609499D01*
X136433068Y-107609500D01*
X136433069Y-107609500D01*
X141900132Y-107609500D01*
X141900133Y-107609499D01*
X142030636Y-107583541D01*
X142066948Y-107568500D01*
X144374100Y-107568500D01*
X145135710Y-107568500D01*
X145124941Y-107545139D01*
X145122991Y-107540681D01*
X145107989Y-107504465D01*
X145106214Y-107499929D01*
X145096015Y-107472284D01*
X145094419Y-107467683D01*
X145023933Y-107250748D01*
X145022519Y-107246086D01*
X145014519Y-107217718D01*
X145013288Y-107213001D01*
X145004140Y-107174886D01*
X145003098Y-107170135D01*
X144997356Y-107141264D01*
X144996501Y-107136475D01*
X144960819Y-106911198D01*
X144960151Y-106906367D01*
X144956688Y-106877095D01*
X144956211Y-106872250D01*
X144953137Y-106833169D01*
X144952850Y-106828311D01*
X144951695Y-106798897D01*
X144951600Y-106794032D01*
X144951600Y-106585552D01*
X145949600Y-106585552D01*
X145949600Y-106774447D01*
X145979148Y-106961002D01*
X146037514Y-107140637D01*
X146123266Y-107308933D01*
X146141716Y-107334328D01*
X146796046Y-106680000D01*
X146796046Y-106679999D01*
X146749969Y-106633922D01*
X146799600Y-106633922D01*
X146799600Y-106726078D01*
X146823452Y-106815095D01*
X146869530Y-106894905D01*
X146934695Y-106960070D01*
X147014505Y-107006148D01*
X147103522Y-107030000D01*
X147195678Y-107030000D01*
X147284695Y-107006148D01*
X147364505Y-106960070D01*
X147429670Y-106894905D01*
X147475748Y-106815095D01*
X147499600Y-106726078D01*
X147499600Y-106679999D01*
X147503154Y-106679999D01*
X147503154Y-106680000D01*
X148157482Y-107334328D01*
X148157483Y-107334328D01*
X148175931Y-107308937D01*
X148261685Y-107140637D01*
X148320051Y-106961002D01*
X148349600Y-106774447D01*
X148349600Y-106585552D01*
X148320051Y-106398997D01*
X148261685Y-106219362D01*
X148175929Y-106051059D01*
X148157483Y-106025670D01*
X148157482Y-106025669D01*
X147503154Y-106679999D01*
X147499600Y-106679999D01*
X147499600Y-106633922D01*
X147475748Y-106544905D01*
X147429670Y-106465095D01*
X147364505Y-106399930D01*
X147284695Y-106353852D01*
X147195678Y-106330000D01*
X147103522Y-106330000D01*
X147014505Y-106353852D01*
X146934695Y-106399930D01*
X146869530Y-106465095D01*
X146823452Y-106544905D01*
X146799600Y-106633922D01*
X146749969Y-106633922D01*
X146141716Y-106025669D01*
X146141716Y-106025670D01*
X146123269Y-106051060D01*
X146037514Y-106219362D01*
X145979148Y-106398997D01*
X145949600Y-106585552D01*
X144951600Y-106585552D01*
X144951600Y-106565968D01*
X144951695Y-106561103D01*
X144952850Y-106531689D01*
X144953137Y-106526831D01*
X144956211Y-106487750D01*
X144956688Y-106482905D01*
X144960151Y-106453633D01*
X144960819Y-106448802D01*
X144996501Y-106223525D01*
X144997356Y-106218736D01*
X145003098Y-106189865D01*
X145004140Y-106185114D01*
X145013288Y-106146999D01*
X145014519Y-106142282D01*
X145022519Y-106113914D01*
X145023933Y-106109252D01*
X145037824Y-106066500D01*
X144374100Y-106066500D01*
X144374100Y-107568500D01*
X142066948Y-107568500D01*
X142153569Y-107532620D01*
X142264206Y-107458695D01*
X142310081Y-107412820D01*
X142371404Y-107379334D01*
X142397763Y-107376500D01*
X142435217Y-107376500D01*
X142435218Y-107376499D01*
X142618851Y-107339973D01*
X142791831Y-107268322D01*
X142947508Y-107164302D01*
X143079902Y-107031908D01*
X143183922Y-106876231D01*
X143255573Y-106703251D01*
X143292100Y-106519616D01*
X143292100Y-106332384D01*
X143255573Y-106148749D01*
X143183922Y-105975769D01*
X143183921Y-105975768D01*
X143183918Y-105975762D01*
X143079902Y-105820092D01*
X143079899Y-105820088D01*
X142947511Y-105687700D01*
X142947507Y-105687697D01*
X142924189Y-105672116D01*
X146495269Y-105672116D01*
X147149600Y-106326446D01*
X147149601Y-106326446D01*
X147803928Y-105672116D01*
X147778533Y-105653666D01*
X147610237Y-105567914D01*
X147430602Y-105509548D01*
X147244047Y-105480000D01*
X147055153Y-105480000D01*
X146868597Y-105509548D01*
X146688962Y-105567914D01*
X146520660Y-105653669D01*
X146495270Y-105672116D01*
X146495269Y-105672116D01*
X142924189Y-105672116D01*
X142791837Y-105583681D01*
X142791828Y-105583676D01*
X142618851Y-105512027D01*
X142618843Y-105512025D01*
X142435220Y-105475500D01*
X142435216Y-105475500D01*
X142247984Y-105475500D01*
X142247979Y-105475500D01*
X142064356Y-105512025D01*
X142064348Y-105512027D01*
X141891371Y-105583676D01*
X141891362Y-105583681D01*
X141735692Y-105687697D01*
X141735688Y-105687700D01*
X141603300Y-105820088D01*
X141603297Y-105820092D01*
X141499281Y-105975762D01*
X141499276Y-105975771D01*
X141427627Y-106148747D01*
X141426840Y-106152703D01*
X141425649Y-106158692D01*
X141393265Y-106220602D01*
X141332549Y-106255176D01*
X141304032Y-106258500D01*
X138052814Y-106258500D01*
X137985775Y-106238815D01*
X137940020Y-106186011D01*
X137930076Y-106116853D01*
X137959101Y-106053297D01*
X137965133Y-106046819D01*
X138036190Y-105975762D01*
X138115886Y-105896066D01*
X138250317Y-105711038D01*
X138354148Y-105507258D01*
X138424822Y-105289745D01*
X138460600Y-105063854D01*
X138460600Y-104740146D01*
X138424822Y-104514255D01*
X138424821Y-104514251D01*
X138424821Y-104514250D01*
X138354149Y-104296744D01*
X138352591Y-104293687D01*
X138308032Y-104206234D01*
X139374100Y-104206234D01*
X139380038Y-104224510D01*
X139381453Y-104229174D01*
X139389455Y-104257551D01*
X139390685Y-104262268D01*
X139399833Y-104300386D01*
X139400875Y-104305137D01*
X139406615Y-104334000D01*
X139407470Y-104338788D01*
X139449377Y-104603373D01*
X139450045Y-104608197D01*
X139453505Y-104637431D01*
X139453981Y-104642268D01*
X139457059Y-104681347D01*
X139457346Y-104686212D01*
X139458504Y-104715664D01*
X139458600Y-104720536D01*
X139458600Y-105068500D01*
X140876100Y-105068500D01*
X144374100Y-105068500D01*
X145675094Y-105068500D01*
X149374100Y-105068500D01*
X150876100Y-105068500D01*
X151874100Y-105068500D01*
X153271953Y-105068500D01*
X153295693Y-105044760D01*
X153299202Y-105041386D01*
X153320830Y-105021393D01*
X153321616Y-105020694D01*
X153317202Y-105016614D01*
X153313693Y-105013240D01*
X153152360Y-104851907D01*
X153148986Y-104848398D01*
X153128993Y-104826770D01*
X153125758Y-104823130D01*
X153100300Y-104793323D01*
X153097212Y-104789560D01*
X153078975Y-104766427D01*
X153076035Y-104762544D01*
X152941920Y-104577953D01*
X152939134Y-104573955D01*
X152922766Y-104549457D01*
X152920142Y-104545358D01*
X152899660Y-104511934D01*
X152897199Y-104507736D01*
X152882808Y-104482040D01*
X152880512Y-104477743D01*
X152776924Y-104274438D01*
X152774799Y-104270056D01*
X152762456Y-104243281D01*
X152760501Y-104238813D01*
X152745503Y-104202597D01*
X152743731Y-104198067D01*
X152733547Y-104170459D01*
X152731953Y-104165864D01*
X152661445Y-103948868D01*
X152660030Y-103944204D01*
X152652027Y-103915824D01*
X152650797Y-103911106D01*
X152641649Y-103872987D01*
X152640607Y-103868237D01*
X152634867Y-103839375D01*
X152634012Y-103834586D01*
X152598319Y-103609235D01*
X152597651Y-103604405D01*
X152594188Y-103575133D01*
X152593711Y-103570289D01*
X152593413Y-103566500D01*
X151874100Y-103566500D01*
X151874100Y-105068500D01*
X150876100Y-105068500D01*
X150876100Y-103566500D01*
X149374100Y-103566500D01*
X149374100Y-105068500D01*
X145675094Y-105068500D01*
X145693995Y-105034751D01*
X145704289Y-105023166D01*
X145697202Y-105016614D01*
X145693693Y-105013240D01*
X145532360Y-104851907D01*
X145528986Y-104848398D01*
X145508993Y-104826770D01*
X145505758Y-104823130D01*
X145480300Y-104793323D01*
X145477212Y-104789560D01*
X145458975Y-104766427D01*
X145456035Y-104762544D01*
X145321920Y-104577953D01*
X145319134Y-104573955D01*
X145302766Y-104549457D01*
X145300142Y-104545358D01*
X145279660Y-104511934D01*
X145277199Y-104507736D01*
X145262808Y-104482040D01*
X145260512Y-104477743D01*
X145156924Y-104274438D01*
X145154799Y-104270056D01*
X145142456Y-104243281D01*
X145140501Y-104238813D01*
X145125503Y-104202597D01*
X145123731Y-104198067D01*
X145113547Y-104170459D01*
X145111953Y-104165864D01*
X145041445Y-103948868D01*
X145040030Y-103944204D01*
X145032027Y-103915824D01*
X145030797Y-103911106D01*
X145021649Y-103872987D01*
X145020607Y-103868237D01*
X145014867Y-103839375D01*
X145014012Y-103834586D01*
X144978319Y-103609235D01*
X144977651Y-103604405D01*
X144974188Y-103575133D01*
X144973711Y-103570289D01*
X144973413Y-103566500D01*
X144374100Y-103566500D01*
X144374100Y-105068500D01*
X140876100Y-105068500D01*
X140876100Y-104532318D01*
X141874100Y-104532318D01*
X142077319Y-104491896D01*
X142083314Y-104490855D01*
X142119742Y-104485451D01*
X142125785Y-104484706D01*
X142174554Y-104479903D01*
X142180625Y-104479455D01*
X142217400Y-104477649D01*
X142223482Y-104477500D01*
X142459718Y-104477500D01*
X142465800Y-104477649D01*
X142502575Y-104479455D01*
X142508646Y-104479903D01*
X142557415Y-104484706D01*
X142563458Y-104485451D01*
X142599886Y-104490855D01*
X142605881Y-104491896D01*
X142837587Y-104537985D01*
X142843524Y-104539318D01*
X142879252Y-104548267D01*
X142885122Y-104549891D01*
X142932018Y-104564118D01*
X142937797Y-104566027D01*
X142972459Y-104578430D01*
X142978135Y-104580620D01*
X143196383Y-104671021D01*
X143201946Y-104673487D01*
X143235226Y-104689227D01*
X143240661Y-104691963D01*
X143283882Y-104715064D01*
X143289178Y-104718064D01*
X143320770Y-104736999D01*
X143325914Y-104740256D01*
X143376100Y-104773789D01*
X143376100Y-103566500D01*
X141874100Y-103566500D01*
X141874100Y-104532318D01*
X140876100Y-104532318D01*
X140876100Y-103566500D01*
X139374100Y-103566500D01*
X139374100Y-104206234D01*
X138308032Y-104206234D01*
X138250317Y-104092962D01*
X138115886Y-103907934D01*
X137954166Y-103746214D01*
X137769138Y-103611783D01*
X137769139Y-103611783D01*
X137769137Y-103611782D01*
X137750801Y-103602439D01*
X137700007Y-103554463D01*
X137683100Y-103491956D01*
X137683100Y-103283513D01*
X145967100Y-103283513D01*
X145967100Y-103472486D01*
X145996659Y-103659118D01*
X146055054Y-103838836D01*
X146111119Y-103948868D01*
X146140840Y-104007199D01*
X146251910Y-104160073D01*
X146385527Y-104293690D01*
X146538401Y-104404760D01*
X146617947Y-104445290D01*
X146706763Y-104490545D01*
X146706765Y-104490545D01*
X146706768Y-104490547D01*
X146803097Y-104521846D01*
X146886481Y-104548940D01*
X147073114Y-104578500D01*
X147073119Y-104578500D01*
X147262086Y-104578500D01*
X147448718Y-104548940D01*
X147478331Y-104539318D01*
X147628432Y-104490547D01*
X147796799Y-104404760D01*
X147949673Y-104293690D01*
X148083290Y-104160073D01*
X148194360Y-104007199D01*
X148280147Y-103838832D01*
X148338540Y-103659118D01*
X148352609Y-103570289D01*
X148368100Y-103472486D01*
X148368100Y-103283513D01*
X153587100Y-103283513D01*
X153587100Y-103472486D01*
X153616659Y-103659118D01*
X153675054Y-103838836D01*
X153731119Y-103948868D01*
X153760840Y-104007199D01*
X153871910Y-104160073D01*
X154005527Y-104293690D01*
X154158401Y-104404760D01*
X154237947Y-104445290D01*
X154326763Y-104490545D01*
X154326765Y-104490545D01*
X154326768Y-104490547D01*
X154423097Y-104521846D01*
X154506481Y-104548940D01*
X154693114Y-104578500D01*
X154693119Y-104578500D01*
X154882086Y-104578500D01*
X155068718Y-104548940D01*
X155098331Y-104539318D01*
X155248432Y-104490547D01*
X155416799Y-104404760D01*
X155569673Y-104293690D01*
X155703290Y-104160073D01*
X155814360Y-104007199D01*
X155900147Y-103838832D01*
X155958540Y-103659118D01*
X155972609Y-103570289D01*
X155988100Y-103472486D01*
X155988100Y-103283513D01*
X155958540Y-103096881D01*
X155900145Y-102917163D01*
X155814359Y-102748800D01*
X155703290Y-102595927D01*
X155569673Y-102462310D01*
X155416799Y-102351240D01*
X155248436Y-102265454D01*
X155068718Y-102207059D01*
X154882086Y-102177500D01*
X154882081Y-102177500D01*
X154693119Y-102177500D01*
X154693114Y-102177500D01*
X154506481Y-102207059D01*
X154326763Y-102265454D01*
X154158400Y-102351240D01*
X154083208Y-102405871D01*
X154005527Y-102462310D01*
X154005525Y-102462312D01*
X154005524Y-102462312D01*
X153871912Y-102595924D01*
X153871912Y-102595925D01*
X153871910Y-102595927D01*
X153824210Y-102661579D01*
X153760840Y-102748800D01*
X153675054Y-102917163D01*
X153616659Y-103096881D01*
X153587100Y-103283513D01*
X148368100Y-103283513D01*
X148338540Y-103096881D01*
X148280145Y-102917163D01*
X148194359Y-102748800D01*
X148083290Y-102595927D01*
X148055863Y-102568500D01*
X149374100Y-102568500D01*
X150876100Y-102568500D01*
X151874100Y-102568500D01*
X152739833Y-102568500D01*
X152743731Y-102557933D01*
X152745503Y-102553403D01*
X152760501Y-102517187D01*
X152762456Y-102512719D01*
X152774799Y-102485944D01*
X152776924Y-102481562D01*
X152880512Y-102278257D01*
X152882808Y-102273960D01*
X152897199Y-102248264D01*
X152899660Y-102244066D01*
X152920142Y-102210642D01*
X152922766Y-102206543D01*
X152939134Y-102182045D01*
X152941920Y-102178047D01*
X153076035Y-101993456D01*
X153078975Y-101989573D01*
X153097212Y-101966440D01*
X153100300Y-101962677D01*
X153125758Y-101932870D01*
X153128993Y-101929230D01*
X153148986Y-101907602D01*
X153152360Y-101904093D01*
X153313693Y-101742760D01*
X153317202Y-101739386D01*
X153338830Y-101719393D01*
X153342470Y-101716158D01*
X153372277Y-101690700D01*
X153376040Y-101687612D01*
X153376100Y-101687564D01*
X153376100Y-101066500D01*
X151874100Y-101066500D01*
X151874100Y-102568500D01*
X150876100Y-102568500D01*
X150876100Y-101066500D01*
X149374100Y-101066500D01*
X149374100Y-102568500D01*
X148055863Y-102568500D01*
X147949673Y-102462310D01*
X147796799Y-102351240D01*
X147628436Y-102265454D01*
X147448718Y-102207059D01*
X147262086Y-102177500D01*
X147262081Y-102177500D01*
X147073119Y-102177500D01*
X147073114Y-102177500D01*
X146886481Y-102207059D01*
X146706763Y-102265454D01*
X146538400Y-102351240D01*
X146463208Y-102405871D01*
X146385527Y-102462310D01*
X146385525Y-102462312D01*
X146385524Y-102462312D01*
X146251912Y-102595924D01*
X146251912Y-102595925D01*
X146251910Y-102595927D01*
X146204210Y-102661579D01*
X146140840Y-102748800D01*
X146055054Y-102917163D01*
X145996659Y-103096881D01*
X145967100Y-103283513D01*
X137683100Y-103283513D01*
X137683100Y-101787466D01*
X137657141Y-101656969D01*
X137657140Y-101656968D01*
X137657140Y-101656964D01*
X137606220Y-101534031D01*
X137568677Y-101477844D01*
X137562385Y-101468427D01*
X139374100Y-101468427D01*
X139374100Y-102568500D01*
X140876100Y-102568500D01*
X140876100Y-101478499D01*
X140565054Y-101478499D01*
X140517599Y-101469059D01*
X140515601Y-101468231D01*
X140513604Y-101469059D01*
X140466149Y-101478499D01*
X139535451Y-101478500D01*
X139532174Y-101478457D01*
X139508985Y-101477844D01*
X139505683Y-101477712D01*
X139424296Y-101473388D01*
X139420035Y-101473088D01*
X139394305Y-101470830D01*
X139390061Y-101470384D01*
X139374100Y-101468427D01*
X137562385Y-101468427D01*
X137536016Y-101428962D01*
X141874100Y-101428962D01*
X141874100Y-102568500D01*
X143376100Y-102568500D01*
X144374100Y-102568500D01*
X145119833Y-102568500D01*
X145123731Y-102557933D01*
X145125503Y-102553403D01*
X145140501Y-102517187D01*
X145142456Y-102512719D01*
X145154799Y-102485944D01*
X145156924Y-102481562D01*
X145260512Y-102278257D01*
X145262808Y-102273960D01*
X145277199Y-102248264D01*
X145279660Y-102244066D01*
X145300142Y-102210642D01*
X145302766Y-102206543D01*
X145319134Y-102182045D01*
X145321920Y-102178047D01*
X145456035Y-101993456D01*
X145458975Y-101989573D01*
X145477212Y-101966440D01*
X145480300Y-101962677D01*
X145505758Y-101932870D01*
X145508993Y-101929230D01*
X145528986Y-101907602D01*
X145532360Y-101904093D01*
X145693693Y-101742760D01*
X145697202Y-101739386D01*
X145718830Y-101719393D01*
X145722470Y-101716158D01*
X145752277Y-101690700D01*
X145756040Y-101687612D01*
X145779173Y-101669375D01*
X145783056Y-101666436D01*
X145876100Y-101598834D01*
X145876100Y-101066500D01*
X144374100Y-101066500D01*
X144374100Y-102568500D01*
X143376100Y-102568500D01*
X143376100Y-101066500D01*
X142735317Y-101066500D01*
X142715303Y-101079417D01*
X142710819Y-101082178D01*
X142472402Y-101222086D01*
X142467808Y-101224652D01*
X142439686Y-101239588D01*
X142434986Y-101241958D01*
X142396747Y-101260231D01*
X142391948Y-101262401D01*
X142362655Y-101274900D01*
X142357772Y-101276862D01*
X142099131Y-101374469D01*
X142094166Y-101376223D01*
X142063912Y-101386195D01*
X142058878Y-101387736D01*
X142018102Y-101399282D01*
X142013007Y-101400609D01*
X141982036Y-101407974D01*
X141976893Y-101409082D01*
X141874100Y-101428962D01*
X137536016Y-101428962D01*
X137532298Y-101423398D01*
X137532297Y-101423397D01*
X137532295Y-101423394D01*
X137438206Y-101329305D01*
X135433419Y-99324518D01*
X135399934Y-99263195D01*
X135397100Y-99236837D01*
X135397100Y-97261921D01*
X138265600Y-97261921D01*
X138265600Y-97980500D01*
X139082588Y-97980500D01*
X139049675Y-98037507D01*
X139015600Y-98164674D01*
X139015600Y-98296326D01*
X139049675Y-98423493D01*
X139082588Y-98480500D01*
X138265601Y-98480500D01*
X138265601Y-99199088D01*
X138268394Y-99251691D01*
X138312837Y-99481487D01*
X138395479Y-99700475D01*
X138513939Y-99902341D01*
X138513944Y-99902348D01*
X138664811Y-100081286D01*
X138664813Y-100081288D01*
X138843751Y-100232155D01*
X138843758Y-100232160D01*
X139045624Y-100350620D01*
X139264612Y-100433262D01*
X139494409Y-100477705D01*
X139546982Y-100480498D01*
X139547021Y-100480499D01*
X140265599Y-100480499D01*
X140265600Y-100480498D01*
X140265600Y-98730500D01*
X140765600Y-98730500D01*
X140765600Y-100480499D01*
X141484176Y-100480499D01*
X141484188Y-100480498D01*
X141536791Y-100477705D01*
X141766587Y-100433262D01*
X141985575Y-100350620D01*
X142187441Y-100232160D01*
X142187448Y-100232155D01*
X142366386Y-100081288D01*
X142366388Y-100081286D01*
X142377168Y-100068500D01*
X144374100Y-100068500D01*
X145876100Y-100068500D01*
X146874100Y-100068500D01*
X148376100Y-100068500D01*
X149374100Y-100068500D01*
X150876100Y-100068500D01*
X151874100Y-100068500D01*
X153376100Y-100068500D01*
X154374100Y-100068500D01*
X155876100Y-100068500D01*
X155876100Y-98566500D01*
X154374100Y-98566500D01*
X154374100Y-100068500D01*
X153376100Y-100068500D01*
X153376100Y-98566500D01*
X151874100Y-98566500D01*
X151874100Y-100068500D01*
X150876100Y-100068500D01*
X150876100Y-98566500D01*
X149374100Y-98566500D01*
X149374100Y-100068500D01*
X148376100Y-100068500D01*
X148376100Y-98566500D01*
X146874100Y-98566500D01*
X146874100Y-100068500D01*
X145876100Y-100068500D01*
X145876100Y-98566500D01*
X144374100Y-98566500D01*
X144374100Y-100068500D01*
X142377168Y-100068500D01*
X142517255Y-99902348D01*
X142517260Y-99902341D01*
X142635720Y-99700475D01*
X142718362Y-99481487D01*
X142762805Y-99251691D01*
X142762805Y-99251690D01*
X142765598Y-99199117D01*
X142765600Y-99199078D01*
X142765600Y-98480500D01*
X141948612Y-98480500D01*
X141981525Y-98423493D01*
X142015600Y-98296326D01*
X142015600Y-98164674D01*
X141981525Y-98037507D01*
X141948612Y-97980500D01*
X142765599Y-97980500D01*
X142765599Y-97261923D01*
X142765598Y-97261911D01*
X142762805Y-97209308D01*
X142718362Y-96979512D01*
X142642692Y-96778999D01*
X144374100Y-96778999D01*
X144374100Y-97568500D01*
X145876100Y-97568500D01*
X146874100Y-97568500D01*
X148376100Y-97568500D01*
X149374100Y-97568500D01*
X150876100Y-97568500D01*
X150876100Y-97145000D01*
X151874100Y-97145000D01*
X151874100Y-97568500D01*
X153376100Y-97568500D01*
X154374100Y-97568500D01*
X155876100Y-97568500D01*
X155876100Y-96066500D01*
X154374100Y-96066500D01*
X154374100Y-97568500D01*
X153376100Y-97568500D01*
X153376100Y-97065843D01*
X153320504Y-97086579D01*
X153313164Y-97089058D01*
X153268295Y-97102668D01*
X153260812Y-97104685D01*
X153200101Y-97119028D01*
X153192516Y-97120572D01*
X153146338Y-97128478D01*
X153138669Y-97129545D01*
X153034817Y-97140711D01*
X153031505Y-97141023D01*
X153011456Y-97142636D01*
X153008142Y-97142858D01*
X152981455Y-97144287D01*
X152978139Y-97144420D01*
X152958091Y-97144956D01*
X152954777Y-97145000D01*
X152043054Y-97145000D01*
X151995600Y-97135561D01*
X151993600Y-97134732D01*
X151991600Y-97135561D01*
X151944146Y-97145000D01*
X151874100Y-97145000D01*
X150876100Y-97145000D01*
X150876100Y-97132509D01*
X150848531Y-97129545D01*
X150840862Y-97128478D01*
X150794684Y-97120572D01*
X150787099Y-97119028D01*
X150726388Y-97104685D01*
X150718905Y-97102668D01*
X150674036Y-97089058D01*
X150666696Y-97086579D01*
X150469339Y-97012970D01*
X150461159Y-97009581D01*
X150412423Y-96987323D01*
X150404509Y-96983362D01*
X150341919Y-96949185D01*
X150334305Y-96944667D01*
X150289238Y-96915703D01*
X150281968Y-96910655D01*
X150109784Y-96781757D01*
X150102893Y-96776204D01*
X150062408Y-96741124D01*
X150055929Y-96735092D01*
X150005508Y-96684671D01*
X149999476Y-96678192D01*
X149964396Y-96637707D01*
X149958843Y-96630816D01*
X149829945Y-96458632D01*
X149824897Y-96451362D01*
X149795933Y-96406295D01*
X149791415Y-96398681D01*
X149757238Y-96336091D01*
X149753277Y-96328177D01*
X149731019Y-96279441D01*
X149727630Y-96271261D01*
X149654021Y-96073904D01*
X149651542Y-96066564D01*
X149651523Y-96066500D01*
X149374100Y-96066500D01*
X149374100Y-97568500D01*
X148376100Y-97568500D01*
X148376100Y-96066500D01*
X146874100Y-96066500D01*
X146874100Y-97568500D01*
X145876100Y-97568500D01*
X145876100Y-96652135D01*
X145692618Y-96720569D01*
X145685279Y-96723048D01*
X145640428Y-96736653D01*
X145632952Y-96738668D01*
X145572237Y-96753016D01*
X145564645Y-96754561D01*
X145518440Y-96762472D01*
X145510767Y-96763541D01*
X145406844Y-96774712D01*
X145403539Y-96775022D01*
X145383499Y-96776635D01*
X145380178Y-96776858D01*
X145353495Y-96778286D01*
X145350182Y-96778419D01*
X145330134Y-96778955D01*
X145326820Y-96778999D01*
X144374100Y-96778999D01*
X142642692Y-96778999D01*
X142635720Y-96760524D01*
X142517260Y-96558658D01*
X142517255Y-96558651D01*
X142366388Y-96379713D01*
X142366386Y-96379711D01*
X142187448Y-96228844D01*
X142187441Y-96228839D01*
X141985575Y-96110379D01*
X141766584Y-96027736D01*
X141761440Y-96026741D01*
X141699360Y-95994680D01*
X141664469Y-95934146D01*
X141667844Y-95864358D01*
X141708414Y-95807473D01*
X141773297Y-95781552D01*
X141784974Y-95780999D01*
X145313472Y-95780999D01*
X145373083Y-95774591D01*
X145507931Y-95724296D01*
X145623146Y-95638046D01*
X145709396Y-95522831D01*
X145759691Y-95387983D01*
X145766100Y-95328373D01*
X145766100Y-95068500D01*
X146874100Y-95068500D01*
X148376100Y-95068500D01*
X148376100Y-93566500D01*
X146874100Y-93566500D01*
X146874100Y-95068500D01*
X145766100Y-95068500D01*
X145766099Y-92568500D01*
X146874100Y-92568500D01*
X148376100Y-92568500D01*
X149374100Y-92568500D01*
X149622459Y-92568500D01*
X149604323Y-92453994D01*
X149603656Y-92449171D01*
X149600196Y-92419938D01*
X149599719Y-92415100D01*
X149596641Y-92376021D01*
X149596354Y-92371156D01*
X149595196Y-92341704D01*
X149595100Y-92336832D01*
X149595100Y-92096778D01*
X150593100Y-92096778D01*
X150593100Y-92317221D01*
X150627585Y-92534952D01*
X150695703Y-92744603D01*
X150695704Y-92744606D01*
X150795787Y-92941025D01*
X150925352Y-93119358D01*
X150925356Y-93119363D01*
X150975916Y-93169923D01*
X151009401Y-93231246D01*
X151004417Y-93300938D01*
X150962545Y-93356871D01*
X150931569Y-93373785D01*
X150851518Y-93403643D01*
X150851506Y-93403649D01*
X150736412Y-93489809D01*
X150736409Y-93489812D01*
X150650249Y-93604906D01*
X150650245Y-93604913D01*
X150600003Y-93739620D01*
X150600001Y-93739627D01*
X150593600Y-93799155D01*
X150593600Y-94497000D01*
X151618322Y-94497000D01*
X151574267Y-94573306D01*
X151543600Y-94687756D01*
X151543600Y-94806244D01*
X151574267Y-94920694D01*
X151618322Y-94997000D01*
X150593600Y-94997000D01*
X150593600Y-95694844D01*
X150600001Y-95754372D01*
X150600003Y-95754379D01*
X150650245Y-95889086D01*
X150650249Y-95889093D01*
X150736409Y-96004187D01*
X150736412Y-96004190D01*
X150851506Y-96090350D01*
X150851513Y-96090354D01*
X150986220Y-96140596D01*
X150986227Y-96140598D01*
X151045755Y-96146999D01*
X151045772Y-96147000D01*
X151743600Y-96147000D01*
X151743600Y-95122277D01*
X151819906Y-95166333D01*
X151934356Y-95197000D01*
X152052844Y-95197000D01*
X152167294Y-95166333D01*
X152243600Y-95122277D01*
X152243600Y-96147000D01*
X152941428Y-96147000D01*
X152941444Y-96146999D01*
X153000972Y-96140598D01*
X153000979Y-96140596D01*
X153135686Y-96090354D01*
X153135693Y-96090350D01*
X153250787Y-96004190D01*
X153250790Y-96004187D01*
X153336950Y-95889093D01*
X153336954Y-95889086D01*
X153387196Y-95754379D01*
X153387198Y-95754372D01*
X153393599Y-95694844D01*
X153393600Y-95694827D01*
X153393600Y-94997000D01*
X152368878Y-94997000D01*
X152412933Y-94920694D01*
X152443600Y-94806244D01*
X152443600Y-94687756D01*
X152412933Y-94573306D01*
X152368878Y-94497000D01*
X153393600Y-94497000D01*
X153393600Y-93799172D01*
X153393599Y-93799155D01*
X153387198Y-93739627D01*
X153387196Y-93739620D01*
X153336954Y-93604913D01*
X153336950Y-93604906D01*
X153324705Y-93588549D01*
X154374100Y-93588549D01*
X154375078Y-93594262D01*
X154376145Y-93601931D01*
X154387311Y-93705783D01*
X154387623Y-93709095D01*
X154389236Y-93729144D01*
X154389458Y-93732458D01*
X154390887Y-93759145D01*
X154391020Y-93762461D01*
X154391556Y-93782509D01*
X154391600Y-93785823D01*
X154391600Y-94697546D01*
X154382160Y-94745000D01*
X154381331Y-94746999D01*
X154382161Y-94749001D01*
X154391600Y-94796454D01*
X154391600Y-95068500D01*
X155876100Y-95068500D01*
X155876100Y-93566500D01*
X154374100Y-93566500D01*
X154374100Y-93588549D01*
X153324705Y-93588549D01*
X153250790Y-93489812D01*
X153250787Y-93489809D01*
X153135693Y-93403649D01*
X153135687Y-93403646D01*
X153055630Y-93373786D01*
X152999697Y-93331914D01*
X152975280Y-93266450D01*
X152990132Y-93198177D01*
X153011281Y-93169925D01*
X153061842Y-93119365D01*
X153191415Y-92941022D01*
X153291495Y-92744606D01*
X153359615Y-92534951D01*
X153394100Y-92317222D01*
X153394100Y-92096778D01*
X153363660Y-91904589D01*
X154374100Y-91904589D01*
X154382877Y-91960006D01*
X154383544Y-91964829D01*
X154387004Y-91994062D01*
X154387481Y-91998900D01*
X154390559Y-92037979D01*
X154390846Y-92042844D01*
X154392004Y-92072296D01*
X154392100Y-92077168D01*
X154392100Y-92336832D01*
X154392004Y-92341704D01*
X154390846Y-92371156D01*
X154390559Y-92376021D01*
X154387481Y-92415100D01*
X154387004Y-92419938D01*
X154383544Y-92449171D01*
X154382877Y-92453994D01*
X154374100Y-92509409D01*
X154374100Y-92568500D01*
X155876100Y-92568500D01*
X155876100Y-91066500D01*
X154374100Y-91066500D01*
X154374100Y-91904589D01*
X153363660Y-91904589D01*
X153359615Y-91879049D01*
X153309944Y-91726176D01*
X153291496Y-91669396D01*
X153291495Y-91669393D01*
X153232721Y-91554045D01*
X153191415Y-91472978D01*
X153155069Y-91422952D01*
X153061847Y-91294641D01*
X153061843Y-91294636D01*
X152905963Y-91138756D01*
X152905958Y-91138752D01*
X152727625Y-91009187D01*
X152727624Y-91009186D01*
X152727622Y-91009185D01*
X152664696Y-90977122D01*
X152531206Y-90909104D01*
X152531203Y-90909103D01*
X152321552Y-90840985D01*
X152212686Y-90823742D01*
X152103822Y-90806500D01*
X151883378Y-90806500D01*
X151810801Y-90817995D01*
X151665647Y-90840985D01*
X151455996Y-90909103D01*
X151455993Y-90909104D01*
X151259574Y-91009187D01*
X151081241Y-91138752D01*
X151081236Y-91138756D01*
X150925356Y-91294636D01*
X150925352Y-91294641D01*
X150795787Y-91472974D01*
X150695704Y-91669393D01*
X150695703Y-91669396D01*
X150627585Y-91879047D01*
X150593100Y-92096778D01*
X149595100Y-92096778D01*
X149595100Y-92077168D01*
X149595196Y-92072296D01*
X149596354Y-92042844D01*
X149596641Y-92037979D01*
X149599719Y-91998900D01*
X149600196Y-91994062D01*
X149603656Y-91964829D01*
X149604323Y-91960006D01*
X149644937Y-91703578D01*
X149645792Y-91698789D01*
X149651534Y-91669917D01*
X149652577Y-91665162D01*
X149661726Y-91627046D01*
X149662956Y-91622331D01*
X149670956Y-91593964D01*
X149672370Y-91589304D01*
X149752605Y-91342361D01*
X149754200Y-91337759D01*
X149764394Y-91310127D01*
X149766168Y-91305596D01*
X149781169Y-91269378D01*
X149783122Y-91264913D01*
X149795458Y-91238155D01*
X149797582Y-91233775D01*
X149882814Y-91066500D01*
X149374100Y-91066500D01*
X149374100Y-92568500D01*
X148376100Y-92568500D01*
X148376100Y-91066500D01*
X146874100Y-91066500D01*
X146874100Y-92568500D01*
X145766099Y-92568500D01*
X145766099Y-91732628D01*
X145759691Y-91673017D01*
X145758340Y-91669396D01*
X145709397Y-91538171D01*
X145709393Y-91538164D01*
X145623147Y-91422955D01*
X145623144Y-91422952D01*
X145507935Y-91336706D01*
X145507928Y-91336702D01*
X145373082Y-91286408D01*
X145373083Y-91286408D01*
X145313483Y-91280001D01*
X145313481Y-91280000D01*
X145313473Y-91280000D01*
X145313464Y-91280000D01*
X141717729Y-91280000D01*
X141717723Y-91280001D01*
X141658116Y-91286408D01*
X141523271Y-91336702D01*
X141523264Y-91336706D01*
X141408055Y-91422952D01*
X141408052Y-91422955D01*
X141321806Y-91538164D01*
X141321802Y-91538171D01*
X141271508Y-91673017D01*
X141265101Y-91732616D01*
X141265101Y-91732623D01*
X141265100Y-91732635D01*
X141265100Y-95328370D01*
X141265101Y-95328376D01*
X141271508Y-95387983D01*
X141321802Y-95522828D01*
X141321806Y-95522835D01*
X141408052Y-95638044D01*
X141408055Y-95638047D01*
X141523264Y-95724293D01*
X141523273Y-95724298D01*
X141572106Y-95742511D01*
X141628040Y-95784381D01*
X141652458Y-95849845D01*
X141637607Y-95918118D01*
X141588203Y-95967524D01*
X141522198Y-95982518D01*
X141484225Y-95980501D01*
X141484179Y-95980500D01*
X140765600Y-95980500D01*
X140765600Y-97730500D01*
X140265600Y-97730500D01*
X140265600Y-95980500D01*
X139547023Y-95980500D01*
X139547011Y-95980501D01*
X139494408Y-95983294D01*
X139264612Y-96027737D01*
X139045624Y-96110379D01*
X138843758Y-96228839D01*
X138843751Y-96228844D01*
X138664813Y-96379711D01*
X138664811Y-96379713D01*
X138513944Y-96558651D01*
X138513939Y-96558658D01*
X138395479Y-96760524D01*
X138312837Y-96979512D01*
X138268394Y-97209308D01*
X138268394Y-97209309D01*
X138265601Y-97261882D01*
X138265600Y-97261921D01*
X135397100Y-97261921D01*
X135397100Y-95113029D01*
X135416785Y-95045990D01*
X135469589Y-95000235D01*
X135538747Y-94990291D01*
X135602303Y-95019316D01*
X135633999Y-95061748D01*
X135674028Y-95149874D01*
X135674031Y-95149880D01*
X135802159Y-95334823D01*
X135802169Y-95334835D01*
X135961264Y-95493930D01*
X135961276Y-95493940D01*
X136146219Y-95622068D01*
X136146225Y-95622071D01*
X136351080Y-95715122D01*
X136569267Y-95770099D01*
X136701410Y-95780499D01*
X137265599Y-95780499D01*
X137265600Y-95780498D01*
X137265600Y-94963512D01*
X137322607Y-94996425D01*
X137449774Y-95030500D01*
X137581426Y-95030500D01*
X137708593Y-94996425D01*
X137765600Y-94963512D01*
X137765600Y-95780499D01*
X138329782Y-95780499D01*
X138329797Y-95780498D01*
X138461932Y-95770099D01*
X138680119Y-95715122D01*
X138884974Y-95622071D01*
X138884980Y-95622068D01*
X139069923Y-95493940D01*
X139069935Y-95493930D01*
X139229030Y-95334835D01*
X139229040Y-95334823D01*
X139357168Y-95149880D01*
X139357171Y-95149874D01*
X139450222Y-94945019D01*
X139505199Y-94726832D01*
X139515599Y-94594696D01*
X139515600Y-94594684D01*
X139515600Y-93780500D01*
X138015600Y-93780500D01*
X138015600Y-93280500D01*
X139515599Y-93280500D01*
X139515599Y-92466317D01*
X139515598Y-92466302D01*
X139505199Y-92334167D01*
X139450222Y-92115980D01*
X139357171Y-91911125D01*
X139357168Y-91911119D01*
X139229040Y-91726176D01*
X139229030Y-91726164D01*
X139069935Y-91567069D01*
X139069923Y-91567059D01*
X138884980Y-91438931D01*
X138884974Y-91438928D01*
X138680119Y-91345877D01*
X138461932Y-91290900D01*
X138329796Y-91280500D01*
X137765600Y-91280500D01*
X137765600Y-92097488D01*
X137708593Y-92064575D01*
X137581426Y-92030500D01*
X137449774Y-92030500D01*
X137322607Y-92064575D01*
X137265600Y-92097488D01*
X137265600Y-91280500D01*
X136701417Y-91280500D01*
X136701402Y-91280501D01*
X136569267Y-91290900D01*
X136350873Y-91345930D01*
X136281056Y-91343222D01*
X136223785Y-91303198D01*
X136197245Y-91238565D01*
X136209862Y-91169844D01*
X136232894Y-91138007D01*
X137302401Y-90068500D01*
X139374100Y-90068500D01*
X140876100Y-90068500D01*
X141874100Y-90068500D01*
X143376100Y-90068500D01*
X144374100Y-90068500D01*
X145876100Y-90068500D01*
X145876100Y-89301418D01*
X146874100Y-89301418D01*
X146874100Y-90068500D01*
X148376100Y-90068500D01*
X149374100Y-90068500D01*
X150876100Y-90068500D01*
X150876100Y-89808500D01*
X151874100Y-89808500D01*
X152123432Y-89808500D01*
X152128304Y-89808596D01*
X152157756Y-89809754D01*
X152162621Y-89810041D01*
X152201700Y-89813119D01*
X152206538Y-89813596D01*
X152235771Y-89817056D01*
X152240594Y-89817723D01*
X152497022Y-89858337D01*
X152501811Y-89859192D01*
X152530683Y-89864934D01*
X152535438Y-89865977D01*
X152573554Y-89875126D01*
X152578269Y-89876356D01*
X152606636Y-89884356D01*
X152611296Y-89885770D01*
X152858239Y-89966005D01*
X152862841Y-89967600D01*
X152890473Y-89977794D01*
X152895004Y-89979568D01*
X152931222Y-89994569D01*
X152935687Y-89996522D01*
X152962445Y-90008858D01*
X152966825Y-90010982D01*
X153079710Y-90068500D01*
X153376100Y-90068500D01*
X153376100Y-89282412D01*
X154374100Y-89282412D01*
X154374100Y-90068500D01*
X155876100Y-90068500D01*
X155876100Y-89034816D01*
X155684038Y-89132676D01*
X155679656Y-89134801D01*
X155652881Y-89147144D01*
X155648413Y-89149099D01*
X155612197Y-89164097D01*
X155607667Y-89165869D01*
X155580059Y-89176053D01*
X155575464Y-89177647D01*
X155358468Y-89248155D01*
X155353804Y-89249570D01*
X155325424Y-89257573D01*
X155320706Y-89258803D01*
X155282587Y-89267951D01*
X155277837Y-89268993D01*
X155248975Y-89274733D01*
X155244186Y-89275588D01*
X155018835Y-89311281D01*
X155014005Y-89311949D01*
X154984733Y-89315412D01*
X154979889Y-89315889D01*
X154940809Y-89318963D01*
X154935950Y-89319250D01*
X154906536Y-89320405D01*
X154901671Y-89320500D01*
X154673529Y-89320500D01*
X154668664Y-89320405D01*
X154639250Y-89319250D01*
X154634391Y-89318963D01*
X154595311Y-89315889D01*
X154590467Y-89315412D01*
X154561195Y-89311949D01*
X154556365Y-89311281D01*
X154374100Y-89282412D01*
X153376100Y-89282412D01*
X153376100Y-88812435D01*
X153376040Y-88812388D01*
X153372277Y-88809300D01*
X153342470Y-88783842D01*
X153338830Y-88780607D01*
X153317202Y-88760614D01*
X153313693Y-88757240D01*
X153152360Y-88595907D01*
X153148986Y-88592398D01*
X153128993Y-88570770D01*
X153125758Y-88567130D01*
X153125220Y-88566500D01*
X151874100Y-88566500D01*
X151874100Y-89808500D01*
X150876100Y-89808500D01*
X150876100Y-88566500D01*
X149374100Y-88566500D01*
X149374100Y-90068500D01*
X148376100Y-90068500D01*
X148376100Y-88961470D01*
X148367553Y-88967680D01*
X148363555Y-88970466D01*
X148339057Y-88986834D01*
X148334958Y-88989458D01*
X148301534Y-89009940D01*
X148297336Y-89012401D01*
X148271640Y-89026792D01*
X148267343Y-89029088D01*
X148064038Y-89132676D01*
X148059656Y-89134801D01*
X148032881Y-89147144D01*
X148028413Y-89149099D01*
X147992197Y-89164097D01*
X147987667Y-89165869D01*
X147960059Y-89176053D01*
X147955464Y-89177647D01*
X147738468Y-89248155D01*
X147733804Y-89249570D01*
X147705424Y-89257573D01*
X147700706Y-89258803D01*
X147662587Y-89267951D01*
X147657837Y-89268993D01*
X147628975Y-89274733D01*
X147624186Y-89275588D01*
X147398835Y-89311281D01*
X147394005Y-89311949D01*
X147364733Y-89315412D01*
X147359889Y-89315889D01*
X147320809Y-89318963D01*
X147315950Y-89319250D01*
X147286536Y-89320405D01*
X147281671Y-89320500D01*
X147053529Y-89320500D01*
X147048664Y-89320405D01*
X147019250Y-89319250D01*
X147014391Y-89318963D01*
X146975311Y-89315889D01*
X146970467Y-89315412D01*
X146941195Y-89311949D01*
X146936364Y-89311281D01*
X146874100Y-89301418D01*
X145876100Y-89301418D01*
X145876100Y-88901166D01*
X145783056Y-88833565D01*
X145779173Y-88830625D01*
X145756040Y-88812388D01*
X145752277Y-88809300D01*
X145722470Y-88783842D01*
X145718830Y-88780607D01*
X145697202Y-88760614D01*
X145693693Y-88757240D01*
X145532360Y-88595907D01*
X145528986Y-88592398D01*
X145508993Y-88570770D01*
X145505758Y-88567130D01*
X145505220Y-88566500D01*
X144374100Y-88566500D01*
X144374100Y-90068500D01*
X143376100Y-90068500D01*
X143376100Y-88566500D01*
X141874100Y-88566500D01*
X141874100Y-90068500D01*
X140876100Y-90068500D01*
X140876100Y-88566500D01*
X139374100Y-88566500D01*
X139374100Y-90068500D01*
X137302401Y-90068500D01*
X137532292Y-89838609D01*
X137532295Y-89838606D01*
X137606220Y-89727969D01*
X137657140Y-89605036D01*
X137683100Y-89474531D01*
X137683100Y-87568500D01*
X139374100Y-87568500D01*
X140876100Y-87568500D01*
X141874100Y-87568500D01*
X143376100Y-87568500D01*
X144374100Y-87568500D01*
X145012414Y-87568500D01*
X144978319Y-87353235D01*
X144977651Y-87348405D01*
X144974188Y-87319133D01*
X144973711Y-87314289D01*
X144970637Y-87275209D01*
X144970350Y-87270350D01*
X144969195Y-87240936D01*
X144969100Y-87236071D01*
X144969100Y-87027513D01*
X145967100Y-87027513D01*
X145967100Y-87216486D01*
X145996659Y-87403118D01*
X146055054Y-87582836D01*
X146140840Y-87751199D01*
X146251910Y-87904073D01*
X146385527Y-88037690D01*
X146538401Y-88148760D01*
X146617947Y-88189290D01*
X146706763Y-88234545D01*
X146706765Y-88234545D01*
X146706768Y-88234547D01*
X146803097Y-88265846D01*
X146886481Y-88292940D01*
X147073114Y-88322500D01*
X147073119Y-88322500D01*
X147262086Y-88322500D01*
X147448718Y-88292940D01*
X147628432Y-88234547D01*
X147796799Y-88148760D01*
X147949673Y-88037690D01*
X148083290Y-87904073D01*
X148194360Y-87751199D01*
X148280147Y-87582832D01*
X148284804Y-87568500D01*
X149374100Y-87568500D01*
X150876100Y-87568500D01*
X151874100Y-87568500D01*
X152632414Y-87568500D01*
X152598319Y-87353235D01*
X152597651Y-87348405D01*
X152594188Y-87319133D01*
X152593711Y-87314289D01*
X152590637Y-87275209D01*
X152590350Y-87270350D01*
X152589195Y-87240936D01*
X152589100Y-87236071D01*
X152589100Y-87027513D01*
X153587100Y-87027513D01*
X153587100Y-87216486D01*
X153616659Y-87403118D01*
X153675054Y-87582836D01*
X153760840Y-87751199D01*
X153871910Y-87904073D01*
X154005527Y-88037690D01*
X154158401Y-88148760D01*
X154237947Y-88189290D01*
X154326763Y-88234545D01*
X154326765Y-88234545D01*
X154326768Y-88234547D01*
X154423097Y-88265846D01*
X154506481Y-88292940D01*
X154693114Y-88322500D01*
X154693119Y-88322500D01*
X154882086Y-88322500D01*
X155068718Y-88292940D01*
X155248432Y-88234547D01*
X155416799Y-88148760D01*
X155569673Y-88037690D01*
X155703290Y-87904073D01*
X155814360Y-87751199D01*
X155900147Y-87582832D01*
X155958540Y-87403118D01*
X155978799Y-87275209D01*
X155988100Y-87216486D01*
X155988100Y-87027513D01*
X155958540Y-86840881D01*
X155931446Y-86757497D01*
X155900147Y-86661168D01*
X155900145Y-86661165D01*
X155900145Y-86661163D01*
X155814359Y-86492800D01*
X155703290Y-86339927D01*
X155569673Y-86206310D01*
X155416799Y-86095240D01*
X155248436Y-86009454D01*
X155068718Y-85951059D01*
X154882086Y-85921500D01*
X154882081Y-85921500D01*
X154693119Y-85921500D01*
X154693114Y-85921500D01*
X154506481Y-85951059D01*
X154326763Y-86009454D01*
X154158400Y-86095240D01*
X154071179Y-86158610D01*
X154005527Y-86206310D01*
X154005525Y-86206312D01*
X154005524Y-86206312D01*
X153871912Y-86339924D01*
X153871912Y-86339925D01*
X153871910Y-86339927D01*
X153824210Y-86405579D01*
X153760840Y-86492800D01*
X153675054Y-86661163D01*
X153616659Y-86840881D01*
X153587100Y-87027513D01*
X152589100Y-87027513D01*
X152589100Y-87007929D01*
X152589195Y-87003064D01*
X152590350Y-86973650D01*
X152590637Y-86968791D01*
X152593711Y-86929711D01*
X152594188Y-86924867D01*
X152597651Y-86895595D01*
X152598319Y-86890765D01*
X152634012Y-86665414D01*
X152634867Y-86660625D01*
X152640607Y-86631763D01*
X152641649Y-86627013D01*
X152650797Y-86588894D01*
X152652027Y-86584176D01*
X152660030Y-86555796D01*
X152661445Y-86551132D01*
X152731953Y-86334136D01*
X152733547Y-86329541D01*
X152743731Y-86301933D01*
X152745503Y-86297403D01*
X152760501Y-86261187D01*
X152762456Y-86256719D01*
X152774799Y-86229944D01*
X152776924Y-86225562D01*
X152857969Y-86066500D01*
X151874100Y-86066500D01*
X151874100Y-87568500D01*
X150876100Y-87568500D01*
X150876100Y-86066500D01*
X149374100Y-86066500D01*
X149374100Y-87568500D01*
X148284804Y-87568500D01*
X148338540Y-87403118D01*
X148358799Y-87275209D01*
X148368100Y-87216486D01*
X148368100Y-87027513D01*
X148338540Y-86840881D01*
X148311446Y-86757497D01*
X148280147Y-86661168D01*
X148280145Y-86661165D01*
X148280145Y-86661163D01*
X148194359Y-86492800D01*
X148083290Y-86339927D01*
X147949673Y-86206310D01*
X147796799Y-86095240D01*
X147628436Y-86009454D01*
X147448718Y-85951059D01*
X147262086Y-85921500D01*
X147262081Y-85921500D01*
X147073119Y-85921500D01*
X147073114Y-85921500D01*
X146886481Y-85951059D01*
X146706763Y-86009454D01*
X146538400Y-86095240D01*
X146451179Y-86158610D01*
X146385527Y-86206310D01*
X146385525Y-86206312D01*
X146385524Y-86206312D01*
X146251912Y-86339924D01*
X146251912Y-86339925D01*
X146251910Y-86339927D01*
X146204210Y-86405579D01*
X146140840Y-86492800D01*
X146055054Y-86661163D01*
X145996659Y-86840881D01*
X145967100Y-87027513D01*
X144969100Y-87027513D01*
X144969100Y-87007929D01*
X144969195Y-87003064D01*
X144970350Y-86973650D01*
X144970637Y-86968791D01*
X144973711Y-86929711D01*
X144974188Y-86924867D01*
X144977651Y-86895595D01*
X144978319Y-86890765D01*
X145014012Y-86665414D01*
X145014867Y-86660625D01*
X145020607Y-86631763D01*
X145021649Y-86627013D01*
X145030797Y-86588894D01*
X145032027Y-86584176D01*
X145040030Y-86555796D01*
X145041445Y-86551132D01*
X145111953Y-86334136D01*
X145113547Y-86329541D01*
X145123731Y-86301933D01*
X145125503Y-86297403D01*
X145140501Y-86261187D01*
X145142456Y-86256719D01*
X145154799Y-86229944D01*
X145156924Y-86225562D01*
X145237969Y-86066500D01*
X144374100Y-86066500D01*
X144374100Y-87568500D01*
X143376100Y-87568500D01*
X143376100Y-86066500D01*
X141874100Y-86066500D01*
X141874100Y-87568500D01*
X140876100Y-87568500D01*
X140876100Y-86066500D01*
X139374100Y-86066500D01*
X139374100Y-87568500D01*
X137683100Y-87568500D01*
X137683100Y-85002499D01*
X137702785Y-84935460D01*
X137755589Y-84889705D01*
X137807100Y-84878499D01*
X138007971Y-84878499D01*
X138007972Y-84878499D01*
X138041340Y-84874912D01*
X139374100Y-84874912D01*
X139374100Y-85068500D01*
X140876100Y-85068500D01*
X141874100Y-85068500D01*
X143376100Y-85068500D01*
X144374100Y-85068500D01*
X145876100Y-85068500D01*
X145876100Y-84942580D01*
X146874100Y-84942580D01*
X146936365Y-84932719D01*
X146941195Y-84932051D01*
X146970467Y-84928588D01*
X146975311Y-84928111D01*
X147014391Y-84925037D01*
X147019250Y-84924750D01*
X147048664Y-84923595D01*
X147053529Y-84923500D01*
X147281671Y-84923500D01*
X147286536Y-84923595D01*
X147315950Y-84924750D01*
X147320809Y-84925037D01*
X147359889Y-84928111D01*
X147364733Y-84928588D01*
X147394005Y-84932051D01*
X147398835Y-84932719D01*
X147624186Y-84968412D01*
X147628975Y-84969267D01*
X147657837Y-84975007D01*
X147662587Y-84976049D01*
X147700706Y-84985197D01*
X147705424Y-84986427D01*
X147733804Y-84994430D01*
X147738468Y-84995845D01*
X147955464Y-85066353D01*
X147960059Y-85067947D01*
X147961558Y-85068500D01*
X148376100Y-85068500D01*
X148376100Y-83832500D01*
X148315638Y-83832500D01*
X148310766Y-83832404D01*
X148281314Y-83831246D01*
X148276449Y-83830959D01*
X148237370Y-83827881D01*
X148232533Y-83827405D01*
X148203299Y-83823945D01*
X148198475Y-83823277D01*
X147957599Y-83785125D01*
X147952811Y-83784270D01*
X147923948Y-83778530D01*
X147919197Y-83777488D01*
X147881078Y-83768340D01*
X147876359Y-83767109D01*
X147847980Y-83759106D01*
X147843317Y-83757692D01*
X147611350Y-83682320D01*
X147606756Y-83680727D01*
X147579147Y-83670543D01*
X147574616Y-83668770D01*
X147538400Y-83653772D01*
X147533933Y-83651818D01*
X147507157Y-83639475D01*
X147502773Y-83637349D01*
X147501099Y-83636496D01*
X149374100Y-83636496D01*
X149374100Y-85068500D01*
X150876100Y-85068500D01*
X150876100Y-83782499D01*
X150166352Y-83782500D01*
X150163028Y-83782455D01*
X150142927Y-83781916D01*
X150139607Y-83781783D01*
X150112920Y-83780351D01*
X150109611Y-83780129D01*
X150089618Y-83778519D01*
X150086315Y-83778208D01*
X150081097Y-83777647D01*
X151874100Y-83777647D01*
X151874100Y-85068500D01*
X153376100Y-85068500D01*
X153376100Y-83831827D01*
X153361314Y-83831246D01*
X153356449Y-83830959D01*
X153317370Y-83827881D01*
X153312533Y-83827405D01*
X153283299Y-83823945D01*
X153278475Y-83823277D01*
X153037599Y-83785125D01*
X153032811Y-83784270D01*
X153003948Y-83778530D01*
X152999197Y-83777488D01*
X152961078Y-83768340D01*
X152956359Y-83767109D01*
X152927980Y-83759106D01*
X152923317Y-83757692D01*
X152691350Y-83682320D01*
X152686756Y-83680727D01*
X152661099Y-83671263D01*
X154374100Y-83671263D01*
X154374100Y-84961587D01*
X154556365Y-84932719D01*
X154561195Y-84932051D01*
X154590467Y-84928588D01*
X154595311Y-84928111D01*
X154634391Y-84925037D01*
X154639250Y-84924750D01*
X154668664Y-84923595D01*
X154673529Y-84923500D01*
X154901671Y-84923500D01*
X154906536Y-84923595D01*
X154935950Y-84924750D01*
X154940809Y-84925037D01*
X154979889Y-84928111D01*
X154984733Y-84928588D01*
X155014005Y-84932051D01*
X155018835Y-84932719D01*
X155244186Y-84968412D01*
X155248975Y-84969267D01*
X155277837Y-84975007D01*
X155282587Y-84976049D01*
X155320706Y-84985197D01*
X155325424Y-84986427D01*
X155353804Y-84994430D01*
X155358468Y-84995845D01*
X155575464Y-85066353D01*
X155580059Y-85067947D01*
X155581558Y-85068500D01*
X155876100Y-85068500D01*
X155876100Y-83566500D01*
X154591475Y-83566500D01*
X154452427Y-83637349D01*
X154448043Y-83639475D01*
X154421267Y-83651818D01*
X154416800Y-83653772D01*
X154380584Y-83668770D01*
X154376053Y-83670543D01*
X154374100Y-83671263D01*
X152661099Y-83671263D01*
X152659147Y-83670543D01*
X152654616Y-83668770D01*
X152618400Y-83653772D01*
X152613933Y-83651818D01*
X152587157Y-83639475D01*
X152582773Y-83637349D01*
X152481234Y-83585612D01*
X152479523Y-83586628D01*
X152416933Y-83620805D01*
X152409019Y-83624767D01*
X152360282Y-83647025D01*
X152352102Y-83650413D01*
X152154618Y-83724069D01*
X152147279Y-83726548D01*
X152102428Y-83740153D01*
X152094952Y-83742168D01*
X152034237Y-83756516D01*
X152026645Y-83758061D01*
X151980440Y-83765972D01*
X151972767Y-83767041D01*
X151874100Y-83777647D01*
X150081097Y-83777647D01*
X149982425Y-83767038D01*
X149974757Y-83765971D01*
X149928571Y-83758064D01*
X149920981Y-83756519D01*
X149860270Y-83742174D01*
X149852791Y-83740158D01*
X149807928Y-83726550D01*
X149800588Y-83724071D01*
X149603098Y-83650413D01*
X149594918Y-83647025D01*
X149546181Y-83624767D01*
X149538267Y-83620805D01*
X149475677Y-83586628D01*
X149473965Y-83585612D01*
X149374100Y-83636496D01*
X147501099Y-83636496D01*
X147363725Y-83566500D01*
X146874100Y-83566500D01*
X146874100Y-84942580D01*
X145876100Y-84942580D01*
X145876100Y-83566500D01*
X144374100Y-83566500D01*
X144374100Y-85068500D01*
X143376100Y-85068500D01*
X143376100Y-83566500D01*
X141874100Y-83566500D01*
X141874100Y-85068500D01*
X140876100Y-85068500D01*
X140876100Y-83566500D01*
X139458600Y-83566500D01*
X139458600Y-84439248D01*
X139458555Y-84442572D01*
X139458016Y-84462674D01*
X139457883Y-84465994D01*
X139456451Y-84492680D01*
X139456229Y-84495989D01*
X139454619Y-84515982D01*
X139454308Y-84519285D01*
X139443138Y-84623175D01*
X139442071Y-84630843D01*
X139434164Y-84677029D01*
X139432619Y-84684619D01*
X139418274Y-84745330D01*
X139416258Y-84752809D01*
X139402650Y-84797672D01*
X139400171Y-84805012D01*
X139374100Y-84874912D01*
X138041340Y-84874912D01*
X138067583Y-84872091D01*
X138202431Y-84821796D01*
X138317646Y-84735546D01*
X138403896Y-84620331D01*
X138454191Y-84485483D01*
X138460600Y-84425873D01*
X138460599Y-82330128D01*
X138454191Y-82270517D01*
X138452851Y-82266925D01*
X138403897Y-82135671D01*
X138403893Y-82135664D01*
X138317647Y-82020455D01*
X138317644Y-82020452D01*
X138202435Y-81934206D01*
X138202428Y-81934202D01*
X138067582Y-81883908D01*
X138067583Y-81883908D01*
X138007983Y-81877501D01*
X138007981Y-81877500D01*
X138007973Y-81877500D01*
X138007964Y-81877500D01*
X136007229Y-81877500D01*
X136007223Y-81877501D01*
X135947616Y-81883908D01*
X135812771Y-81934202D01*
X135812764Y-81934206D01*
X135697555Y-82020452D01*
X135697552Y-82020455D01*
X135611306Y-82135664D01*
X135611302Y-82135671D01*
X135600727Y-82164026D01*
X135558856Y-82219960D01*
X135493391Y-82244377D01*
X135425118Y-82229525D01*
X135411660Y-82221011D01*
X135228879Y-82088213D01*
X135025168Y-81984417D01*
X134807724Y-81913765D01*
X134717600Y-81899490D01*
X134717600Y-82887252D01*
X134679892Y-82865482D01*
X134540009Y-82828000D01*
X134395191Y-82828000D01*
X134255308Y-82865482D01*
X134217600Y-82887252D01*
X134217600Y-81899490D01*
X134217599Y-81899490D01*
X134127475Y-81913765D01*
X133910031Y-81984417D01*
X133706323Y-82088211D01*
X133521357Y-82222597D01*
X133359697Y-82384257D01*
X133298227Y-82468864D01*
X133242897Y-82511529D01*
X133173284Y-82517508D01*
X133111489Y-82484902D01*
X133097591Y-82468864D01*
X133035886Y-82383934D01*
X132874166Y-82222214D01*
X132689138Y-82087783D01*
X132582058Y-82033223D01*
X132485355Y-81983950D01*
X132267848Y-81913278D01*
X132082412Y-81883908D01*
X132041954Y-81877500D01*
X131813246Y-81877500D01*
X131772788Y-81883908D01*
X131587353Y-81913278D01*
X131587350Y-81913278D01*
X131369844Y-81983950D01*
X131166061Y-82087783D01*
X131100150Y-82135671D01*
X130981034Y-82222214D01*
X130981032Y-82222216D01*
X130981031Y-82222216D01*
X130819316Y-82383931D01*
X130819316Y-82383932D01*
X130819314Y-82383934D01*
X130761580Y-82463396D01*
X130684883Y-82568961D01*
X130581050Y-82772744D01*
X130510378Y-82990250D01*
X130510378Y-82990253D01*
X130510378Y-82990255D01*
X130474600Y-83216146D01*
X130474600Y-83539854D01*
X130482008Y-83586628D01*
X130510378Y-83765746D01*
X130510378Y-83765749D01*
X130581050Y-83983255D01*
X130581052Y-83983258D01*
X130684883Y-84187038D01*
X130819314Y-84372066D01*
X130981034Y-84533786D01*
X131166062Y-84668217D01*
X131368927Y-84771582D01*
X131369844Y-84772049D01*
X131587351Y-84842721D01*
X131587352Y-84842721D01*
X131587355Y-84842722D01*
X131813246Y-84878500D01*
X131813247Y-84878500D01*
X132041953Y-84878500D01*
X132041954Y-84878500D01*
X132267845Y-84842722D01*
X132267848Y-84842721D01*
X132267849Y-84842721D01*
X132485355Y-84772049D01*
X132485355Y-84772048D01*
X132485358Y-84772048D01*
X132689138Y-84668217D01*
X132874166Y-84533786D01*
X133035886Y-84372066D01*
X133097592Y-84287134D01*
X133152919Y-84244470D01*
X133222532Y-84238491D01*
X133284327Y-84271096D01*
X133298226Y-84287135D01*
X133359697Y-84371741D01*
X133359697Y-84371742D01*
X133521357Y-84533402D01*
X133706323Y-84667788D01*
X133910029Y-84771582D01*
X134127471Y-84842234D01*
X134217600Y-84856509D01*
X134217600Y-83868747D01*
X134255308Y-83890518D01*
X134395191Y-83928000D01*
X134540009Y-83928000D01*
X134679892Y-83890518D01*
X134717600Y-83868747D01*
X134717600Y-84856508D01*
X134807728Y-84842234D01*
X135025170Y-84771582D01*
X135228876Y-84667788D01*
X135411659Y-84534988D01*
X135477465Y-84511508D01*
X135545519Y-84527333D01*
X135594214Y-84577439D01*
X135600727Y-84591974D01*
X135611301Y-84620326D01*
X135611306Y-84620335D01*
X135697552Y-84735544D01*
X135697555Y-84735547D01*
X135812764Y-84821793D01*
X135812771Y-84821797D01*
X135857718Y-84838561D01*
X135947617Y-84872091D01*
X136007227Y-84878500D01*
X136208100Y-84878499D01*
X136275139Y-84898183D01*
X136320894Y-84950987D01*
X136332100Y-85002499D01*
X136332100Y-89076836D01*
X136312415Y-89143875D01*
X136295781Y-89164517D01*
X134196907Y-91263390D01*
X134196904Y-91263394D01*
X134122983Y-91374024D01*
X134122978Y-91374034D01*
X134081996Y-91472974D01*
X134072059Y-91496964D01*
X134057840Y-91568449D01*
X134046100Y-91627466D01*
X134046100Y-99634535D01*
X134072057Y-99765028D01*
X134072059Y-99765036D01*
X134122978Y-99887965D01*
X134122983Y-99887975D01*
X134196904Y-99998605D01*
X134196907Y-99998609D01*
X136295781Y-102097482D01*
X136329266Y-102158805D01*
X136332100Y-102185163D01*
X136332100Y-103491956D01*
X136312415Y-103558995D01*
X136264399Y-103602439D01*
X136246062Y-103611782D01*
X136141794Y-103687538D01*
X136061034Y-103746214D01*
X136061032Y-103746216D01*
X136061031Y-103746216D01*
X135899315Y-103907932D01*
X135837918Y-103992438D01*
X135782587Y-104035103D01*
X135712974Y-104041082D01*
X135651179Y-104008476D01*
X135637282Y-103992438D01*
X135605626Y-103948868D01*
X135575886Y-103907934D01*
X135414166Y-103746214D01*
X135229138Y-103611783D01*
X135210799Y-103602439D01*
X135025355Y-103507950D01*
X134807848Y-103437278D01*
X134622412Y-103407908D01*
X134581954Y-103401500D01*
X134353246Y-103401500D01*
X134312788Y-103407908D01*
X134127353Y-103437278D01*
X134127350Y-103437278D01*
X133909844Y-103507950D01*
X133706061Y-103611783D01*
X133523359Y-103744525D01*
X133457552Y-103768005D01*
X133389498Y-103752180D01*
X133340803Y-103702074D01*
X133334290Y-103687538D01*
X133323896Y-103659669D01*
X133323893Y-103659664D01*
X133237647Y-103544455D01*
X133237644Y-103544452D01*
X133122435Y-103458206D01*
X133122428Y-103458202D01*
X132987582Y-103407908D01*
X132987583Y-103407908D01*
X132927983Y-103401501D01*
X132927981Y-103401500D01*
X132927973Y-103401500D01*
X132927964Y-103401500D01*
X130927229Y-103401500D01*
X130927223Y-103401501D01*
X130867616Y-103407908D01*
X130732771Y-103458202D01*
X130732764Y-103458206D01*
X130617555Y-103544452D01*
X130617552Y-103544455D01*
X130531306Y-103659664D01*
X130531302Y-103659671D01*
X130481008Y-103794517D01*
X130474601Y-103854116D01*
X130474600Y-103854135D01*
X130474600Y-105949870D01*
X130474601Y-105949876D01*
X130481008Y-106009483D01*
X130531302Y-106144328D01*
X130531306Y-106144335D01*
X130617552Y-106259544D01*
X130617555Y-106259547D01*
X130732764Y-106345793D01*
X130732771Y-106345797D01*
X130740595Y-106348715D01*
X130867617Y-106396091D01*
X130927227Y-106402500D01*
X131204853Y-106402499D01*
X131271891Y-106422183D01*
X131317646Y-106474987D01*
X131324097Y-106497446D01*
X131324996Y-106497206D01*
X131327099Y-106505054D01*
X131327099Y-106505057D01*
X131348659Y-106585519D01*
X131368024Y-106657789D01*
X131368025Y-106657790D01*
X131394272Y-106703250D01*
X131394273Y-106703252D01*
X131447075Y-106794709D01*
X131447081Y-106794717D01*
X131565949Y-106913585D01*
X131565955Y-106913590D01*
X132656236Y-108003871D01*
X132689721Y-108065194D01*
X132684737Y-108134886D01*
X132642865Y-108190819D01*
X132606874Y-108209483D01*
X132424377Y-108268781D01*
X132241986Y-108361715D01*
X132076386Y-108482028D01*
X131931628Y-108626786D01*
X131811314Y-108792386D01*
X131783803Y-108846379D01*
X131735827Y-108897174D01*
X131668006Y-108913968D01*
X131601872Y-108891429D01*
X131562834Y-108846376D01*
X131535461Y-108792652D01*
X131503074Y-108748077D01*
X131503074Y-108748076D01*
X130823600Y-109427551D01*
X130823600Y-109421339D01*
X130796341Y-109319606D01*
X130743680Y-109228394D01*
X130669206Y-109153920D01*
X130577994Y-109101259D01*
X130476261Y-109074000D01*
X130470046Y-109074000D01*
X131149522Y-108394524D01*
X131149521Y-108394523D01*
X131104959Y-108362147D01*
X131104950Y-108362141D01*
X130922631Y-108269244D01*
X130728017Y-108206009D01*
X130525917Y-108174000D01*
X130321283Y-108174000D01*
X130119182Y-108206009D01*
X129924568Y-108269244D01*
X129742244Y-108362143D01*
X129697677Y-108394523D01*
X129697677Y-108394524D01*
X130377154Y-109074000D01*
X130370939Y-109074000D01*
X130269206Y-109101259D01*
X130177994Y-109153920D01*
X130103520Y-109228394D01*
X130050859Y-109319606D01*
X130023600Y-109421339D01*
X130023600Y-109427553D01*
X129344124Y-108748077D01*
X129338619Y-108748510D01*
X129295088Y-108782078D01*
X129225475Y-108788057D01*
X129163680Y-108755451D01*
X129129322Y-108694612D01*
X129126100Y-108666527D01*
X129126100Y-102568500D01*
X130124100Y-102568500D01*
X130279714Y-102568500D01*
X130285767Y-102565195D01*
X130293681Y-102561233D01*
X130342418Y-102538975D01*
X130350598Y-102535587D01*
X130548082Y-102461931D01*
X130555421Y-102459452D01*
X130600272Y-102445847D01*
X130607748Y-102443832D01*
X130668463Y-102429484D01*
X130676055Y-102427939D01*
X130722260Y-102420028D01*
X130729933Y-102418959D01*
X130833856Y-102407788D01*
X130837161Y-102407478D01*
X130857201Y-102405865D01*
X130860522Y-102405642D01*
X130876100Y-102404808D01*
X130876100Y-102403500D01*
X131874100Y-102403500D01*
X132941348Y-102403500D01*
X132944672Y-102403545D01*
X132964774Y-102404084D01*
X132968094Y-102404217D01*
X132994780Y-102405649D01*
X132998089Y-102405871D01*
X133018082Y-102407481D01*
X133021385Y-102407792D01*
X133125275Y-102418962D01*
X133132943Y-102420029D01*
X133179129Y-102427936D01*
X133186719Y-102429481D01*
X133247430Y-102443826D01*
X133254909Y-102445842D01*
X133299772Y-102459450D01*
X133307112Y-102461929D01*
X133376100Y-102487659D01*
X133376100Y-101066500D01*
X131874100Y-101066500D01*
X131874100Y-102403500D01*
X130876100Y-102403500D01*
X130876100Y-101066500D01*
X130124100Y-101066500D01*
X130124100Y-102568500D01*
X129126100Y-102568500D01*
X129126100Y-100068500D01*
X130124100Y-100068500D01*
X130876100Y-100068500D01*
X131874100Y-100068500D01*
X133121206Y-100068500D01*
X133109923Y-100031307D01*
X133108299Y-100025437D01*
X133099350Y-99989709D01*
X133098017Y-99983772D01*
X133062496Y-99805196D01*
X133061455Y-99799201D01*
X133056051Y-99762774D01*
X133055306Y-99756731D01*
X133050503Y-99707961D01*
X133050055Y-99701890D01*
X133048249Y-99665115D01*
X133048100Y-99659033D01*
X133048100Y-98566500D01*
X131874100Y-98566500D01*
X131874100Y-100068500D01*
X130876100Y-100068500D01*
X130876100Y-98566500D01*
X130124100Y-98566500D01*
X130124100Y-100068500D01*
X129126100Y-100068500D01*
X129126100Y-97568500D01*
X130124100Y-97568500D01*
X130876100Y-97568500D01*
X131874100Y-97568500D01*
X133048100Y-97568500D01*
X133048100Y-96066500D01*
X131874100Y-96066500D01*
X131874100Y-97568500D01*
X130876100Y-97568500D01*
X130876100Y-96066500D01*
X130124100Y-96066500D01*
X130124100Y-97568500D01*
X129126100Y-97568500D01*
X129126100Y-95068500D01*
X130124100Y-95068500D01*
X130876100Y-95068500D01*
X131874100Y-95068500D01*
X133048100Y-95068500D01*
X133048100Y-93566500D01*
X131874100Y-93566500D01*
X131874100Y-95068500D01*
X130876100Y-95068500D01*
X130876100Y-93566500D01*
X130124100Y-93566500D01*
X130124100Y-95068500D01*
X129126100Y-95068500D01*
X129126100Y-92568500D01*
X130124100Y-92568500D01*
X130876100Y-92568500D01*
X131874100Y-92568500D01*
X133048100Y-92568500D01*
X133048100Y-91602969D01*
X133048249Y-91596886D01*
X133050055Y-91560114D01*
X133050503Y-91554045D01*
X133055306Y-91505272D01*
X133056051Y-91499231D01*
X133061455Y-91462796D01*
X133062496Y-91456796D01*
X133079016Y-91373751D01*
X133098016Y-91278231D01*
X133099349Y-91272292D01*
X133108299Y-91236562D01*
X133109923Y-91230694D01*
X133124150Y-91183797D01*
X133126059Y-91178020D01*
X133138462Y-91143357D01*
X133140652Y-91137679D01*
X133170136Y-91066500D01*
X131874100Y-91066500D01*
X131874100Y-92568500D01*
X130876100Y-92568500D01*
X130876100Y-91066500D01*
X130124100Y-91066500D01*
X130124100Y-92568500D01*
X129126100Y-92568500D01*
X129126100Y-90068500D01*
X130124100Y-90068500D01*
X130876100Y-90068500D01*
X131874100Y-90068500D01*
X133376100Y-90068500D01*
X133376100Y-89674814D01*
X134374100Y-89674814D01*
X135334100Y-88714814D01*
X135334100Y-88566500D01*
X134374100Y-88566500D01*
X134374100Y-89674814D01*
X133376100Y-89674814D01*
X133376100Y-88566500D01*
X131874100Y-88566500D01*
X131874100Y-90068500D01*
X130876100Y-90068500D01*
X130876100Y-88566500D01*
X130124100Y-88566500D01*
X130124100Y-90068500D01*
X129126100Y-90068500D01*
X129126100Y-87568500D01*
X130124100Y-87568500D01*
X130876100Y-87568500D01*
X131874100Y-87568500D01*
X133376100Y-87568500D01*
X134374100Y-87568500D01*
X135334100Y-87568500D01*
X135334100Y-86066500D01*
X134374100Y-86066500D01*
X134374100Y-87568500D01*
X133376100Y-87568500D01*
X133376100Y-86066500D01*
X131874100Y-86066500D01*
X131874100Y-87568500D01*
X130876100Y-87568500D01*
X130876100Y-86066500D01*
X130124100Y-86066500D01*
X130124100Y-87568500D01*
X129126100Y-87568500D01*
X129126100Y-81546500D01*
X139374100Y-81546500D01*
X139374100Y-81881086D01*
X139400169Y-81950982D01*
X139402648Y-81958321D01*
X139416253Y-82003172D01*
X139418268Y-82010648D01*
X139432616Y-82071363D01*
X139434161Y-82078955D01*
X139442072Y-82125160D01*
X139443141Y-82132833D01*
X139454312Y-82236756D01*
X139454622Y-82240061D01*
X139456235Y-82260101D01*
X139456458Y-82263422D01*
X139457886Y-82290105D01*
X139458019Y-82293418D01*
X139458555Y-82313466D01*
X139458599Y-82316780D01*
X139458599Y-82568500D01*
X140876100Y-82568500D01*
X141874100Y-82568500D01*
X143376100Y-82568500D01*
X144374100Y-82568500D01*
X145876100Y-82568500D01*
X145876100Y-81431648D01*
X147137100Y-81431648D01*
X147137100Y-81636351D01*
X147169122Y-81838534D01*
X147232381Y-82033223D01*
X147325315Y-82215613D01*
X147445628Y-82381213D01*
X147590386Y-82525971D01*
X147745349Y-82638556D01*
X147755990Y-82646287D01*
X147872207Y-82705503D01*
X147938376Y-82739218D01*
X147938378Y-82739218D01*
X147938381Y-82739220D01*
X148041551Y-82772742D01*
X148133065Y-82802477D01*
X148234157Y-82818488D01*
X148335248Y-82834500D01*
X148335249Y-82834500D01*
X148539951Y-82834500D01*
X148539952Y-82834500D01*
X148742134Y-82802477D01*
X148936819Y-82739220D01*
X149119210Y-82646287D01*
X149225641Y-82568961D01*
X149284813Y-82525971D01*
X149284815Y-82525968D01*
X149284819Y-82525966D01*
X149429566Y-82381219D01*
X149504168Y-82278536D01*
X149559498Y-82235870D01*
X149629111Y-82229891D01*
X149690906Y-82262496D01*
X149725264Y-82323334D01*
X149727777Y-82338166D01*
X149733509Y-82391483D01*
X149783802Y-82526328D01*
X149783806Y-82526335D01*
X149870052Y-82641544D01*
X149870055Y-82641547D01*
X149985264Y-82727793D01*
X149985271Y-82727797D01*
X150120117Y-82778091D01*
X150120116Y-82778091D01*
X150127044Y-82778835D01*
X150179727Y-82784500D01*
X151775472Y-82784499D01*
X151835083Y-82778091D01*
X151969931Y-82727796D01*
X152085146Y-82641546D01*
X152171396Y-82526331D01*
X152221691Y-82391483D01*
X152227423Y-82338162D01*
X152254160Y-82273615D01*
X152311552Y-82233767D01*
X152381377Y-82231273D01*
X152441466Y-82266925D01*
X152451030Y-82278536D01*
X152525628Y-82381212D01*
X152525632Y-82381217D01*
X152670386Y-82525971D01*
X152825349Y-82638556D01*
X152835990Y-82646287D01*
X152952207Y-82705503D01*
X153018376Y-82739218D01*
X153018378Y-82739218D01*
X153018381Y-82739220D01*
X153121551Y-82772742D01*
X153213065Y-82802477D01*
X153314157Y-82818488D01*
X153415248Y-82834500D01*
X153415249Y-82834500D01*
X153619951Y-82834500D01*
X153619952Y-82834500D01*
X153822134Y-82802477D01*
X154016819Y-82739220D01*
X154199210Y-82646287D01*
X154305641Y-82568961D01*
X154364813Y-82525971D01*
X154364815Y-82525968D01*
X154364819Y-82525966D01*
X154509566Y-82381219D01*
X154509568Y-82381215D01*
X154509571Y-82381213D01*
X154573357Y-82293418D01*
X154629887Y-82215610D01*
X154722820Y-82033219D01*
X154786077Y-81838534D01*
X154818100Y-81636352D01*
X154818100Y-81431648D01*
X154807673Y-81365818D01*
X154786077Y-81229465D01*
X154722818Y-81034776D01*
X154689103Y-80968607D01*
X154629887Y-80852390D01*
X154595821Y-80805502D01*
X154509571Y-80686786D01*
X154364813Y-80542028D01*
X154199213Y-80421715D01*
X154199212Y-80421714D01*
X154199210Y-80421713D01*
X154142253Y-80392691D01*
X154016823Y-80328781D01*
X153822134Y-80265522D01*
X153647595Y-80237878D01*
X153619952Y-80233500D01*
X153415248Y-80233500D01*
X153390929Y-80237351D01*
X153213065Y-80265522D01*
X153018376Y-80328781D01*
X152835986Y-80421715D01*
X152670386Y-80542028D01*
X152525632Y-80686782D01*
X152525628Y-80686787D01*
X152451030Y-80789463D01*
X152395700Y-80832129D01*
X152326087Y-80838108D01*
X152264292Y-80805502D01*
X152229934Y-80744664D01*
X152227422Y-80729831D01*
X152221691Y-80676516D01*
X152171397Y-80541671D01*
X152171393Y-80541664D01*
X152085147Y-80426455D01*
X152085144Y-80426452D01*
X151969935Y-80340206D01*
X151969928Y-80340202D01*
X151835082Y-80289908D01*
X151835083Y-80289908D01*
X151775483Y-80283501D01*
X151775481Y-80283500D01*
X151775473Y-80283500D01*
X151775464Y-80283500D01*
X150179729Y-80283500D01*
X150179723Y-80283501D01*
X150120116Y-80289908D01*
X149985271Y-80340202D01*
X149985264Y-80340206D01*
X149870055Y-80426452D01*
X149870052Y-80426455D01*
X149783806Y-80541664D01*
X149783802Y-80541671D01*
X149733508Y-80676516D01*
X149727776Y-80729834D01*
X149701038Y-80794385D01*
X149643645Y-80834233D01*
X149573820Y-80836726D01*
X149513731Y-80801073D01*
X149504169Y-80789463D01*
X149429571Y-80686786D01*
X149284813Y-80542028D01*
X149119213Y-80421715D01*
X149119212Y-80421714D01*
X149119210Y-80421713D01*
X149062253Y-80392691D01*
X148936823Y-80328781D01*
X148742134Y-80265522D01*
X148567595Y-80237878D01*
X148539952Y-80233500D01*
X148335248Y-80233500D01*
X148310929Y-80237351D01*
X148133065Y-80265522D01*
X147938376Y-80328781D01*
X147755986Y-80421715D01*
X147590386Y-80542028D01*
X147445628Y-80686786D01*
X147325315Y-80852386D01*
X147232381Y-81034776D01*
X147169122Y-81229465D01*
X147137100Y-81431648D01*
X145876100Y-81431648D01*
X145876100Y-81066500D01*
X144374100Y-81066500D01*
X144374100Y-82568500D01*
X143376100Y-82568500D01*
X143376100Y-81066500D01*
X141874100Y-81066500D01*
X141874100Y-82568500D01*
X140876100Y-82568500D01*
X140876100Y-81066500D01*
X140681091Y-81066500D01*
X140525958Y-81179210D01*
X140521963Y-81181995D01*
X140497469Y-81198361D01*
X140493367Y-81200986D01*
X140459944Y-81221467D01*
X140455744Y-81223929D01*
X140430048Y-81238319D01*
X140425755Y-81240614D01*
X140208427Y-81351349D01*
X140204043Y-81353475D01*
X140177267Y-81365818D01*
X140172800Y-81367772D01*
X140136584Y-81382770D01*
X140132053Y-81384543D01*
X140104444Y-81394727D01*
X140099850Y-81396320D01*
X139867883Y-81471692D01*
X139863220Y-81473106D01*
X139834841Y-81481109D01*
X139830122Y-81482340D01*
X139792003Y-81491488D01*
X139787252Y-81492530D01*
X139758389Y-81498270D01*
X139753601Y-81499125D01*
X139512725Y-81537277D01*
X139507901Y-81537945D01*
X139478667Y-81541405D01*
X139473830Y-81541881D01*
X139434751Y-81544959D01*
X139429886Y-81545246D01*
X139400434Y-81546404D01*
X139395562Y-81546500D01*
X139374100Y-81546500D01*
X129126100Y-81546500D01*
X129126100Y-79145648D01*
X130647100Y-79145648D01*
X130647100Y-79350351D01*
X130679122Y-79552534D01*
X130742381Y-79747223D01*
X130781923Y-79824827D01*
X130835185Y-79929359D01*
X130835315Y-79929613D01*
X130955628Y-80095213D01*
X131100386Y-80239971D01*
X131255349Y-80352556D01*
X131265990Y-80360287D01*
X131382207Y-80419503D01*
X131448376Y-80453218D01*
X131448378Y-80453218D01*
X131448381Y-80453220D01*
X131552737Y-80487127D01*
X131643065Y-80516477D01*
X131744157Y-80532488D01*
X131845248Y-80548500D01*
X131845249Y-80548500D01*
X132049951Y-80548500D01*
X132049952Y-80548500D01*
X132252134Y-80516477D01*
X132446819Y-80453220D01*
X132629210Y-80360287D01*
X132759644Y-80265522D01*
X132794813Y-80239971D01*
X132794815Y-80239968D01*
X132794819Y-80239966D01*
X132939566Y-80095219D01*
X132939568Y-80095215D01*
X132939571Y-80095213D01*
X133041897Y-79954371D01*
X133059887Y-79929610D01*
X133087395Y-79875621D01*
X133135369Y-79824826D01*
X133203189Y-79808030D01*
X133269325Y-79830567D01*
X133308365Y-79875621D01*
X133335741Y-79929350D01*
X133335747Y-79929359D01*
X133368123Y-79973921D01*
X133368124Y-79973922D01*
X134047600Y-79294446D01*
X134047600Y-79300661D01*
X134074859Y-79402394D01*
X134127520Y-79493606D01*
X134201994Y-79568080D01*
X134293206Y-79620741D01*
X134394939Y-79648000D01*
X134401153Y-79648000D01*
X133721676Y-80327474D01*
X133766250Y-80359859D01*
X133948568Y-80452755D01*
X134143182Y-80515990D01*
X134345283Y-80548000D01*
X134549917Y-80548000D01*
X134752017Y-80515990D01*
X134946631Y-80452755D01*
X135128949Y-80359859D01*
X135173521Y-80327474D01*
X134494047Y-79648000D01*
X134500261Y-79648000D01*
X134601994Y-79620741D01*
X134693206Y-79568080D01*
X134767680Y-79493606D01*
X134820341Y-79402394D01*
X134847600Y-79300661D01*
X134847600Y-79294447D01*
X135527074Y-79973921D01*
X135541751Y-79972766D01*
X135565607Y-79954371D01*
X135635220Y-79948390D01*
X135681767Y-79972949D01*
X135694124Y-79973922D01*
X136373600Y-79294446D01*
X136373600Y-79300661D01*
X136400859Y-79402394D01*
X136453520Y-79493606D01*
X136527994Y-79568080D01*
X136619206Y-79620741D01*
X136720939Y-79648000D01*
X136727153Y-79648000D01*
X136047676Y-80327474D01*
X136092250Y-80359859D01*
X136274568Y-80452755D01*
X136469182Y-80515990D01*
X136671283Y-80548000D01*
X136875917Y-80548000D01*
X137078017Y-80515990D01*
X137272631Y-80452755D01*
X137454949Y-80359859D01*
X137499521Y-80327474D01*
X136820047Y-79648000D01*
X136826261Y-79648000D01*
X136927994Y-79620741D01*
X137019206Y-79568080D01*
X137093680Y-79493606D01*
X137146341Y-79402394D01*
X137173600Y-79300661D01*
X137173600Y-79294447D01*
X137853074Y-79973921D01*
X137885459Y-79929349D01*
X137912833Y-79875624D01*
X137960807Y-79824827D01*
X138028628Y-79808031D01*
X138094763Y-79830567D01*
X138133803Y-79875621D01*
X138161313Y-79929611D01*
X138281628Y-80095213D01*
X138426386Y-80239971D01*
X138581349Y-80352556D01*
X138591990Y-80360287D01*
X138708207Y-80419503D01*
X138774376Y-80453218D01*
X138774378Y-80453218D01*
X138774381Y-80453220D01*
X138878737Y-80487127D01*
X138969065Y-80516477D01*
X139070157Y-80532488D01*
X139171248Y-80548500D01*
X139171249Y-80548500D01*
X139375951Y-80548500D01*
X139375952Y-80548500D01*
X139578134Y-80516477D01*
X139772819Y-80453220D01*
X139955210Y-80360287D01*
X140085644Y-80265522D01*
X140120813Y-80239971D01*
X140120815Y-80239968D01*
X140120819Y-80239966D01*
X140265566Y-80095219D01*
X140265568Y-80095215D01*
X140265571Y-80095213D01*
X140284979Y-80068500D01*
X141874100Y-80068500D01*
X143376100Y-80068500D01*
X144374100Y-80068500D01*
X145876100Y-80068500D01*
X145876100Y-79846931D01*
X146874100Y-79846931D01*
X146898537Y-79822494D01*
X146902041Y-79819124D01*
X146923646Y-79799150D01*
X146927285Y-79795916D01*
X146957092Y-79770455D01*
X146960857Y-79767365D01*
X146984016Y-79749106D01*
X146987904Y-79746163D01*
X147185242Y-79602790D01*
X147189237Y-79600005D01*
X147213731Y-79583639D01*
X147217833Y-79581014D01*
X147251256Y-79560533D01*
X147255456Y-79558071D01*
X147281152Y-79543681D01*
X147285445Y-79541386D01*
X147501101Y-79431503D01*
X149374100Y-79431503D01*
X149473965Y-79482387D01*
X149475677Y-79481372D01*
X149538267Y-79447195D01*
X149546181Y-79443233D01*
X149594918Y-79420975D01*
X149603098Y-79417587D01*
X149800582Y-79343931D01*
X149807921Y-79341452D01*
X149852772Y-79327847D01*
X149860248Y-79325832D01*
X149920963Y-79311484D01*
X149928555Y-79309939D01*
X149974760Y-79302028D01*
X149982433Y-79300959D01*
X150081108Y-79290352D01*
X151874100Y-79290352D01*
X151972775Y-79300962D01*
X151980443Y-79302029D01*
X152026629Y-79309936D01*
X152034219Y-79311481D01*
X152094930Y-79325826D01*
X152102409Y-79327842D01*
X152147272Y-79341450D01*
X152154612Y-79343929D01*
X152352102Y-79417587D01*
X152360282Y-79420975D01*
X152409019Y-79443233D01*
X152416933Y-79447195D01*
X152479523Y-79481372D01*
X152481234Y-79482387D01*
X152582773Y-79430651D01*
X152587157Y-79428525D01*
X152613933Y-79416182D01*
X152618400Y-79414228D01*
X152654616Y-79399230D01*
X152659147Y-79397457D01*
X152661102Y-79396736D01*
X154374100Y-79396736D01*
X154376053Y-79397457D01*
X154380584Y-79399230D01*
X154416800Y-79414228D01*
X154421267Y-79416182D01*
X154448043Y-79428525D01*
X154452427Y-79430651D01*
X154669755Y-79541386D01*
X154674048Y-79543681D01*
X154699744Y-79558071D01*
X154703944Y-79560533D01*
X154737367Y-79581014D01*
X154741469Y-79583639D01*
X154765963Y-79600005D01*
X154769958Y-79602790D01*
X154967296Y-79746163D01*
X154971184Y-79749106D01*
X154994343Y-79767365D01*
X154998108Y-79770455D01*
X155027915Y-79795916D01*
X155031554Y-79799150D01*
X155053159Y-79819124D01*
X155056663Y-79822494D01*
X155229106Y-79994937D01*
X155232476Y-79998441D01*
X155252450Y-80020046D01*
X155255684Y-80023685D01*
X155281145Y-80053492D01*
X155284235Y-80057257D01*
X155293099Y-80068500D01*
X155876100Y-80068500D01*
X155876100Y-78566500D01*
X154374100Y-78566500D01*
X154374100Y-79396736D01*
X152661102Y-79396736D01*
X152686756Y-79387273D01*
X152691350Y-79385680D01*
X152923317Y-79310308D01*
X152927980Y-79308894D01*
X152956359Y-79300891D01*
X152961078Y-79299660D01*
X152999197Y-79290512D01*
X153003948Y-79289470D01*
X153032811Y-79283730D01*
X153037599Y-79282875D01*
X153278475Y-79244723D01*
X153283299Y-79244055D01*
X153312533Y-79240595D01*
X153317370Y-79240119D01*
X153356449Y-79237041D01*
X153361314Y-79236754D01*
X153376100Y-79236172D01*
X153376100Y-78566500D01*
X151874100Y-78566500D01*
X151874100Y-79290352D01*
X150081108Y-79290352D01*
X150086355Y-79289788D01*
X150089664Y-79289477D01*
X150109701Y-79287865D01*
X150113013Y-79287643D01*
X150139695Y-79286214D01*
X150143013Y-79286081D01*
X150163064Y-79285545D01*
X150166378Y-79285501D01*
X150876100Y-79285500D01*
X150876100Y-78566500D01*
X149374100Y-78566500D01*
X149374100Y-79431503D01*
X147501101Y-79431503D01*
X147502773Y-79430651D01*
X147507157Y-79428525D01*
X147533933Y-79416182D01*
X147538400Y-79414228D01*
X147574616Y-79399230D01*
X147579147Y-79397457D01*
X147606756Y-79387273D01*
X147611350Y-79385680D01*
X147843317Y-79310308D01*
X147847980Y-79308894D01*
X147876359Y-79300891D01*
X147881078Y-79299660D01*
X147919197Y-79290512D01*
X147923948Y-79289470D01*
X147952811Y-79283730D01*
X147957599Y-79282875D01*
X148198475Y-79244723D01*
X148203299Y-79244055D01*
X148232533Y-79240595D01*
X148237370Y-79240119D01*
X148276449Y-79237041D01*
X148281314Y-79236754D01*
X148310766Y-79235596D01*
X148315638Y-79235500D01*
X148376100Y-79235500D01*
X148376100Y-78566500D01*
X146874100Y-78566500D01*
X146874100Y-79846931D01*
X145876100Y-79846931D01*
X145876100Y-78566500D01*
X144374100Y-78566500D01*
X144374100Y-80068500D01*
X143376100Y-80068500D01*
X143376100Y-78566500D01*
X141874100Y-78566500D01*
X141874100Y-80068500D01*
X140284979Y-80068500D01*
X140335879Y-79998441D01*
X140385887Y-79929610D01*
X140478820Y-79747219D01*
X140542077Y-79552534D01*
X140574100Y-79350352D01*
X140574100Y-79145648D01*
X140565857Y-79093606D01*
X140542077Y-78943465D01*
X140478818Y-78748776D01*
X140436350Y-78665429D01*
X140385887Y-78566390D01*
X140353692Y-78522077D01*
X140265571Y-78400786D01*
X140120813Y-78256028D01*
X139955213Y-78135715D01*
X139955212Y-78135714D01*
X139955210Y-78135713D01*
X139898253Y-78106691D01*
X139772823Y-78042781D01*
X139578134Y-77979522D01*
X139403595Y-77951878D01*
X139375952Y-77947500D01*
X139171248Y-77947500D01*
X139146929Y-77951351D01*
X138969065Y-77979522D01*
X138774376Y-78042781D01*
X138591986Y-78135715D01*
X138426386Y-78256028D01*
X138281628Y-78400786D01*
X138161314Y-78566386D01*
X138133803Y-78620379D01*
X138085827Y-78671174D01*
X138018006Y-78687968D01*
X137951872Y-78665429D01*
X137912834Y-78620376D01*
X137885461Y-78566652D01*
X137853074Y-78522077D01*
X137853074Y-78522076D01*
X137173600Y-79201551D01*
X137173600Y-79195339D01*
X137146341Y-79093606D01*
X137093680Y-79002394D01*
X137019206Y-78927920D01*
X136927994Y-78875259D01*
X136826261Y-78848000D01*
X136820046Y-78848000D01*
X137499522Y-78168524D01*
X137499521Y-78168523D01*
X137454959Y-78136147D01*
X137454950Y-78136141D01*
X137272631Y-78043244D01*
X137078017Y-77980009D01*
X136875917Y-77948000D01*
X136671283Y-77948000D01*
X136469182Y-77980009D01*
X136274568Y-78043244D01*
X136092244Y-78136143D01*
X136047677Y-78168523D01*
X136047677Y-78168524D01*
X136727154Y-78848000D01*
X136720939Y-78848000D01*
X136619206Y-78875259D01*
X136527994Y-78927920D01*
X136453520Y-79002394D01*
X136400859Y-79093606D01*
X136373600Y-79195339D01*
X136373600Y-79201553D01*
X135694124Y-78522077D01*
X135679440Y-78523233D01*
X135655586Y-78541628D01*
X135585973Y-78547606D01*
X135539433Y-78523049D01*
X135527074Y-78522076D01*
X134847600Y-79201551D01*
X134847600Y-79195339D01*
X134820341Y-79093606D01*
X134767680Y-79002394D01*
X134693206Y-78927920D01*
X134601994Y-78875259D01*
X134500261Y-78848000D01*
X134494046Y-78848000D01*
X135173522Y-78168524D01*
X135173521Y-78168523D01*
X135128959Y-78136147D01*
X135128950Y-78136141D01*
X134946631Y-78043244D01*
X134752017Y-77980009D01*
X134549917Y-77948000D01*
X134345283Y-77948000D01*
X134143182Y-77980009D01*
X133948568Y-78043244D01*
X133766244Y-78136143D01*
X133721677Y-78168523D01*
X133721677Y-78168524D01*
X134401154Y-78848000D01*
X134394939Y-78848000D01*
X134293206Y-78875259D01*
X134201994Y-78927920D01*
X134127520Y-79002394D01*
X134074859Y-79093606D01*
X134047600Y-79195339D01*
X134047600Y-79201553D01*
X133368124Y-78522077D01*
X133368123Y-78522077D01*
X133335743Y-78566644D01*
X133308365Y-78620378D01*
X133260390Y-78671174D01*
X133192569Y-78687969D01*
X133126434Y-78665431D01*
X133087395Y-78620378D01*
X133059884Y-78566385D01*
X132939571Y-78400786D01*
X132794813Y-78256028D01*
X132629213Y-78135715D01*
X132629212Y-78135714D01*
X132629210Y-78135713D01*
X132572253Y-78106691D01*
X132446823Y-78042781D01*
X132252134Y-77979522D01*
X132077595Y-77951878D01*
X132049952Y-77947500D01*
X131845248Y-77947500D01*
X131820929Y-77951351D01*
X131643065Y-77979522D01*
X131448376Y-78042781D01*
X131265986Y-78135715D01*
X131100386Y-78256028D01*
X130955628Y-78400786D01*
X130835315Y-78566386D01*
X130742381Y-78748776D01*
X130679122Y-78943465D01*
X130647100Y-79145648D01*
X129126100Y-79145648D01*
X129126100Y-77568500D01*
X130124100Y-77568500D01*
X130376531Y-77568500D01*
X130408537Y-77536494D01*
X130412041Y-77533124D01*
X130433646Y-77513150D01*
X130437285Y-77509916D01*
X130467092Y-77484455D01*
X130470857Y-77481365D01*
X130494016Y-77463106D01*
X130497904Y-77460163D01*
X130695242Y-77316790D01*
X130699237Y-77314005D01*
X130723731Y-77297639D01*
X130727833Y-77295014D01*
X130761256Y-77274533D01*
X130765456Y-77272071D01*
X130791152Y-77257681D01*
X130795445Y-77255386D01*
X130876100Y-77214289D01*
X130876100Y-76949500D01*
X131874100Y-76949500D01*
X132069562Y-76949500D01*
X132074434Y-76949596D01*
X132103886Y-76950754D01*
X132108751Y-76951041D01*
X132147830Y-76954119D01*
X132152667Y-76954595D01*
X132181901Y-76958055D01*
X132186725Y-76958723D01*
X132427601Y-76996875D01*
X132432389Y-76997730D01*
X132461252Y-77003470D01*
X132466003Y-77004512D01*
X132504122Y-77013660D01*
X132508841Y-77014891D01*
X132537220Y-77022894D01*
X132541883Y-77024308D01*
X132773850Y-77099680D01*
X132778444Y-77101273D01*
X132806053Y-77111457D01*
X132810584Y-77113230D01*
X132846800Y-77128228D01*
X132851267Y-77130182D01*
X132878043Y-77142525D01*
X132882427Y-77144651D01*
X133099755Y-77255386D01*
X133104048Y-77257681D01*
X133129744Y-77272071D01*
X133133944Y-77274533D01*
X133167367Y-77295014D01*
X133171469Y-77297639D01*
X133195963Y-77314005D01*
X133198036Y-77315450D01*
X133199520Y-77314416D01*
X133224041Y-77298034D01*
X133228145Y-77295408D01*
X133261569Y-77274930D01*
X133265766Y-77272470D01*
X133291434Y-77258097D01*
X133295722Y-77255805D01*
X133376100Y-77214850D01*
X133376100Y-76950000D01*
X134374100Y-76950000D01*
X134569502Y-76950000D01*
X134574367Y-76950095D01*
X134603781Y-76951250D01*
X134608640Y-76951537D01*
X134647720Y-76954611D01*
X134652564Y-76955088D01*
X134681837Y-76958551D01*
X134686667Y-76959219D01*
X134927485Y-76997362D01*
X134932274Y-76998217D01*
X134961136Y-77003957D01*
X134965886Y-77004999D01*
X135004005Y-77014147D01*
X135008724Y-77015378D01*
X135037103Y-77023381D01*
X135041766Y-77024795D01*
X135273658Y-77100143D01*
X135278252Y-77101736D01*
X135305861Y-77111920D01*
X135310392Y-77113693D01*
X135346608Y-77128691D01*
X135351076Y-77130646D01*
X135377851Y-77142989D01*
X135382234Y-77145114D01*
X135599484Y-77255808D01*
X135603775Y-77258102D01*
X135610599Y-77261923D01*
X135617434Y-77258097D01*
X135621722Y-77255805D01*
X135838966Y-77145114D01*
X135843349Y-77142989D01*
X135870124Y-77130646D01*
X135874592Y-77128691D01*
X135876100Y-77128066D01*
X135876100Y-76950000D01*
X136874100Y-76950000D01*
X136895502Y-76950000D01*
X136900367Y-76950095D01*
X136929781Y-76951250D01*
X136934640Y-76951537D01*
X136973720Y-76954611D01*
X136978564Y-76955088D01*
X137007837Y-76958551D01*
X137012667Y-76959219D01*
X137253485Y-76997362D01*
X137258274Y-76998217D01*
X137287136Y-77003957D01*
X137291886Y-77004999D01*
X137330005Y-77014147D01*
X137334724Y-77015378D01*
X137363103Y-77023381D01*
X137367766Y-77024795D01*
X137599658Y-77100143D01*
X137604252Y-77101736D01*
X137631861Y-77111920D01*
X137636392Y-77113693D01*
X137672608Y-77128691D01*
X137677076Y-77130646D01*
X137703851Y-77142989D01*
X137708234Y-77145114D01*
X137925484Y-77255808D01*
X137929775Y-77258102D01*
X137955454Y-77272482D01*
X137959649Y-77274940D01*
X137993074Y-77295419D01*
X137997183Y-77298049D01*
X138021695Y-77314427D01*
X138023163Y-77315450D01*
X138025237Y-77314005D01*
X138049731Y-77297639D01*
X138053833Y-77295014D01*
X138087256Y-77274533D01*
X138091456Y-77272071D01*
X138117152Y-77257681D01*
X138121445Y-77255386D01*
X138338773Y-77144651D01*
X138343157Y-77142525D01*
X138369933Y-77130182D01*
X138374400Y-77128228D01*
X138376100Y-77127523D01*
X138376100Y-76949500D01*
X139374100Y-76949500D01*
X139395562Y-76949500D01*
X139400434Y-76949596D01*
X139429886Y-76950754D01*
X139434751Y-76951041D01*
X139473830Y-76954119D01*
X139478667Y-76954595D01*
X139507901Y-76958055D01*
X139512725Y-76958723D01*
X139753601Y-76996875D01*
X139758389Y-76997730D01*
X139787252Y-77003470D01*
X139792003Y-77004512D01*
X139830122Y-77013660D01*
X139834841Y-77014891D01*
X139863220Y-77022894D01*
X139867883Y-77024308D01*
X140099850Y-77099680D01*
X140104444Y-77101273D01*
X140132053Y-77111457D01*
X140136584Y-77113230D01*
X140172800Y-77128228D01*
X140177267Y-77130182D01*
X140204043Y-77142525D01*
X140208427Y-77144651D01*
X140425755Y-77255386D01*
X140430048Y-77257681D01*
X140455744Y-77272071D01*
X140459944Y-77274533D01*
X140493367Y-77295014D01*
X140497469Y-77297639D01*
X140521963Y-77314005D01*
X140525958Y-77316790D01*
X140723296Y-77460163D01*
X140727184Y-77463106D01*
X140750343Y-77481365D01*
X140754108Y-77484455D01*
X140783915Y-77509916D01*
X140787554Y-77513150D01*
X140809159Y-77533124D01*
X140812663Y-77536494D01*
X140844669Y-77568500D01*
X140876100Y-77568500D01*
X141874100Y-77568500D01*
X143376100Y-77568500D01*
X144374100Y-77568500D01*
X145876100Y-77568500D01*
X146874100Y-77568500D01*
X148376100Y-77568500D01*
X149374100Y-77568500D01*
X150876100Y-77568500D01*
X151874100Y-77568500D01*
X153376100Y-77568500D01*
X154374100Y-77568500D01*
X155876100Y-77568500D01*
X155876100Y-76066500D01*
X154374100Y-76066500D01*
X154374100Y-77568500D01*
X153376100Y-77568500D01*
X153376100Y-76066500D01*
X151874100Y-76066500D01*
X151874100Y-77568500D01*
X150876100Y-77568500D01*
X150876100Y-76066500D01*
X149374100Y-76066500D01*
X149374100Y-77568500D01*
X148376100Y-77568500D01*
X148376100Y-76066500D01*
X146874100Y-76066500D01*
X146874100Y-77568500D01*
X145876100Y-77568500D01*
X145876100Y-76066500D01*
X144374100Y-76066500D01*
X144374100Y-77568500D01*
X143376100Y-77568500D01*
X143376100Y-76066500D01*
X141874100Y-76066500D01*
X141874100Y-77568500D01*
X140876100Y-77568500D01*
X140876100Y-76066500D01*
X139374100Y-76066500D01*
X139374100Y-76949500D01*
X138376100Y-76949500D01*
X138376100Y-76066500D01*
X136874100Y-76066500D01*
X136874100Y-76950000D01*
X135876100Y-76950000D01*
X135876100Y-76066500D01*
X134374100Y-76066500D01*
X134374100Y-76950000D01*
X133376100Y-76950000D01*
X133376100Y-76066500D01*
X131874100Y-76066500D01*
X131874100Y-76949500D01*
X130876100Y-76949500D01*
X130876100Y-76066500D01*
X130124100Y-76066500D01*
X130124100Y-77568500D01*
X129126100Y-77568500D01*
X129126100Y-75068500D01*
X130124100Y-75068500D01*
X130876100Y-75068500D01*
X131874100Y-75068500D01*
X133376100Y-75068500D01*
X134374100Y-75068500D01*
X135876100Y-75068500D01*
X136874100Y-75068500D01*
X138376100Y-75068500D01*
X139374100Y-75068500D01*
X140876100Y-75068500D01*
X141874100Y-75068500D01*
X143376100Y-75068500D01*
X144374100Y-75068500D01*
X145504439Y-75068500D01*
X145419945Y-74955632D01*
X145414897Y-74948362D01*
X145385933Y-74903295D01*
X145381415Y-74895681D01*
X145347238Y-74833091D01*
X145343277Y-74825177D01*
X145321019Y-74776441D01*
X145317630Y-74768261D01*
X145244021Y-74570904D01*
X145241542Y-74563564D01*
X145227932Y-74518695D01*
X145225915Y-74511212D01*
X145211572Y-74450501D01*
X145210028Y-74442916D01*
X145202122Y-74396738D01*
X145201055Y-74389069D01*
X145189889Y-74285217D01*
X145189577Y-74281905D01*
X145187964Y-74261856D01*
X145187742Y-74258542D01*
X145186313Y-74231855D01*
X145186180Y-74228539D01*
X145185644Y-74208491D01*
X145185600Y-74205177D01*
X145185600Y-73566500D01*
X144374100Y-73566500D01*
X144374100Y-75068500D01*
X143376100Y-75068500D01*
X143376100Y-73566500D01*
X141874100Y-73566500D01*
X141874100Y-75068500D01*
X140876100Y-75068500D01*
X140876100Y-73566500D01*
X139374100Y-73566500D01*
X139374100Y-75068500D01*
X138376100Y-75068500D01*
X138376100Y-73566500D01*
X136874100Y-73566500D01*
X136874100Y-75068500D01*
X135876100Y-75068500D01*
X135876100Y-73566500D01*
X134374100Y-73566500D01*
X134374100Y-75068500D01*
X133376100Y-75068500D01*
X133376100Y-73566500D01*
X131874100Y-73566500D01*
X131874100Y-75068500D01*
X130876100Y-75068500D01*
X130876100Y-73566500D01*
X130124100Y-73566500D01*
X130124100Y-75068500D01*
X129126100Y-75068500D01*
X129126100Y-72568500D01*
X130124100Y-72568500D01*
X130876100Y-72568500D01*
X141874100Y-72568500D01*
X143376100Y-72568500D01*
X144374100Y-72568500D01*
X145185600Y-72568500D01*
X145185600Y-71096155D01*
X146183600Y-71096155D01*
X146183600Y-72394000D01*
X147464536Y-72394000D01*
X147452807Y-72422316D01*
X147423600Y-72569147D01*
X147423600Y-72718853D01*
X147452807Y-72865684D01*
X147464536Y-72894000D01*
X146183600Y-72894000D01*
X146183600Y-74191844D01*
X146190001Y-74251372D01*
X146190003Y-74251379D01*
X146240245Y-74386086D01*
X146240249Y-74386093D01*
X146326409Y-74501187D01*
X146326412Y-74501190D01*
X146441506Y-74587350D01*
X146441513Y-74587354D01*
X146576220Y-74637596D01*
X146576227Y-74637598D01*
X146635755Y-74643999D01*
X146635772Y-74644000D01*
X147933600Y-74644000D01*
X147933600Y-73363064D01*
X147961916Y-73374793D01*
X148108747Y-73404000D01*
X148258453Y-73404000D01*
X148405284Y-73374793D01*
X148433600Y-73363064D01*
X148433600Y-74644000D01*
X149731428Y-74644000D01*
X149731444Y-74643999D01*
X149790972Y-74637598D01*
X149790979Y-74637596D01*
X149925686Y-74587354D01*
X149925693Y-74587350D01*
X150040787Y-74501190D01*
X150040790Y-74501187D01*
X150126950Y-74386093D01*
X150126954Y-74386086D01*
X150177196Y-74251379D01*
X150177198Y-74251372D01*
X150183599Y-74191844D01*
X150183600Y-74191827D01*
X150183600Y-72894000D01*
X148902664Y-72894000D01*
X148914393Y-72865684D01*
X148943600Y-72718853D01*
X148943600Y-72569147D01*
X148932406Y-72512872D01*
X151263100Y-72512872D01*
X151263100Y-72775127D01*
X151275023Y-72865684D01*
X151297330Y-73035116D01*
X151322345Y-73128472D01*
X151365202Y-73288418D01*
X151365205Y-73288428D01*
X151465553Y-73530690D01*
X151465558Y-73530700D01*
X151596675Y-73757803D01*
X151756318Y-73965851D01*
X151756326Y-73965860D01*
X151941740Y-74151274D01*
X151941748Y-74151281D01*
X152149796Y-74310924D01*
X152376899Y-74442041D01*
X152376909Y-74442046D01*
X152619171Y-74542394D01*
X152619181Y-74542398D01*
X152872484Y-74610270D01*
X153120788Y-74642960D01*
X153128674Y-74643999D01*
X153132480Y-74644500D01*
X153132487Y-74644500D01*
X153394713Y-74644500D01*
X153394720Y-74644500D01*
X153654716Y-74610270D01*
X153908019Y-74542398D01*
X154129878Y-74450501D01*
X154150290Y-74442046D01*
X154150291Y-74442045D01*
X154150297Y-74442043D01*
X154377403Y-74310924D01*
X154585451Y-74151282D01*
X154585455Y-74151277D01*
X154585460Y-74151274D01*
X154770874Y-73965860D01*
X154770877Y-73965855D01*
X154770882Y-73965851D01*
X154930524Y-73757803D01*
X155061643Y-73530697D01*
X155161998Y-73288419D01*
X155229870Y-73035116D01*
X155264100Y-72775120D01*
X155264100Y-72568500D01*
X156874100Y-72568500D01*
X158376100Y-72568500D01*
X158376100Y-71066500D01*
X156874100Y-71066500D01*
X156874100Y-72568500D01*
X155264100Y-72568500D01*
X155264100Y-72512880D01*
X155229870Y-72252884D01*
X155161998Y-71999581D01*
X155149951Y-71970497D01*
X155061646Y-71757309D01*
X155061641Y-71757299D01*
X154930524Y-71530196D01*
X154770881Y-71322148D01*
X154770874Y-71322140D01*
X154585460Y-71136726D01*
X154585451Y-71136718D01*
X154377403Y-70977075D01*
X154150300Y-70845958D01*
X154150290Y-70845953D01*
X153908028Y-70745605D01*
X153908021Y-70745603D01*
X153908019Y-70745602D01*
X153654716Y-70677730D01*
X153596939Y-70670123D01*
X153394727Y-70643500D01*
X153394720Y-70643500D01*
X153132480Y-70643500D01*
X153132472Y-70643500D01*
X152901372Y-70673926D01*
X152872484Y-70677730D01*
X152786964Y-70700645D01*
X152619181Y-70745602D01*
X152619171Y-70745605D01*
X152376909Y-70845953D01*
X152376899Y-70845958D01*
X152149796Y-70977075D01*
X151941748Y-71136718D01*
X151756318Y-71322148D01*
X151596675Y-71530196D01*
X151465558Y-71757299D01*
X151465553Y-71757309D01*
X151365205Y-71999571D01*
X151365202Y-71999581D01*
X151315472Y-72185179D01*
X151297330Y-72252885D01*
X151263100Y-72512872D01*
X148932406Y-72512872D01*
X148914393Y-72422316D01*
X148902664Y-72394000D01*
X150183600Y-72394000D01*
X150183600Y-71096172D01*
X150183599Y-71096155D01*
X150177198Y-71036627D01*
X150177196Y-71036620D01*
X150126954Y-70901913D01*
X150126950Y-70901906D01*
X150040790Y-70786812D01*
X150040787Y-70786809D01*
X149925693Y-70700649D01*
X149925686Y-70700645D01*
X149790979Y-70650403D01*
X149790972Y-70650401D01*
X149731444Y-70644000D01*
X148433600Y-70644000D01*
X148433600Y-71924935D01*
X148405284Y-71913207D01*
X148258453Y-71884000D01*
X148108747Y-71884000D01*
X147961916Y-71913207D01*
X147933600Y-71924935D01*
X147933600Y-70644000D01*
X146635755Y-70644000D01*
X146576227Y-70650401D01*
X146576220Y-70650403D01*
X146441513Y-70700645D01*
X146441506Y-70700649D01*
X146326412Y-70786809D01*
X146326409Y-70786812D01*
X146240249Y-70901906D01*
X146240245Y-70901913D01*
X146190003Y-71036620D01*
X146190001Y-71036627D01*
X146183600Y-71096155D01*
X145185600Y-71096155D01*
X145185600Y-71082823D01*
X145185644Y-71079509D01*
X145185992Y-71066500D01*
X144374100Y-71066500D01*
X144374100Y-72568500D01*
X143376100Y-72568500D01*
X143376100Y-71066500D01*
X141874100Y-71066500D01*
X141874100Y-72568500D01*
X130876100Y-72568500D01*
X130876100Y-71066500D01*
X130124100Y-71066500D01*
X130124100Y-72568500D01*
X129126100Y-72568500D01*
X129126100Y-71021263D01*
X132451100Y-71021263D01*
X132451100Y-71218736D01*
X132481989Y-71413763D01*
X132523819Y-71542500D01*
X132543009Y-71601561D01*
X132622368Y-71757309D01*
X132632658Y-71777504D01*
X132748715Y-71937246D01*
X132888353Y-72076884D01*
X133002105Y-72159528D01*
X133048099Y-72192944D01*
X133224039Y-72282591D01*
X133349237Y-72323270D01*
X133411836Y-72343610D01*
X133606864Y-72374500D01*
X133606869Y-72374500D01*
X133804336Y-72374500D01*
X133999363Y-72343610D01*
X134187161Y-72282591D01*
X134363101Y-72192944D01*
X134452792Y-72127779D01*
X134522846Y-72076884D01*
X134522848Y-72076881D01*
X134522852Y-72076879D01*
X134662479Y-71937252D01*
X134662481Y-71937248D01*
X134662484Y-71937246D01*
X134778541Y-71777505D01*
X134778542Y-71777504D01*
X134778544Y-71777501D01*
X134845116Y-71646846D01*
X134893090Y-71596052D01*
X134960911Y-71579257D01*
X135027046Y-71601794D01*
X135066082Y-71646845D01*
X135122368Y-71757309D01*
X135132658Y-71777505D01*
X135248715Y-71937246D01*
X135388353Y-72076884D01*
X135502105Y-72159528D01*
X135548099Y-72192944D01*
X135724039Y-72282591D01*
X135849237Y-72323270D01*
X135911836Y-72343610D01*
X136106864Y-72374500D01*
X136106869Y-72374500D01*
X136304336Y-72374500D01*
X136499363Y-72343610D01*
X136687161Y-72282591D01*
X136863101Y-72192944D01*
X136952792Y-72127779D01*
X137022846Y-72076884D01*
X137022848Y-72076881D01*
X137022852Y-72076879D01*
X137162479Y-71937252D01*
X137162481Y-71937248D01*
X137162484Y-71937246D01*
X137278541Y-71777505D01*
X137278542Y-71777504D01*
X137278544Y-71777501D01*
X137345116Y-71646846D01*
X137393090Y-71596052D01*
X137460911Y-71579257D01*
X137527046Y-71601794D01*
X137566082Y-71646845D01*
X137622368Y-71757309D01*
X137632658Y-71777505D01*
X137748715Y-71937246D01*
X137888353Y-72076884D01*
X138002105Y-72159528D01*
X138048099Y-72192944D01*
X138224039Y-72282591D01*
X138349237Y-72323270D01*
X138411836Y-72343610D01*
X138606864Y-72374500D01*
X138606869Y-72374500D01*
X138804336Y-72374500D01*
X138999363Y-72343610D01*
X139187161Y-72282591D01*
X139363101Y-72192944D01*
X139452792Y-72127779D01*
X139522846Y-72076884D01*
X139522848Y-72076881D01*
X139522852Y-72076879D01*
X139662479Y-71937252D01*
X139662481Y-71937248D01*
X139662484Y-71937246D01*
X139734617Y-71837962D01*
X139778544Y-71777501D01*
X139868191Y-71601561D01*
X139929210Y-71413763D01*
X139960100Y-71218736D01*
X139960100Y-71021263D01*
X139929210Y-70826236D01*
X139880957Y-70677730D01*
X139868191Y-70638439D01*
X139778544Y-70462499D01*
X139746814Y-70418826D01*
X139662484Y-70302753D01*
X139522846Y-70163115D01*
X139392617Y-70068500D01*
X141874100Y-70068500D01*
X143376100Y-70068500D01*
X144374100Y-70068500D01*
X145633337Y-70068500D01*
X145645929Y-70055908D01*
X145652408Y-70049876D01*
X145692893Y-70014796D01*
X145699784Y-70009243D01*
X145871968Y-69880345D01*
X145876100Y-69877475D01*
X145876100Y-69646000D01*
X146874100Y-69646000D01*
X148134146Y-69646000D01*
X148181598Y-69655439D01*
X148183600Y-69656268D01*
X148185602Y-69655439D01*
X148233054Y-69646000D01*
X148376100Y-69646000D01*
X149374100Y-69646000D01*
X149744777Y-69646000D01*
X149748091Y-69646044D01*
X149768139Y-69646580D01*
X149771455Y-69646713D01*
X149798142Y-69648142D01*
X149801456Y-69648364D01*
X149821505Y-69649977D01*
X149824817Y-69650289D01*
X149928669Y-69661455D01*
X149936338Y-69662522D01*
X149982516Y-69670428D01*
X149990101Y-69671972D01*
X150050812Y-69686315D01*
X150058295Y-69688332D01*
X150103164Y-69701942D01*
X150110504Y-69704421D01*
X150307861Y-69778030D01*
X150316041Y-69781419D01*
X150364777Y-69803677D01*
X150372691Y-69807638D01*
X150435281Y-69841815D01*
X150442895Y-69846333D01*
X150487962Y-69875297D01*
X150495232Y-69880345D01*
X150667416Y-70009243D01*
X150674307Y-70014796D01*
X150714792Y-70049876D01*
X150721271Y-70055908D01*
X150733863Y-70068500D01*
X150876100Y-70068500D01*
X150876100Y-69983859D01*
X151874100Y-69983859D01*
X151892042Y-69973501D01*
X151895585Y-69971532D01*
X151917216Y-69959969D01*
X151920825Y-69958115D01*
X151950120Y-69943667D01*
X151953788Y-69941932D01*
X151976161Y-69931794D01*
X151979888Y-69930178D01*
X152153104Y-69858430D01*
X154374100Y-69858430D01*
X154547312Y-69930178D01*
X154551039Y-69931794D01*
X154573412Y-69941932D01*
X154577080Y-69943667D01*
X154606375Y-69958115D01*
X154609984Y-69959969D01*
X154631615Y-69971532D01*
X154635158Y-69973501D01*
X154799702Y-70068500D01*
X155876100Y-70068500D01*
X156874100Y-70068500D01*
X158376100Y-70068500D01*
X158376100Y-69316500D01*
X156874100Y-69316500D01*
X156874100Y-70068500D01*
X155876100Y-70068500D01*
X155876100Y-69316500D01*
X154374100Y-69316500D01*
X154374100Y-69858430D01*
X152153104Y-69858430D01*
X152252367Y-69817314D01*
X152256142Y-69815822D01*
X152279144Y-69807165D01*
X152282975Y-69805795D01*
X152313908Y-69795298D01*
X152317765Y-69794059D01*
X152341224Y-69786944D01*
X152345120Y-69785831D01*
X152629957Y-69709509D01*
X152633893Y-69708523D01*
X152657794Y-69702950D01*
X152661762Y-69702093D01*
X152693798Y-69695721D01*
X152697788Y-69694995D01*
X152722008Y-69690996D01*
X152726022Y-69690401D01*
X153018405Y-69651907D01*
X153022433Y-69651444D01*
X153046863Y-69649037D01*
X153050913Y-69648704D01*
X153083510Y-69646568D01*
X153087561Y-69646369D01*
X153112092Y-69645566D01*
X153116149Y-69645500D01*
X153376100Y-69645500D01*
X153376100Y-69316500D01*
X151874100Y-69316500D01*
X151874100Y-69983859D01*
X150876100Y-69983859D01*
X150876100Y-69316500D01*
X149374100Y-69316500D01*
X149374100Y-69646000D01*
X148376100Y-69646000D01*
X148376100Y-69316500D01*
X146874100Y-69316500D01*
X146874100Y-69646000D01*
X145876100Y-69646000D01*
X145876100Y-69316500D01*
X144374100Y-69316500D01*
X144374100Y-70068500D01*
X143376100Y-70068500D01*
X143376100Y-69316500D01*
X141874100Y-69316500D01*
X141874100Y-70068500D01*
X139392617Y-70068500D01*
X139363104Y-70047058D01*
X139363103Y-70047057D01*
X139363101Y-70047056D01*
X139187161Y-69957409D01*
X139173287Y-69952901D01*
X138999363Y-69896389D01*
X138804336Y-69865500D01*
X138804331Y-69865500D01*
X138606869Y-69865500D01*
X138606864Y-69865500D01*
X138411836Y-69896389D01*
X138224041Y-69957408D01*
X138048095Y-70047058D01*
X137888353Y-70163115D01*
X137748715Y-70302753D01*
X137632658Y-70462495D01*
X137566085Y-70593151D01*
X137518110Y-70643947D01*
X137450289Y-70660742D01*
X137384154Y-70638204D01*
X137345115Y-70593151D01*
X137278544Y-70462499D01*
X137246814Y-70418826D01*
X137162484Y-70302753D01*
X137022846Y-70163115D01*
X136863104Y-70047058D01*
X136863103Y-70047057D01*
X136863101Y-70047056D01*
X136687161Y-69957409D01*
X136673287Y-69952901D01*
X136499363Y-69896389D01*
X136304336Y-69865500D01*
X136304331Y-69865500D01*
X136106869Y-69865500D01*
X136106864Y-69865500D01*
X135911836Y-69896389D01*
X135724041Y-69957408D01*
X135548095Y-70047058D01*
X135388353Y-70163115D01*
X135248715Y-70302753D01*
X135132658Y-70462495D01*
X135066085Y-70593151D01*
X135018110Y-70643947D01*
X134950289Y-70660742D01*
X134884154Y-70638204D01*
X134845115Y-70593151D01*
X134778544Y-70462499D01*
X134746814Y-70418826D01*
X134662484Y-70302753D01*
X134522846Y-70163115D01*
X134363104Y-70047058D01*
X134363103Y-70047057D01*
X134363101Y-70047056D01*
X134187161Y-69957409D01*
X134173287Y-69952901D01*
X133999363Y-69896389D01*
X133804336Y-69865500D01*
X133804331Y-69865500D01*
X133606869Y-69865500D01*
X133606864Y-69865500D01*
X133411836Y-69896389D01*
X133224041Y-69957408D01*
X133048095Y-70047058D01*
X132888353Y-70163115D01*
X132748715Y-70302753D01*
X132632658Y-70462495D01*
X132543008Y-70638441D01*
X132481989Y-70826236D01*
X132451100Y-71021263D01*
X129126100Y-71021263D01*
X129126100Y-69433076D01*
X130124100Y-69433076D01*
X130124100Y-70068500D01*
X130876100Y-70068500D01*
X130876100Y-69316500D01*
X130240676Y-69316500D01*
X130124100Y-69433076D01*
X129126100Y-69433076D01*
X129126100Y-68892862D01*
X129145785Y-68825823D01*
X129162419Y-68805181D01*
X129612781Y-68354819D01*
X129674104Y-68321334D01*
X129700462Y-68318500D01*
X129707492Y-68318500D01*
X162849708Y-68318500D01*
X162908639Y-68318500D01*
X162922522Y-68319280D01*
G37*
%TD.AperFunction*%
%TD*%
M02*
