%TF.GenerationSoftware,KiCad,Pcbnew,9.0.4*%
%TF.CreationDate,2025-09-23T18:33:02+01:00*%
%TF.ProjectId,Breadboard Power Supply,42726561-6462-46f6-9172-6420506f7765,v1.0*%
%TF.SameCoordinates,Original*%
%TF.FileFunction,Legend,Top*%
%TF.FilePolarity,Positive*%
%FSLAX46Y46*%
G04 Gerber Fmt 4.6, Leading zero omitted, Abs format (unit mm)*
G04 Created by KiCad (PCBNEW 9.0.4) date 2025-09-23 18:33:02*
%MOMM*%
%LPD*%
G01*
G04 APERTURE LIST*
%ADD10C,0.100000*%
%ADD11C,0.150000*%
%ADD12C,0.120000*%
%ADD13C,0.200000*%
%ADD14C,0.127000*%
G04 APERTURE END LIST*
D10*
X155548684Y-92150666D02*
X156310589Y-92150666D01*
X155929636Y-92531619D02*
X155929636Y-91769714D01*
X157670038Y-116571106D02*
X157622419Y-116666344D01*
X157622419Y-116666344D02*
X157622419Y-116809201D01*
X157622419Y-116809201D02*
X157670038Y-116952058D01*
X157670038Y-116952058D02*
X157765276Y-117047296D01*
X157765276Y-117047296D02*
X157860514Y-117094915D01*
X157860514Y-117094915D02*
X158050990Y-117142534D01*
X158050990Y-117142534D02*
X158193847Y-117142534D01*
X158193847Y-117142534D02*
X158384323Y-117094915D01*
X158384323Y-117094915D02*
X158479561Y-117047296D01*
X158479561Y-117047296D02*
X158574800Y-116952058D01*
X158574800Y-116952058D02*
X158622419Y-116809201D01*
X158622419Y-116809201D02*
X158622419Y-116713963D01*
X158622419Y-116713963D02*
X158574800Y-116571106D01*
X158574800Y-116571106D02*
X158527180Y-116523487D01*
X158527180Y-116523487D02*
X158193847Y-116523487D01*
X158193847Y-116523487D02*
X158193847Y-116713963D01*
X158622419Y-116094915D02*
X157622419Y-116094915D01*
X157622419Y-116094915D02*
X158622419Y-115523487D01*
X158622419Y-115523487D02*
X157622419Y-115523487D01*
X158622419Y-115047296D02*
X157622419Y-115047296D01*
X157622419Y-115047296D02*
X157622419Y-114809201D01*
X157622419Y-114809201D02*
X157670038Y-114666344D01*
X157670038Y-114666344D02*
X157765276Y-114571106D01*
X157765276Y-114571106D02*
X157860514Y-114523487D01*
X157860514Y-114523487D02*
X158050990Y-114475868D01*
X158050990Y-114475868D02*
X158193847Y-114475868D01*
X158193847Y-114475868D02*
X158384323Y-114523487D01*
X158384323Y-114523487D02*
X158479561Y-114571106D01*
X158479561Y-114571106D02*
X158574800Y-114666344D01*
X158574800Y-114666344D02*
X158622419Y-114809201D01*
X158622419Y-114809201D02*
X158622419Y-115047296D01*
X152945160Y-83608419D02*
X153135636Y-83608419D01*
X153135636Y-83608419D02*
X153230874Y-83656038D01*
X153230874Y-83656038D02*
X153326112Y-83751276D01*
X153326112Y-83751276D02*
X153373731Y-83941752D01*
X153373731Y-83941752D02*
X153373731Y-84275085D01*
X153373731Y-84275085D02*
X153326112Y-84465561D01*
X153326112Y-84465561D02*
X153230874Y-84560800D01*
X153230874Y-84560800D02*
X153135636Y-84608419D01*
X153135636Y-84608419D02*
X152945160Y-84608419D01*
X152945160Y-84608419D02*
X152849922Y-84560800D01*
X152849922Y-84560800D02*
X152754684Y-84465561D01*
X152754684Y-84465561D02*
X152707065Y-84275085D01*
X152707065Y-84275085D02*
X152707065Y-83941752D01*
X152707065Y-83941752D02*
X152754684Y-83751276D01*
X152754684Y-83751276D02*
X152849922Y-83656038D01*
X152849922Y-83656038D02*
X152945160Y-83608419D01*
X153802303Y-84608419D02*
X153802303Y-83608419D01*
X153802303Y-83608419D02*
X154373731Y-84608419D01*
X154373731Y-84608419D02*
X154373731Y-83608419D01*
X131983846Y-73904019D02*
X132602893Y-73904019D01*
X132602893Y-73904019D02*
X132269560Y-74284971D01*
X132269560Y-74284971D02*
X132412417Y-74284971D01*
X132412417Y-74284971D02*
X132507655Y-74332590D01*
X132507655Y-74332590D02*
X132555274Y-74380209D01*
X132555274Y-74380209D02*
X132602893Y-74475447D01*
X132602893Y-74475447D02*
X132602893Y-74713542D01*
X132602893Y-74713542D02*
X132555274Y-74808780D01*
X132555274Y-74808780D02*
X132507655Y-74856400D01*
X132507655Y-74856400D02*
X132412417Y-74904019D01*
X132412417Y-74904019D02*
X132126703Y-74904019D01*
X132126703Y-74904019D02*
X132031465Y-74856400D01*
X132031465Y-74856400D02*
X131983846Y-74808780D01*
X133031465Y-74808780D02*
X133079084Y-74856400D01*
X133079084Y-74856400D02*
X133031465Y-74904019D01*
X133031465Y-74904019D02*
X132983846Y-74856400D01*
X132983846Y-74856400D02*
X133031465Y-74808780D01*
X133031465Y-74808780D02*
X133031465Y-74904019D01*
X133412417Y-73904019D02*
X134031464Y-73904019D01*
X134031464Y-73904019D02*
X133698131Y-74284971D01*
X133698131Y-74284971D02*
X133840988Y-74284971D01*
X133840988Y-74284971D02*
X133936226Y-74332590D01*
X133936226Y-74332590D02*
X133983845Y-74380209D01*
X133983845Y-74380209D02*
X134031464Y-74475447D01*
X134031464Y-74475447D02*
X134031464Y-74713542D01*
X134031464Y-74713542D02*
X133983845Y-74808780D01*
X133983845Y-74808780D02*
X133936226Y-74856400D01*
X133936226Y-74856400D02*
X133840988Y-74904019D01*
X133840988Y-74904019D02*
X133555274Y-74904019D01*
X133555274Y-74904019D02*
X133460036Y-74856400D01*
X133460036Y-74856400D02*
X133412417Y-74808780D01*
X134317179Y-73904019D02*
X134650512Y-74904019D01*
X134650512Y-74904019D02*
X134983845Y-73904019D01*
X138448074Y-73802419D02*
X137971884Y-73802419D01*
X137971884Y-73802419D02*
X137924265Y-74278609D01*
X137924265Y-74278609D02*
X137971884Y-74230990D01*
X137971884Y-74230990D02*
X138067122Y-74183371D01*
X138067122Y-74183371D02*
X138305217Y-74183371D01*
X138305217Y-74183371D02*
X138400455Y-74230990D01*
X138400455Y-74230990D02*
X138448074Y-74278609D01*
X138448074Y-74278609D02*
X138495693Y-74373847D01*
X138495693Y-74373847D02*
X138495693Y-74611942D01*
X138495693Y-74611942D02*
X138448074Y-74707180D01*
X138448074Y-74707180D02*
X138400455Y-74754800D01*
X138400455Y-74754800D02*
X138305217Y-74802419D01*
X138305217Y-74802419D02*
X138067122Y-74802419D01*
X138067122Y-74802419D02*
X137971884Y-74754800D01*
X137971884Y-74754800D02*
X137924265Y-74707180D01*
X138781408Y-73802419D02*
X139114741Y-74802419D01*
X139114741Y-74802419D02*
X139448074Y-73802419D01*
X138448074Y-114036019D02*
X137971884Y-114036019D01*
X137971884Y-114036019D02*
X137924265Y-114512209D01*
X137924265Y-114512209D02*
X137971884Y-114464590D01*
X137971884Y-114464590D02*
X138067122Y-114416971D01*
X138067122Y-114416971D02*
X138305217Y-114416971D01*
X138305217Y-114416971D02*
X138400455Y-114464590D01*
X138400455Y-114464590D02*
X138448074Y-114512209D01*
X138448074Y-114512209D02*
X138495693Y-114607447D01*
X138495693Y-114607447D02*
X138495693Y-114845542D01*
X138495693Y-114845542D02*
X138448074Y-114940780D01*
X138448074Y-114940780D02*
X138400455Y-114988400D01*
X138400455Y-114988400D02*
X138305217Y-115036019D01*
X138305217Y-115036019D02*
X138067122Y-115036019D01*
X138067122Y-115036019D02*
X137971884Y-114988400D01*
X137971884Y-114988400D02*
X137924265Y-114940780D01*
X138781408Y-114036019D02*
X139114741Y-115036019D01*
X139114741Y-115036019D02*
X139448074Y-114036019D01*
X147385693Y-77152038D02*
X147290455Y-77104419D01*
X147290455Y-77104419D02*
X147147598Y-77104419D01*
X147147598Y-77104419D02*
X147004741Y-77152038D01*
X147004741Y-77152038D02*
X146909503Y-77247276D01*
X146909503Y-77247276D02*
X146861884Y-77342514D01*
X146861884Y-77342514D02*
X146814265Y-77532990D01*
X146814265Y-77532990D02*
X146814265Y-77675847D01*
X146814265Y-77675847D02*
X146861884Y-77866323D01*
X146861884Y-77866323D02*
X146909503Y-77961561D01*
X146909503Y-77961561D02*
X147004741Y-78056800D01*
X147004741Y-78056800D02*
X147147598Y-78104419D01*
X147147598Y-78104419D02*
X147242836Y-78104419D01*
X147242836Y-78104419D02*
X147385693Y-78056800D01*
X147385693Y-78056800D02*
X147433312Y-78009180D01*
X147433312Y-78009180D02*
X147433312Y-77675847D01*
X147433312Y-77675847D02*
X147242836Y-77675847D01*
X147861884Y-78104419D02*
X147861884Y-77104419D01*
X147861884Y-77104419D02*
X148433312Y-78104419D01*
X148433312Y-78104419D02*
X148433312Y-77104419D01*
X148909503Y-78104419D02*
X148909503Y-77104419D01*
X148909503Y-77104419D02*
X149147598Y-77104419D01*
X149147598Y-77104419D02*
X149290455Y-77152038D01*
X149290455Y-77152038D02*
X149385693Y-77247276D01*
X149385693Y-77247276D02*
X149433312Y-77342514D01*
X149433312Y-77342514D02*
X149480931Y-77532990D01*
X149480931Y-77532990D02*
X149480931Y-77675847D01*
X149480931Y-77675847D02*
X149433312Y-77866323D01*
X149433312Y-77866323D02*
X149385693Y-77961561D01*
X149385693Y-77961561D02*
X149290455Y-78056800D01*
X149290455Y-78056800D02*
X149147598Y-78104419D01*
X149147598Y-78104419D02*
X148909503Y-78104419D01*
X155548684Y-94792266D02*
X156310589Y-94792266D01*
X132441046Y-114036019D02*
X133060093Y-114036019D01*
X133060093Y-114036019D02*
X132726760Y-114416971D01*
X132726760Y-114416971D02*
X132869617Y-114416971D01*
X132869617Y-114416971D02*
X132964855Y-114464590D01*
X132964855Y-114464590D02*
X133012474Y-114512209D01*
X133012474Y-114512209D02*
X133060093Y-114607447D01*
X133060093Y-114607447D02*
X133060093Y-114845542D01*
X133060093Y-114845542D02*
X133012474Y-114940780D01*
X133012474Y-114940780D02*
X132964855Y-114988400D01*
X132964855Y-114988400D02*
X132869617Y-115036019D01*
X132869617Y-115036019D02*
X132583903Y-115036019D01*
X132583903Y-115036019D02*
X132488665Y-114988400D01*
X132488665Y-114988400D02*
X132441046Y-114940780D01*
X133488665Y-114940780D02*
X133536284Y-114988400D01*
X133536284Y-114988400D02*
X133488665Y-115036019D01*
X133488665Y-115036019D02*
X133441046Y-114988400D01*
X133441046Y-114988400D02*
X133488665Y-114940780D01*
X133488665Y-114940780D02*
X133488665Y-115036019D01*
X133869617Y-114036019D02*
X134488664Y-114036019D01*
X134488664Y-114036019D02*
X134155331Y-114416971D01*
X134155331Y-114416971D02*
X134298188Y-114416971D01*
X134298188Y-114416971D02*
X134393426Y-114464590D01*
X134393426Y-114464590D02*
X134441045Y-114512209D01*
X134441045Y-114512209D02*
X134488664Y-114607447D01*
X134488664Y-114607447D02*
X134488664Y-114845542D01*
X134488664Y-114845542D02*
X134441045Y-114940780D01*
X134441045Y-114940780D02*
X134393426Y-114988400D01*
X134393426Y-114988400D02*
X134298188Y-115036019D01*
X134298188Y-115036019D02*
X134012474Y-115036019D01*
X134012474Y-115036019D02*
X133917236Y-114988400D01*
X133917236Y-114988400D02*
X133869617Y-114940780D01*
X134774379Y-114036019D02*
X135107712Y-115036019D01*
X135107712Y-115036019D02*
X135441045Y-114036019D01*
X147487293Y-111340438D02*
X147392055Y-111292819D01*
X147392055Y-111292819D02*
X147249198Y-111292819D01*
X147249198Y-111292819D02*
X147106341Y-111340438D01*
X147106341Y-111340438D02*
X147011103Y-111435676D01*
X147011103Y-111435676D02*
X146963484Y-111530914D01*
X146963484Y-111530914D02*
X146915865Y-111721390D01*
X146915865Y-111721390D02*
X146915865Y-111864247D01*
X146915865Y-111864247D02*
X146963484Y-112054723D01*
X146963484Y-112054723D02*
X147011103Y-112149961D01*
X147011103Y-112149961D02*
X147106341Y-112245200D01*
X147106341Y-112245200D02*
X147249198Y-112292819D01*
X147249198Y-112292819D02*
X147344436Y-112292819D01*
X147344436Y-112292819D02*
X147487293Y-112245200D01*
X147487293Y-112245200D02*
X147534912Y-112197580D01*
X147534912Y-112197580D02*
X147534912Y-111864247D01*
X147534912Y-111864247D02*
X147344436Y-111864247D01*
X147963484Y-112292819D02*
X147963484Y-111292819D01*
X147963484Y-111292819D02*
X148534912Y-112292819D01*
X148534912Y-112292819D02*
X148534912Y-111292819D01*
X149011103Y-112292819D02*
X149011103Y-111292819D01*
X149011103Y-111292819D02*
X149249198Y-111292819D01*
X149249198Y-111292819D02*
X149392055Y-111340438D01*
X149392055Y-111340438D02*
X149487293Y-111435676D01*
X149487293Y-111435676D02*
X149534912Y-111530914D01*
X149534912Y-111530914D02*
X149582531Y-111721390D01*
X149582531Y-111721390D02*
X149582531Y-111864247D01*
X149582531Y-111864247D02*
X149534912Y-112054723D01*
X149534912Y-112054723D02*
X149487293Y-112149961D01*
X149487293Y-112149961D02*
X149392055Y-112245200D01*
X149392055Y-112245200D02*
X149249198Y-112292819D01*
X149249198Y-112292819D02*
X149011103Y-112292819D01*
X157873238Y-70749506D02*
X157825619Y-70844744D01*
X157825619Y-70844744D02*
X157825619Y-70987601D01*
X157825619Y-70987601D02*
X157873238Y-71130458D01*
X157873238Y-71130458D02*
X157968476Y-71225696D01*
X157968476Y-71225696D02*
X158063714Y-71273315D01*
X158063714Y-71273315D02*
X158254190Y-71320934D01*
X158254190Y-71320934D02*
X158397047Y-71320934D01*
X158397047Y-71320934D02*
X158587523Y-71273315D01*
X158587523Y-71273315D02*
X158682761Y-71225696D01*
X158682761Y-71225696D02*
X158778000Y-71130458D01*
X158778000Y-71130458D02*
X158825619Y-70987601D01*
X158825619Y-70987601D02*
X158825619Y-70892363D01*
X158825619Y-70892363D02*
X158778000Y-70749506D01*
X158778000Y-70749506D02*
X158730380Y-70701887D01*
X158730380Y-70701887D02*
X158397047Y-70701887D01*
X158397047Y-70701887D02*
X158397047Y-70892363D01*
X158825619Y-70273315D02*
X157825619Y-70273315D01*
X157825619Y-70273315D02*
X158825619Y-69701887D01*
X158825619Y-69701887D02*
X157825619Y-69701887D01*
X158825619Y-69225696D02*
X157825619Y-69225696D01*
X157825619Y-69225696D02*
X157825619Y-68987601D01*
X157825619Y-68987601D02*
X157873238Y-68844744D01*
X157873238Y-68844744D02*
X157968476Y-68749506D01*
X157968476Y-68749506D02*
X158063714Y-68701887D01*
X158063714Y-68701887D02*
X158254190Y-68654268D01*
X158254190Y-68654268D02*
X158397047Y-68654268D01*
X158397047Y-68654268D02*
X158587523Y-68701887D01*
X158587523Y-68701887D02*
X158682761Y-68749506D01*
X158682761Y-68749506D02*
X158778000Y-68844744D01*
X158778000Y-68844744D02*
X158825619Y-68987601D01*
X158825619Y-68987601D02*
X158825619Y-69225696D01*
X147458760Y-83608419D02*
X147649236Y-83608419D01*
X147649236Y-83608419D02*
X147744474Y-83656038D01*
X147744474Y-83656038D02*
X147839712Y-83751276D01*
X147839712Y-83751276D02*
X147887331Y-83941752D01*
X147887331Y-83941752D02*
X147887331Y-84275085D01*
X147887331Y-84275085D02*
X147839712Y-84465561D01*
X147839712Y-84465561D02*
X147744474Y-84560800D01*
X147744474Y-84560800D02*
X147649236Y-84608419D01*
X147649236Y-84608419D02*
X147458760Y-84608419D01*
X147458760Y-84608419D02*
X147363522Y-84560800D01*
X147363522Y-84560800D02*
X147268284Y-84465561D01*
X147268284Y-84465561D02*
X147220665Y-84275085D01*
X147220665Y-84275085D02*
X147220665Y-83941752D01*
X147220665Y-83941752D02*
X147268284Y-83751276D01*
X147268284Y-83751276D02*
X147363522Y-83656038D01*
X147363522Y-83656038D02*
X147458760Y-83608419D01*
X148649236Y-84084609D02*
X148315903Y-84084609D01*
X148315903Y-84608419D02*
X148315903Y-83608419D01*
X148315903Y-83608419D02*
X148792093Y-83608419D01*
X149506379Y-84084609D02*
X149173046Y-84084609D01*
X149173046Y-84608419D02*
X149173046Y-83608419D01*
X149173046Y-83608419D02*
X149649236Y-83608419D01*
D11*
X130286933Y-111501366D02*
X130253600Y-111534700D01*
X130253600Y-111534700D02*
X130153600Y-111568033D01*
X130153600Y-111568033D02*
X130086933Y-111568033D01*
X130086933Y-111568033D02*
X129986933Y-111534700D01*
X129986933Y-111534700D02*
X129920267Y-111468033D01*
X129920267Y-111468033D02*
X129886933Y-111401366D01*
X129886933Y-111401366D02*
X129853600Y-111268033D01*
X129853600Y-111268033D02*
X129853600Y-111168033D01*
X129853600Y-111168033D02*
X129886933Y-111034700D01*
X129886933Y-111034700D02*
X129920267Y-110968033D01*
X129920267Y-110968033D02*
X129986933Y-110901366D01*
X129986933Y-110901366D02*
X130086933Y-110868033D01*
X130086933Y-110868033D02*
X130153600Y-110868033D01*
X130153600Y-110868033D02*
X130253600Y-110901366D01*
X130253600Y-110901366D02*
X130286933Y-110934700D01*
X130520267Y-110868033D02*
X130953600Y-110868033D01*
X130953600Y-110868033D02*
X130720267Y-111134700D01*
X130720267Y-111134700D02*
X130820267Y-111134700D01*
X130820267Y-111134700D02*
X130886933Y-111168033D01*
X130886933Y-111168033D02*
X130920267Y-111201366D01*
X130920267Y-111201366D02*
X130953600Y-111268033D01*
X130953600Y-111268033D02*
X130953600Y-111434700D01*
X130953600Y-111434700D02*
X130920267Y-111501366D01*
X130920267Y-111501366D02*
X130886933Y-111534700D01*
X130886933Y-111534700D02*
X130820267Y-111568033D01*
X130820267Y-111568033D02*
X130620267Y-111568033D01*
X130620267Y-111568033D02*
X130553600Y-111534700D01*
X130553600Y-111534700D02*
X130520267Y-111501366D01*
X133829617Y-111568033D02*
X133429617Y-111568033D01*
X133629617Y-111568033D02*
X133629617Y-110868033D01*
X133629617Y-110868033D02*
X133562950Y-110968033D01*
X133562950Y-110968033D02*
X133496284Y-111034700D01*
X133496284Y-111034700D02*
X133429617Y-111068033D01*
X134429617Y-111101366D02*
X134429617Y-111568033D01*
X134129617Y-111101366D02*
X134129617Y-111468033D01*
X134129617Y-111468033D02*
X134162951Y-111534700D01*
X134162951Y-111534700D02*
X134229617Y-111568033D01*
X134229617Y-111568033D02*
X134329617Y-111568033D01*
X134329617Y-111568033D02*
X134396284Y-111534700D01*
X134396284Y-111534700D02*
X134429617Y-111501366D01*
X144241866Y-72310833D02*
X144241866Y-72810833D01*
X144241866Y-72810833D02*
X144208533Y-72910833D01*
X144208533Y-72910833D02*
X144141866Y-72977500D01*
X144141866Y-72977500D02*
X144041866Y-73010833D01*
X144041866Y-73010833D02*
X143975200Y-73010833D01*
X144908533Y-72310833D02*
X144575199Y-72310833D01*
X144575199Y-72310833D02*
X144541866Y-72644166D01*
X144541866Y-72644166D02*
X144575199Y-72610833D01*
X144575199Y-72610833D02*
X144641866Y-72577500D01*
X144641866Y-72577500D02*
X144808533Y-72577500D01*
X144808533Y-72577500D02*
X144875199Y-72610833D01*
X144875199Y-72610833D02*
X144908533Y-72644166D01*
X144908533Y-72644166D02*
X144941866Y-72710833D01*
X144941866Y-72710833D02*
X144941866Y-72877500D01*
X144941866Y-72877500D02*
X144908533Y-72944166D01*
X144908533Y-72944166D02*
X144875199Y-72977500D01*
X144875199Y-72977500D02*
X144808533Y-73010833D01*
X144808533Y-73010833D02*
X144641866Y-73010833D01*
X144641866Y-73010833D02*
X144575199Y-72977500D01*
X144575199Y-72977500D02*
X144541866Y-72944166D01*
X158313466Y-73479233D02*
X158313466Y-73979233D01*
X158313466Y-73979233D02*
X158280133Y-74079233D01*
X158280133Y-74079233D02*
X158213466Y-74145900D01*
X158213466Y-74145900D02*
X158113466Y-74179233D01*
X158113466Y-74179233D02*
X158046800Y-74179233D01*
X159013466Y-74179233D02*
X158613466Y-74179233D01*
X158813466Y-74179233D02*
X158813466Y-73479233D01*
X158813466Y-73479233D02*
X158746799Y-73579233D01*
X158746799Y-73579233D02*
X158680133Y-73645900D01*
X158680133Y-73645900D02*
X158613466Y-73679233D01*
X134832266Y-98896533D02*
X134832266Y-99396533D01*
X134832266Y-99396533D02*
X134798933Y-99496533D01*
X134798933Y-99496533D02*
X134732266Y-99563200D01*
X134732266Y-99563200D02*
X134632266Y-99596533D01*
X134632266Y-99596533D02*
X134565600Y-99596533D01*
X135098933Y-98896533D02*
X135565599Y-98896533D01*
X135565599Y-98896533D02*
X135265599Y-99596533D01*
X130154935Y-88239766D02*
X130254935Y-88273100D01*
X130254935Y-88273100D02*
X130288268Y-88306433D01*
X130288268Y-88306433D02*
X130321601Y-88373100D01*
X130321601Y-88373100D02*
X130321601Y-88473100D01*
X130321601Y-88473100D02*
X130288268Y-88539766D01*
X130288268Y-88539766D02*
X130254935Y-88573100D01*
X130254935Y-88573100D02*
X130188268Y-88606433D01*
X130188268Y-88606433D02*
X129921601Y-88606433D01*
X129921601Y-88606433D02*
X129921601Y-87906433D01*
X129921601Y-87906433D02*
X130154935Y-87906433D01*
X130154935Y-87906433D02*
X130221601Y-87939766D01*
X130221601Y-87939766D02*
X130254935Y-87973100D01*
X130254935Y-87973100D02*
X130288268Y-88039766D01*
X130288268Y-88039766D02*
X130288268Y-88106433D01*
X130288268Y-88106433D02*
X130254935Y-88173100D01*
X130254935Y-88173100D02*
X130221601Y-88206433D01*
X130221601Y-88206433D02*
X130154935Y-88239766D01*
X130154935Y-88239766D02*
X129921601Y-88239766D01*
X130921601Y-88606433D02*
X130921601Y-88239766D01*
X130921601Y-88239766D02*
X130888268Y-88173100D01*
X130888268Y-88173100D02*
X130821601Y-88139766D01*
X130821601Y-88139766D02*
X130688268Y-88139766D01*
X130688268Y-88139766D02*
X130621601Y-88173100D01*
X130921601Y-88573100D02*
X130854935Y-88606433D01*
X130854935Y-88606433D02*
X130688268Y-88606433D01*
X130688268Y-88606433D02*
X130621601Y-88573100D01*
X130621601Y-88573100D02*
X130588268Y-88506433D01*
X130588268Y-88506433D02*
X130588268Y-88439766D01*
X130588268Y-88439766D02*
X130621601Y-88373100D01*
X130621601Y-88373100D02*
X130688268Y-88339766D01*
X130688268Y-88339766D02*
X130854935Y-88339766D01*
X130854935Y-88339766D02*
X130921601Y-88306433D01*
X131254934Y-88606433D02*
X131254934Y-88139766D01*
X131254934Y-88273100D02*
X131288268Y-88206433D01*
X131288268Y-88206433D02*
X131321601Y-88173100D01*
X131321601Y-88173100D02*
X131388268Y-88139766D01*
X131388268Y-88139766D02*
X131454934Y-88139766D01*
X131688267Y-88606433D02*
X131688267Y-88139766D01*
X131688267Y-88273100D02*
X131721601Y-88206433D01*
X131721601Y-88206433D02*
X131754934Y-88173100D01*
X131754934Y-88173100D02*
X131821601Y-88139766D01*
X131821601Y-88139766D02*
X131888267Y-88139766D01*
X132388267Y-88573100D02*
X132321600Y-88606433D01*
X132321600Y-88606433D02*
X132188267Y-88606433D01*
X132188267Y-88606433D02*
X132121600Y-88573100D01*
X132121600Y-88573100D02*
X132088267Y-88506433D01*
X132088267Y-88506433D02*
X132088267Y-88239766D01*
X132088267Y-88239766D02*
X132121600Y-88173100D01*
X132121600Y-88173100D02*
X132188267Y-88139766D01*
X132188267Y-88139766D02*
X132321600Y-88139766D01*
X132321600Y-88139766D02*
X132388267Y-88173100D01*
X132388267Y-88173100D02*
X132421600Y-88239766D01*
X132421600Y-88239766D02*
X132421600Y-88306433D01*
X132421600Y-88306433D02*
X132088267Y-88373100D01*
X132821600Y-88606433D02*
X132754934Y-88573100D01*
X132754934Y-88573100D02*
X132721600Y-88506433D01*
X132721600Y-88506433D02*
X132721600Y-87906433D01*
X132921601Y-88673100D02*
X133454934Y-88673100D01*
X133821600Y-87906433D02*
X133821600Y-88406433D01*
X133821600Y-88406433D02*
X133788267Y-88506433D01*
X133788267Y-88506433D02*
X133721600Y-88573100D01*
X133721600Y-88573100D02*
X133621600Y-88606433D01*
X133621600Y-88606433D02*
X133554934Y-88606433D01*
X134454933Y-88606433D02*
X134454933Y-88239766D01*
X134454933Y-88239766D02*
X134421600Y-88173100D01*
X134421600Y-88173100D02*
X134354933Y-88139766D01*
X134354933Y-88139766D02*
X134221600Y-88139766D01*
X134221600Y-88139766D02*
X134154933Y-88173100D01*
X134454933Y-88573100D02*
X134388267Y-88606433D01*
X134388267Y-88606433D02*
X134221600Y-88606433D01*
X134221600Y-88606433D02*
X134154933Y-88573100D01*
X134154933Y-88573100D02*
X134121600Y-88506433D01*
X134121600Y-88506433D02*
X134121600Y-88439766D01*
X134121600Y-88439766D02*
X134154933Y-88373100D01*
X134154933Y-88373100D02*
X134221600Y-88339766D01*
X134221600Y-88339766D02*
X134388267Y-88339766D01*
X134388267Y-88339766D02*
X134454933Y-88306433D01*
X135088266Y-88573100D02*
X135021600Y-88606433D01*
X135021600Y-88606433D02*
X134888266Y-88606433D01*
X134888266Y-88606433D02*
X134821600Y-88573100D01*
X134821600Y-88573100D02*
X134788266Y-88539766D01*
X134788266Y-88539766D02*
X134754933Y-88473100D01*
X134754933Y-88473100D02*
X134754933Y-88273100D01*
X134754933Y-88273100D02*
X134788266Y-88206433D01*
X134788266Y-88206433D02*
X134821600Y-88173100D01*
X134821600Y-88173100D02*
X134888266Y-88139766D01*
X134888266Y-88139766D02*
X135021600Y-88139766D01*
X135021600Y-88139766D02*
X135088266Y-88173100D01*
X135388266Y-88606433D02*
X135388266Y-87906433D01*
X135454933Y-88339766D02*
X135654933Y-88606433D01*
X135654933Y-88139766D02*
X135388266Y-88406433D01*
X135788267Y-88673100D02*
X136321600Y-88673100D01*
X136454933Y-88573100D02*
X136554933Y-88606433D01*
X136554933Y-88606433D02*
X136721600Y-88606433D01*
X136721600Y-88606433D02*
X136788266Y-88573100D01*
X136788266Y-88573100D02*
X136821600Y-88539766D01*
X136821600Y-88539766D02*
X136854933Y-88473100D01*
X136854933Y-88473100D02*
X136854933Y-88406433D01*
X136854933Y-88406433D02*
X136821600Y-88339766D01*
X136821600Y-88339766D02*
X136788266Y-88306433D01*
X136788266Y-88306433D02*
X136721600Y-88273100D01*
X136721600Y-88273100D02*
X136588266Y-88239766D01*
X136588266Y-88239766D02*
X136521600Y-88206433D01*
X136521600Y-88206433D02*
X136488266Y-88173100D01*
X136488266Y-88173100D02*
X136454933Y-88106433D01*
X136454933Y-88106433D02*
X136454933Y-88039766D01*
X136454933Y-88039766D02*
X136488266Y-87973100D01*
X136488266Y-87973100D02*
X136521600Y-87939766D01*
X136521600Y-87939766D02*
X136588266Y-87906433D01*
X136588266Y-87906433D02*
X136754933Y-87906433D01*
X136754933Y-87906433D02*
X136854933Y-87939766D01*
X137088267Y-88139766D02*
X137221600Y-88606433D01*
X137221600Y-88606433D02*
X137354933Y-88273100D01*
X137354933Y-88273100D02*
X137488267Y-88606433D01*
X137488267Y-88606433D02*
X137621600Y-88139766D01*
X137888266Y-88606433D02*
X137888266Y-88139766D01*
X137888266Y-87906433D02*
X137854933Y-87939766D01*
X137854933Y-87939766D02*
X137888266Y-87973100D01*
X137888266Y-87973100D02*
X137921600Y-87939766D01*
X137921600Y-87939766D02*
X137888266Y-87906433D01*
X137888266Y-87906433D02*
X137888266Y-87973100D01*
X138121599Y-88139766D02*
X138388266Y-88139766D01*
X138221599Y-87906433D02*
X138221599Y-88506433D01*
X138221599Y-88506433D02*
X138254933Y-88573100D01*
X138254933Y-88573100D02*
X138321599Y-88606433D01*
X138321599Y-88606433D02*
X138388266Y-88606433D01*
X138921599Y-88573100D02*
X138854933Y-88606433D01*
X138854933Y-88606433D02*
X138721599Y-88606433D01*
X138721599Y-88606433D02*
X138654933Y-88573100D01*
X138654933Y-88573100D02*
X138621599Y-88539766D01*
X138621599Y-88539766D02*
X138588266Y-88473100D01*
X138588266Y-88473100D02*
X138588266Y-88273100D01*
X138588266Y-88273100D02*
X138621599Y-88206433D01*
X138621599Y-88206433D02*
X138654933Y-88173100D01*
X138654933Y-88173100D02*
X138721599Y-88139766D01*
X138721599Y-88139766D02*
X138854933Y-88139766D01*
X138854933Y-88139766D02*
X138921599Y-88173100D01*
X139221599Y-88606433D02*
X139221599Y-87906433D01*
X139521599Y-88606433D02*
X139521599Y-88239766D01*
X139521599Y-88239766D02*
X139488266Y-88173100D01*
X139488266Y-88173100D02*
X139421599Y-88139766D01*
X139421599Y-88139766D02*
X139321599Y-88139766D01*
X139321599Y-88139766D02*
X139254933Y-88173100D01*
X139254933Y-88173100D02*
X139221599Y-88206433D01*
X136433733Y-77719366D02*
X136400400Y-77752700D01*
X136400400Y-77752700D02*
X136300400Y-77786033D01*
X136300400Y-77786033D02*
X136233733Y-77786033D01*
X136233733Y-77786033D02*
X136133733Y-77752700D01*
X136133733Y-77752700D02*
X136067067Y-77686033D01*
X136067067Y-77686033D02*
X136033733Y-77619366D01*
X136033733Y-77619366D02*
X136000400Y-77486033D01*
X136000400Y-77486033D02*
X136000400Y-77386033D01*
X136000400Y-77386033D02*
X136033733Y-77252700D01*
X136033733Y-77252700D02*
X136067067Y-77186033D01*
X136067067Y-77186033D02*
X136133733Y-77119366D01*
X136133733Y-77119366D02*
X136233733Y-77086033D01*
X136233733Y-77086033D02*
X136300400Y-77086033D01*
X136300400Y-77086033D02*
X136400400Y-77119366D01*
X136400400Y-77119366D02*
X136433733Y-77152700D01*
X137100400Y-77786033D02*
X136700400Y-77786033D01*
X136900400Y-77786033D02*
X136900400Y-77086033D01*
X136900400Y-77086033D02*
X136833733Y-77186033D01*
X136833733Y-77186033D02*
X136767067Y-77252700D01*
X136767067Y-77252700D02*
X136700400Y-77286033D01*
X138792800Y-77938433D02*
X138392800Y-77938433D01*
X138592800Y-77938433D02*
X138592800Y-77238433D01*
X138592800Y-77238433D02*
X138526133Y-77338433D01*
X138526133Y-77338433D02*
X138459467Y-77405100D01*
X138459467Y-77405100D02*
X138392800Y-77438433D01*
X139226134Y-77238433D02*
X139292800Y-77238433D01*
X139292800Y-77238433D02*
X139359467Y-77271766D01*
X139359467Y-77271766D02*
X139392800Y-77305100D01*
X139392800Y-77305100D02*
X139426134Y-77371766D01*
X139426134Y-77371766D02*
X139459467Y-77505100D01*
X139459467Y-77505100D02*
X139459467Y-77671766D01*
X139459467Y-77671766D02*
X139426134Y-77805100D01*
X139426134Y-77805100D02*
X139392800Y-77871766D01*
X139392800Y-77871766D02*
X139359467Y-77905100D01*
X139359467Y-77905100D02*
X139292800Y-77938433D01*
X139292800Y-77938433D02*
X139226134Y-77938433D01*
X139226134Y-77938433D02*
X139159467Y-77905100D01*
X139159467Y-77905100D02*
X139126134Y-77871766D01*
X139126134Y-77871766D02*
X139092800Y-77805100D01*
X139092800Y-77805100D02*
X139059467Y-77671766D01*
X139059467Y-77671766D02*
X139059467Y-77505100D01*
X139059467Y-77505100D02*
X139092800Y-77371766D01*
X139092800Y-77371766D02*
X139126134Y-77305100D01*
X139126134Y-77305100D02*
X139159467Y-77271766D01*
X139159467Y-77271766D02*
X139226134Y-77238433D01*
X140059467Y-77471766D02*
X140059467Y-77938433D01*
X139759467Y-77471766D02*
X139759467Y-77838433D01*
X139759467Y-77838433D02*
X139792801Y-77905100D01*
X139792801Y-77905100D02*
X139859467Y-77938433D01*
X139859467Y-77938433D02*
X139959467Y-77938433D01*
X139959467Y-77938433D02*
X140026134Y-77905100D01*
X140026134Y-77905100D02*
X140059467Y-77871766D01*
X158211866Y-119554833D02*
X158211866Y-120054833D01*
X158211866Y-120054833D02*
X158178533Y-120154833D01*
X158178533Y-120154833D02*
X158111866Y-120221500D01*
X158111866Y-120221500D02*
X158011866Y-120254833D01*
X158011866Y-120254833D02*
X157945200Y-120254833D01*
X158511866Y-119621500D02*
X158545199Y-119588166D01*
X158545199Y-119588166D02*
X158611866Y-119554833D01*
X158611866Y-119554833D02*
X158778533Y-119554833D01*
X158778533Y-119554833D02*
X158845199Y-119588166D01*
X158845199Y-119588166D02*
X158878533Y-119621500D01*
X158878533Y-119621500D02*
X158911866Y-119688166D01*
X158911866Y-119688166D02*
X158911866Y-119754833D01*
X158911866Y-119754833D02*
X158878533Y-119854833D01*
X158878533Y-119854833D02*
X158478533Y-120254833D01*
X158478533Y-120254833D02*
X158911866Y-120254833D01*
X131556933Y-77770166D02*
X131523600Y-77803500D01*
X131523600Y-77803500D02*
X131423600Y-77836833D01*
X131423600Y-77836833D02*
X131356933Y-77836833D01*
X131356933Y-77836833D02*
X131256933Y-77803500D01*
X131256933Y-77803500D02*
X131190267Y-77736833D01*
X131190267Y-77736833D02*
X131156933Y-77670166D01*
X131156933Y-77670166D02*
X131123600Y-77536833D01*
X131123600Y-77536833D02*
X131123600Y-77436833D01*
X131123600Y-77436833D02*
X131156933Y-77303500D01*
X131156933Y-77303500D02*
X131190267Y-77236833D01*
X131190267Y-77236833D02*
X131256933Y-77170166D01*
X131256933Y-77170166D02*
X131356933Y-77136833D01*
X131356933Y-77136833D02*
X131423600Y-77136833D01*
X131423600Y-77136833D02*
X131523600Y-77170166D01*
X131523600Y-77170166D02*
X131556933Y-77203500D01*
X131823600Y-77203500D02*
X131856933Y-77170166D01*
X131856933Y-77170166D02*
X131923600Y-77136833D01*
X131923600Y-77136833D02*
X132090267Y-77136833D01*
X132090267Y-77136833D02*
X132156933Y-77170166D01*
X132156933Y-77170166D02*
X132190267Y-77203500D01*
X132190267Y-77203500D02*
X132223600Y-77270166D01*
X132223600Y-77270166D02*
X132223600Y-77336833D01*
X132223600Y-77336833D02*
X132190267Y-77436833D01*
X132190267Y-77436833D02*
X131790267Y-77836833D01*
X131790267Y-77836833D02*
X132223600Y-77836833D01*
X133279267Y-77187633D02*
X133345933Y-77187633D01*
X133345933Y-77187633D02*
X133412600Y-77220966D01*
X133412600Y-77220966D02*
X133445933Y-77254300D01*
X133445933Y-77254300D02*
X133479267Y-77320966D01*
X133479267Y-77320966D02*
X133512600Y-77454300D01*
X133512600Y-77454300D02*
X133512600Y-77620966D01*
X133512600Y-77620966D02*
X133479267Y-77754300D01*
X133479267Y-77754300D02*
X133445933Y-77820966D01*
X133445933Y-77820966D02*
X133412600Y-77854300D01*
X133412600Y-77854300D02*
X133345933Y-77887633D01*
X133345933Y-77887633D02*
X133279267Y-77887633D01*
X133279267Y-77887633D02*
X133212600Y-77854300D01*
X133212600Y-77854300D02*
X133179267Y-77820966D01*
X133179267Y-77820966D02*
X133145933Y-77754300D01*
X133145933Y-77754300D02*
X133112600Y-77620966D01*
X133112600Y-77620966D02*
X133112600Y-77454300D01*
X133112600Y-77454300D02*
X133145933Y-77320966D01*
X133145933Y-77320966D02*
X133179267Y-77254300D01*
X133179267Y-77254300D02*
X133212600Y-77220966D01*
X133212600Y-77220966D02*
X133279267Y-77187633D01*
X134112600Y-77420966D02*
X134112600Y-77887633D01*
X133812600Y-77420966D02*
X133812600Y-77787633D01*
X133812600Y-77787633D02*
X133845934Y-77854300D01*
X133845934Y-77854300D02*
X133912600Y-77887633D01*
X133912600Y-77887633D02*
X134012600Y-77887633D01*
X134012600Y-77887633D02*
X134079267Y-77854300D01*
X134079267Y-77854300D02*
X134112600Y-77820966D01*
X134812600Y-77887633D02*
X134412600Y-77887633D01*
X134612600Y-77887633D02*
X134612600Y-77187633D01*
X134612600Y-77187633D02*
X134545933Y-77287633D01*
X134545933Y-77287633D02*
X134479267Y-77354300D01*
X134479267Y-77354300D02*
X134412600Y-77387633D01*
X144140266Y-114322433D02*
X144140266Y-114822433D01*
X144140266Y-114822433D02*
X144106933Y-114922433D01*
X144106933Y-114922433D02*
X144040266Y-114989100D01*
X144040266Y-114989100D02*
X143940266Y-115022433D01*
X143940266Y-115022433D02*
X143873600Y-115022433D01*
X144773599Y-114322433D02*
X144640266Y-114322433D01*
X144640266Y-114322433D02*
X144573599Y-114355766D01*
X144573599Y-114355766D02*
X144540266Y-114389100D01*
X144540266Y-114389100D02*
X144473599Y-114489100D01*
X144473599Y-114489100D02*
X144440266Y-114622433D01*
X144440266Y-114622433D02*
X144440266Y-114889100D01*
X144440266Y-114889100D02*
X144473599Y-114955766D01*
X144473599Y-114955766D02*
X144506933Y-114989100D01*
X144506933Y-114989100D02*
X144573599Y-115022433D01*
X144573599Y-115022433D02*
X144706933Y-115022433D01*
X144706933Y-115022433D02*
X144773599Y-114989100D01*
X144773599Y-114989100D02*
X144806933Y-114955766D01*
X144806933Y-114955766D02*
X144840266Y-114889100D01*
X144840266Y-114889100D02*
X144840266Y-114722433D01*
X144840266Y-114722433D02*
X144806933Y-114655766D01*
X144806933Y-114655766D02*
X144773599Y-114622433D01*
X144773599Y-114622433D02*
X144706933Y-114589100D01*
X144706933Y-114589100D02*
X144573599Y-114589100D01*
X144573599Y-114589100D02*
X144506933Y-114622433D01*
X144506933Y-114622433D02*
X144473599Y-114655766D01*
X144473599Y-114655766D02*
X144440266Y-114722433D01*
X153915333Y-97801233D02*
X153915333Y-97101233D01*
X153915333Y-97101233D02*
X154082000Y-97101233D01*
X154082000Y-97101233D02*
X154182000Y-97134566D01*
X154182000Y-97134566D02*
X154248667Y-97201233D01*
X154248667Y-97201233D02*
X154282000Y-97267900D01*
X154282000Y-97267900D02*
X154315333Y-97401233D01*
X154315333Y-97401233D02*
X154315333Y-97501233D01*
X154315333Y-97501233D02*
X154282000Y-97634566D01*
X154282000Y-97634566D02*
X154248667Y-97701233D01*
X154248667Y-97701233D02*
X154182000Y-97767900D01*
X154182000Y-97767900D02*
X154082000Y-97801233D01*
X154082000Y-97801233D02*
X153915333Y-97801233D01*
X154982000Y-97801233D02*
X154582000Y-97801233D01*
X154782000Y-97801233D02*
X154782000Y-97101233D01*
X154782000Y-97101233D02*
X154715333Y-97201233D01*
X154715333Y-97201233D02*
X154648667Y-97267900D01*
X154648667Y-97267900D02*
X154582000Y-97301233D01*
X149156000Y-97699633D02*
X148822666Y-97699633D01*
X148822666Y-97699633D02*
X148822666Y-96999633D01*
X149389333Y-97332966D02*
X149622667Y-97332966D01*
X149722667Y-97699633D02*
X149389333Y-97699633D01*
X149389333Y-97699633D02*
X149389333Y-96999633D01*
X149389333Y-96999633D02*
X149722667Y-96999633D01*
X150022666Y-97699633D02*
X150022666Y-96999633D01*
X150022666Y-96999633D02*
X150189333Y-96999633D01*
X150189333Y-96999633D02*
X150289333Y-97032966D01*
X150289333Y-97032966D02*
X150356000Y-97099633D01*
X150356000Y-97099633D02*
X150389333Y-97166300D01*
X150389333Y-97166300D02*
X150422666Y-97299633D01*
X150422666Y-97299633D02*
X150422666Y-97399633D01*
X150422666Y-97399633D02*
X150389333Y-97532966D01*
X150389333Y-97532966D02*
X150356000Y-97599633D01*
X150356000Y-97599633D02*
X150289333Y-97666300D01*
X150289333Y-97666300D02*
X150189333Y-97699633D01*
X150189333Y-97699633D02*
X150022666Y-97699633D01*
X154518533Y-102017633D02*
X154285200Y-101684300D01*
X154118533Y-102017633D02*
X154118533Y-101317633D01*
X154118533Y-101317633D02*
X154385200Y-101317633D01*
X154385200Y-101317633D02*
X154451867Y-101350966D01*
X154451867Y-101350966D02*
X154485200Y-101384300D01*
X154485200Y-101384300D02*
X154518533Y-101450966D01*
X154518533Y-101450966D02*
X154518533Y-101550966D01*
X154518533Y-101550966D02*
X154485200Y-101617633D01*
X154485200Y-101617633D02*
X154451867Y-101650966D01*
X154451867Y-101650966D02*
X154385200Y-101684300D01*
X154385200Y-101684300D02*
X154118533Y-101684300D01*
X154785200Y-101384300D02*
X154818533Y-101350966D01*
X154818533Y-101350966D02*
X154885200Y-101317633D01*
X154885200Y-101317633D02*
X155051867Y-101317633D01*
X155051867Y-101317633D02*
X155118533Y-101350966D01*
X155118533Y-101350966D02*
X155151867Y-101384300D01*
X155151867Y-101384300D02*
X155185200Y-101450966D01*
X155185200Y-101450966D02*
X155185200Y-101517633D01*
X155185200Y-101517633D02*
X155151867Y-101617633D01*
X155151867Y-101617633D02*
X154751867Y-102017633D01*
X154751867Y-102017633D02*
X155185200Y-102017633D01*
X146350284Y-101216033D02*
X146783617Y-101216033D01*
X146783617Y-101216033D02*
X146550284Y-101482700D01*
X146550284Y-101482700D02*
X146650284Y-101482700D01*
X146650284Y-101482700D02*
X146716950Y-101516033D01*
X146716950Y-101516033D02*
X146750284Y-101549366D01*
X146750284Y-101549366D02*
X146783617Y-101616033D01*
X146783617Y-101616033D02*
X146783617Y-101782700D01*
X146783617Y-101782700D02*
X146750284Y-101849366D01*
X146750284Y-101849366D02*
X146716950Y-101882700D01*
X146716950Y-101882700D02*
X146650284Y-101916033D01*
X146650284Y-101916033D02*
X146450284Y-101916033D01*
X146450284Y-101916033D02*
X146383617Y-101882700D01*
X146383617Y-101882700D02*
X146350284Y-101849366D01*
X147016951Y-101216033D02*
X147450284Y-101216033D01*
X147450284Y-101216033D02*
X147216951Y-101482700D01*
X147216951Y-101482700D02*
X147316951Y-101482700D01*
X147316951Y-101482700D02*
X147383617Y-101516033D01*
X147383617Y-101516033D02*
X147416951Y-101549366D01*
X147416951Y-101549366D02*
X147450284Y-101616033D01*
X147450284Y-101616033D02*
X147450284Y-101782700D01*
X147450284Y-101782700D02*
X147416951Y-101849366D01*
X147416951Y-101849366D02*
X147383617Y-101882700D01*
X147383617Y-101882700D02*
X147316951Y-101916033D01*
X147316951Y-101916033D02*
X147116951Y-101916033D01*
X147116951Y-101916033D02*
X147050284Y-101882700D01*
X147050284Y-101882700D02*
X147016951Y-101849366D01*
X147883618Y-101216033D02*
X147950284Y-101216033D01*
X147950284Y-101216033D02*
X148016951Y-101249366D01*
X148016951Y-101249366D02*
X148050284Y-101282700D01*
X148050284Y-101282700D02*
X148083618Y-101349366D01*
X148083618Y-101349366D02*
X148116951Y-101482700D01*
X148116951Y-101482700D02*
X148116951Y-101649366D01*
X148116951Y-101649366D02*
X148083618Y-101782700D01*
X148083618Y-101782700D02*
X148050284Y-101849366D01*
X148050284Y-101849366D02*
X148016951Y-101882700D01*
X148016951Y-101882700D02*
X147950284Y-101916033D01*
X147950284Y-101916033D02*
X147883618Y-101916033D01*
X147883618Y-101916033D02*
X147816951Y-101882700D01*
X147816951Y-101882700D02*
X147783618Y-101849366D01*
X147783618Y-101849366D02*
X147750284Y-101782700D01*
X147750284Y-101782700D02*
X147716951Y-101649366D01*
X147716951Y-101649366D02*
X147716951Y-101482700D01*
X147716951Y-101482700D02*
X147750284Y-101349366D01*
X147750284Y-101349366D02*
X147783618Y-101282700D01*
X147783618Y-101282700D02*
X147816951Y-101249366D01*
X147816951Y-101249366D02*
X147883618Y-101216033D01*
X154467733Y-108977233D02*
X154234400Y-108643900D01*
X154067733Y-108977233D02*
X154067733Y-108277233D01*
X154067733Y-108277233D02*
X154334400Y-108277233D01*
X154334400Y-108277233D02*
X154401067Y-108310566D01*
X154401067Y-108310566D02*
X154434400Y-108343900D01*
X154434400Y-108343900D02*
X154467733Y-108410566D01*
X154467733Y-108410566D02*
X154467733Y-108510566D01*
X154467733Y-108510566D02*
X154434400Y-108577233D01*
X154434400Y-108577233D02*
X154401067Y-108610566D01*
X154401067Y-108610566D02*
X154334400Y-108643900D01*
X154334400Y-108643900D02*
X154067733Y-108643900D01*
X154701067Y-108277233D02*
X155134400Y-108277233D01*
X155134400Y-108277233D02*
X154901067Y-108543900D01*
X154901067Y-108543900D02*
X155001067Y-108543900D01*
X155001067Y-108543900D02*
X155067733Y-108577233D01*
X155067733Y-108577233D02*
X155101067Y-108610566D01*
X155101067Y-108610566D02*
X155134400Y-108677233D01*
X155134400Y-108677233D02*
X155134400Y-108843900D01*
X155134400Y-108843900D02*
X155101067Y-108910566D01*
X155101067Y-108910566D02*
X155067733Y-108943900D01*
X155067733Y-108943900D02*
X155001067Y-108977233D01*
X155001067Y-108977233D02*
X154801067Y-108977233D01*
X154801067Y-108977233D02*
X154734400Y-108943900D01*
X154734400Y-108943900D02*
X154701067Y-108910566D01*
X146750284Y-108216033D02*
X146416950Y-108216033D01*
X146416950Y-108216033D02*
X146383617Y-108549366D01*
X146383617Y-108549366D02*
X146416950Y-108516033D01*
X146416950Y-108516033D02*
X146483617Y-108482700D01*
X146483617Y-108482700D02*
X146650284Y-108482700D01*
X146650284Y-108482700D02*
X146716950Y-108516033D01*
X146716950Y-108516033D02*
X146750284Y-108549366D01*
X146750284Y-108549366D02*
X146783617Y-108616033D01*
X146783617Y-108616033D02*
X146783617Y-108782700D01*
X146783617Y-108782700D02*
X146750284Y-108849366D01*
X146750284Y-108849366D02*
X146716950Y-108882700D01*
X146716950Y-108882700D02*
X146650284Y-108916033D01*
X146650284Y-108916033D02*
X146483617Y-108916033D01*
X146483617Y-108916033D02*
X146416950Y-108882700D01*
X146416950Y-108882700D02*
X146383617Y-108849366D01*
X147383617Y-108216033D02*
X147250284Y-108216033D01*
X147250284Y-108216033D02*
X147183617Y-108249366D01*
X147183617Y-108249366D02*
X147150284Y-108282700D01*
X147150284Y-108282700D02*
X147083617Y-108382700D01*
X147083617Y-108382700D02*
X147050284Y-108516033D01*
X147050284Y-108516033D02*
X147050284Y-108782700D01*
X147050284Y-108782700D02*
X147083617Y-108849366D01*
X147083617Y-108849366D02*
X147116951Y-108882700D01*
X147116951Y-108882700D02*
X147183617Y-108916033D01*
X147183617Y-108916033D02*
X147316951Y-108916033D01*
X147316951Y-108916033D02*
X147383617Y-108882700D01*
X147383617Y-108882700D02*
X147416951Y-108849366D01*
X147416951Y-108849366D02*
X147450284Y-108782700D01*
X147450284Y-108782700D02*
X147450284Y-108616033D01*
X147450284Y-108616033D02*
X147416951Y-108549366D01*
X147416951Y-108549366D02*
X147383617Y-108516033D01*
X147383617Y-108516033D02*
X147316951Y-108482700D01*
X147316951Y-108482700D02*
X147183617Y-108482700D01*
X147183617Y-108482700D02*
X147116951Y-108516033D01*
X147116951Y-108516033D02*
X147083617Y-108549366D01*
X147083617Y-108549366D02*
X147050284Y-108616033D01*
X147883618Y-108216033D02*
X147950284Y-108216033D01*
X147950284Y-108216033D02*
X148016951Y-108249366D01*
X148016951Y-108249366D02*
X148050284Y-108282700D01*
X148050284Y-108282700D02*
X148083618Y-108349366D01*
X148083618Y-108349366D02*
X148116951Y-108482700D01*
X148116951Y-108482700D02*
X148116951Y-108649366D01*
X148116951Y-108649366D02*
X148083618Y-108782700D01*
X148083618Y-108782700D02*
X148050284Y-108849366D01*
X148050284Y-108849366D02*
X148016951Y-108882700D01*
X148016951Y-108882700D02*
X147950284Y-108916033D01*
X147950284Y-108916033D02*
X147883618Y-108916033D01*
X147883618Y-108916033D02*
X147816951Y-108882700D01*
X147816951Y-108882700D02*
X147783618Y-108849366D01*
X147783618Y-108849366D02*
X147750284Y-108782700D01*
X147750284Y-108782700D02*
X147716951Y-108649366D01*
X147716951Y-108649366D02*
X147716951Y-108482700D01*
X147716951Y-108482700D02*
X147750284Y-108349366D01*
X147750284Y-108349366D02*
X147783618Y-108282700D01*
X147783618Y-108282700D02*
X147816951Y-108249366D01*
X147816951Y-108249366D02*
X147883618Y-108216033D01*
X130479866Y-115751100D02*
X130579866Y-115784433D01*
X130579866Y-115784433D02*
X130746533Y-115784433D01*
X130746533Y-115784433D02*
X130813199Y-115751100D01*
X130813199Y-115751100D02*
X130846533Y-115717766D01*
X130846533Y-115717766D02*
X130879866Y-115651100D01*
X130879866Y-115651100D02*
X130879866Y-115584433D01*
X130879866Y-115584433D02*
X130846533Y-115517766D01*
X130846533Y-115517766D02*
X130813199Y-115484433D01*
X130813199Y-115484433D02*
X130746533Y-115451100D01*
X130746533Y-115451100D02*
X130613199Y-115417766D01*
X130613199Y-115417766D02*
X130546533Y-115384433D01*
X130546533Y-115384433D02*
X130513199Y-115351100D01*
X130513199Y-115351100D02*
X130479866Y-115284433D01*
X130479866Y-115284433D02*
X130479866Y-115217766D01*
X130479866Y-115217766D02*
X130513199Y-115151100D01*
X130513199Y-115151100D02*
X130546533Y-115117766D01*
X130546533Y-115117766D02*
X130613199Y-115084433D01*
X130613199Y-115084433D02*
X130779866Y-115084433D01*
X130779866Y-115084433D02*
X130879866Y-115117766D01*
X131146533Y-115151100D02*
X131179866Y-115117766D01*
X131179866Y-115117766D02*
X131246533Y-115084433D01*
X131246533Y-115084433D02*
X131413200Y-115084433D01*
X131413200Y-115084433D02*
X131479866Y-115117766D01*
X131479866Y-115117766D02*
X131513200Y-115151100D01*
X131513200Y-115151100D02*
X131546533Y-115217766D01*
X131546533Y-115217766D02*
X131546533Y-115284433D01*
X131546533Y-115284433D02*
X131513200Y-115384433D01*
X131513200Y-115384433D02*
X131113200Y-115784433D01*
X131113200Y-115784433D02*
X131546533Y-115784433D01*
X141046266Y-74349100D02*
X141146266Y-74382433D01*
X141146266Y-74382433D02*
X141312933Y-74382433D01*
X141312933Y-74382433D02*
X141379599Y-74349100D01*
X141379599Y-74349100D02*
X141412933Y-74315766D01*
X141412933Y-74315766D02*
X141446266Y-74249100D01*
X141446266Y-74249100D02*
X141446266Y-74182433D01*
X141446266Y-74182433D02*
X141412933Y-74115766D01*
X141412933Y-74115766D02*
X141379599Y-74082433D01*
X141379599Y-74082433D02*
X141312933Y-74049100D01*
X141312933Y-74049100D02*
X141179599Y-74015766D01*
X141179599Y-74015766D02*
X141112933Y-73982433D01*
X141112933Y-73982433D02*
X141079599Y-73949100D01*
X141079599Y-73949100D02*
X141046266Y-73882433D01*
X141046266Y-73882433D02*
X141046266Y-73815766D01*
X141046266Y-73815766D02*
X141079599Y-73749100D01*
X141079599Y-73749100D02*
X141112933Y-73715766D01*
X141112933Y-73715766D02*
X141179599Y-73682433D01*
X141179599Y-73682433D02*
X141346266Y-73682433D01*
X141346266Y-73682433D02*
X141446266Y-73715766D01*
X142112933Y-74382433D02*
X141712933Y-74382433D01*
X141912933Y-74382433D02*
X141912933Y-73682433D01*
X141912933Y-73682433D02*
X141846266Y-73782433D01*
X141846266Y-73782433D02*
X141779600Y-73849100D01*
X141779600Y-73849100D02*
X141712933Y-73882433D01*
X140131866Y-84045633D02*
X140131866Y-84612300D01*
X140131866Y-84612300D02*
X140165200Y-84678966D01*
X140165200Y-84678966D02*
X140198533Y-84712300D01*
X140198533Y-84712300D02*
X140265200Y-84745633D01*
X140265200Y-84745633D02*
X140398533Y-84745633D01*
X140398533Y-84745633D02*
X140465200Y-84712300D01*
X140465200Y-84712300D02*
X140498533Y-84678966D01*
X140498533Y-84678966D02*
X140531866Y-84612300D01*
X140531866Y-84612300D02*
X140531866Y-84045633D01*
X141231866Y-84745633D02*
X140831866Y-84745633D01*
X141031866Y-84745633D02*
X141031866Y-84045633D01*
X141031866Y-84045633D02*
X140965199Y-84145633D01*
X140965199Y-84145633D02*
X140898533Y-84212300D01*
X140898533Y-84212300D02*
X140831866Y-84245633D01*
X129984133Y-81799233D02*
X129650799Y-81799233D01*
X129650799Y-81799233D02*
X129650799Y-81099233D01*
X130217466Y-81799233D02*
X130217466Y-81099233D01*
X130217466Y-81099233D02*
X130450800Y-81599233D01*
X130450800Y-81599233D02*
X130684133Y-81099233D01*
X130684133Y-81099233D02*
X130684133Y-81799233D01*
X130950800Y-81099233D02*
X131417466Y-81099233D01*
X131417466Y-81099233D02*
X131117466Y-81799233D01*
X131784133Y-81399233D02*
X131717467Y-81365900D01*
X131717467Y-81365900D02*
X131684133Y-81332566D01*
X131684133Y-81332566D02*
X131650800Y-81265900D01*
X131650800Y-81265900D02*
X131650800Y-81232566D01*
X131650800Y-81232566D02*
X131684133Y-81165900D01*
X131684133Y-81165900D02*
X131717467Y-81132566D01*
X131717467Y-81132566D02*
X131784133Y-81099233D01*
X131784133Y-81099233D02*
X131917467Y-81099233D01*
X131917467Y-81099233D02*
X131984133Y-81132566D01*
X131984133Y-81132566D02*
X132017467Y-81165900D01*
X132017467Y-81165900D02*
X132050800Y-81232566D01*
X132050800Y-81232566D02*
X132050800Y-81265900D01*
X132050800Y-81265900D02*
X132017467Y-81332566D01*
X132017467Y-81332566D02*
X131984133Y-81365900D01*
X131984133Y-81365900D02*
X131917467Y-81399233D01*
X131917467Y-81399233D02*
X131784133Y-81399233D01*
X131784133Y-81399233D02*
X131717467Y-81432566D01*
X131717467Y-81432566D02*
X131684133Y-81465900D01*
X131684133Y-81465900D02*
X131650800Y-81532566D01*
X131650800Y-81532566D02*
X131650800Y-81665900D01*
X131650800Y-81665900D02*
X131684133Y-81732566D01*
X131684133Y-81732566D02*
X131717467Y-81765900D01*
X131717467Y-81765900D02*
X131784133Y-81799233D01*
X131784133Y-81799233D02*
X131917467Y-81799233D01*
X131917467Y-81799233D02*
X131984133Y-81765900D01*
X131984133Y-81765900D02*
X132017467Y-81732566D01*
X132017467Y-81732566D02*
X132050800Y-81665900D01*
X132050800Y-81665900D02*
X132050800Y-81532566D01*
X132050800Y-81532566D02*
X132017467Y-81465900D01*
X132017467Y-81465900D02*
X131984133Y-81432566D01*
X131984133Y-81432566D02*
X131917467Y-81399233D01*
X132484134Y-81099233D02*
X132550800Y-81099233D01*
X132550800Y-81099233D02*
X132617467Y-81132566D01*
X132617467Y-81132566D02*
X132650800Y-81165900D01*
X132650800Y-81165900D02*
X132684134Y-81232566D01*
X132684134Y-81232566D02*
X132717467Y-81365900D01*
X132717467Y-81365900D02*
X132717467Y-81532566D01*
X132717467Y-81532566D02*
X132684134Y-81665900D01*
X132684134Y-81665900D02*
X132650800Y-81732566D01*
X132650800Y-81732566D02*
X132617467Y-81765900D01*
X132617467Y-81765900D02*
X132550800Y-81799233D01*
X132550800Y-81799233D02*
X132484134Y-81799233D01*
X132484134Y-81799233D02*
X132417467Y-81765900D01*
X132417467Y-81765900D02*
X132384134Y-81732566D01*
X132384134Y-81732566D02*
X132350800Y-81665900D01*
X132350800Y-81665900D02*
X132317467Y-81532566D01*
X132317467Y-81532566D02*
X132317467Y-81365900D01*
X132317467Y-81365900D02*
X132350800Y-81232566D01*
X132350800Y-81232566D02*
X132384134Y-81165900D01*
X132384134Y-81165900D02*
X132417467Y-81132566D01*
X132417467Y-81132566D02*
X132484134Y-81099233D01*
X133350801Y-81099233D02*
X133017467Y-81099233D01*
X133017467Y-81099233D02*
X132984134Y-81432566D01*
X132984134Y-81432566D02*
X133017467Y-81399233D01*
X133017467Y-81399233D02*
X133084134Y-81365900D01*
X133084134Y-81365900D02*
X133250801Y-81365900D01*
X133250801Y-81365900D02*
X133317467Y-81399233D01*
X133317467Y-81399233D02*
X133350801Y-81432566D01*
X133350801Y-81432566D02*
X133384134Y-81499233D01*
X133384134Y-81499233D02*
X133384134Y-81665900D01*
X133384134Y-81665900D02*
X133350801Y-81732566D01*
X133350801Y-81732566D02*
X133317467Y-81765900D01*
X133317467Y-81765900D02*
X133250801Y-81799233D01*
X133250801Y-81799233D02*
X133084134Y-81799233D01*
X133084134Y-81799233D02*
X133017467Y-81765900D01*
X133017467Y-81765900D02*
X132984134Y-81732566D01*
X133517468Y-81865900D02*
X134050801Y-81865900D01*
X134117467Y-81099233D02*
X134517467Y-81099233D01*
X134317467Y-81799233D02*
X134317467Y-81099233D01*
X134884134Y-81099233D02*
X135017467Y-81099233D01*
X135017467Y-81099233D02*
X135084134Y-81132566D01*
X135084134Y-81132566D02*
X135150800Y-81199233D01*
X135150800Y-81199233D02*
X135184134Y-81332566D01*
X135184134Y-81332566D02*
X135184134Y-81565900D01*
X135184134Y-81565900D02*
X135150800Y-81699233D01*
X135150800Y-81699233D02*
X135084134Y-81765900D01*
X135084134Y-81765900D02*
X135017467Y-81799233D01*
X135017467Y-81799233D02*
X134884134Y-81799233D01*
X134884134Y-81799233D02*
X134817467Y-81765900D01*
X134817467Y-81765900D02*
X134750800Y-81699233D01*
X134750800Y-81699233D02*
X134717467Y-81565900D01*
X134717467Y-81565900D02*
X134717467Y-81332566D01*
X134717467Y-81332566D02*
X134750800Y-81199233D01*
X134750800Y-81199233D02*
X134817467Y-81132566D01*
X134817467Y-81132566D02*
X134884134Y-81099233D01*
X135450800Y-81165900D02*
X135484133Y-81132566D01*
X135484133Y-81132566D02*
X135550800Y-81099233D01*
X135550800Y-81099233D02*
X135717467Y-81099233D01*
X135717467Y-81099233D02*
X135784133Y-81132566D01*
X135784133Y-81132566D02*
X135817467Y-81165900D01*
X135817467Y-81165900D02*
X135850800Y-81232566D01*
X135850800Y-81232566D02*
X135850800Y-81299233D01*
X135850800Y-81299233D02*
X135817467Y-81399233D01*
X135817467Y-81399233D02*
X135417467Y-81799233D01*
X135417467Y-81799233D02*
X135850800Y-81799233D01*
X136117467Y-81165900D02*
X136150800Y-81132566D01*
X136150800Y-81132566D02*
X136217467Y-81099233D01*
X136217467Y-81099233D02*
X136384134Y-81099233D01*
X136384134Y-81099233D02*
X136450800Y-81132566D01*
X136450800Y-81132566D02*
X136484134Y-81165900D01*
X136484134Y-81165900D02*
X136517467Y-81232566D01*
X136517467Y-81232566D02*
X136517467Y-81299233D01*
X136517467Y-81299233D02*
X136484134Y-81399233D01*
X136484134Y-81399233D02*
X136084134Y-81799233D01*
X136084134Y-81799233D02*
X136517467Y-81799233D01*
X136950801Y-81099233D02*
X137017467Y-81099233D01*
X137017467Y-81099233D02*
X137084134Y-81132566D01*
X137084134Y-81132566D02*
X137117467Y-81165900D01*
X137117467Y-81165900D02*
X137150801Y-81232566D01*
X137150801Y-81232566D02*
X137184134Y-81365900D01*
X137184134Y-81365900D02*
X137184134Y-81532566D01*
X137184134Y-81532566D02*
X137150801Y-81665900D01*
X137150801Y-81665900D02*
X137117467Y-81732566D01*
X137117467Y-81732566D02*
X137084134Y-81765900D01*
X137084134Y-81765900D02*
X137017467Y-81799233D01*
X137017467Y-81799233D02*
X136950801Y-81799233D01*
X136950801Y-81799233D02*
X136884134Y-81765900D01*
X136884134Y-81765900D02*
X136850801Y-81732566D01*
X136850801Y-81732566D02*
X136817467Y-81665900D01*
X136817467Y-81665900D02*
X136784134Y-81532566D01*
X136784134Y-81532566D02*
X136784134Y-81365900D01*
X136784134Y-81365900D02*
X136817467Y-81232566D01*
X136817467Y-81232566D02*
X136850801Y-81165900D01*
X136850801Y-81165900D02*
X136884134Y-81132566D01*
X136884134Y-81132566D02*
X136950801Y-81099233D01*
X150044266Y-79276700D02*
X150144266Y-79310033D01*
X150144266Y-79310033D02*
X150310933Y-79310033D01*
X150310933Y-79310033D02*
X150377599Y-79276700D01*
X150377599Y-79276700D02*
X150410933Y-79243366D01*
X150410933Y-79243366D02*
X150444266Y-79176700D01*
X150444266Y-79176700D02*
X150444266Y-79110033D01*
X150444266Y-79110033D02*
X150410933Y-79043366D01*
X150410933Y-79043366D02*
X150377599Y-79010033D01*
X150377599Y-79010033D02*
X150310933Y-78976700D01*
X150310933Y-78976700D02*
X150177599Y-78943366D01*
X150177599Y-78943366D02*
X150110933Y-78910033D01*
X150110933Y-78910033D02*
X150077599Y-78876700D01*
X150077599Y-78876700D02*
X150044266Y-78810033D01*
X150044266Y-78810033D02*
X150044266Y-78743366D01*
X150044266Y-78743366D02*
X150077599Y-78676700D01*
X150077599Y-78676700D02*
X150110933Y-78643366D01*
X150110933Y-78643366D02*
X150177599Y-78610033D01*
X150177599Y-78610033D02*
X150344266Y-78610033D01*
X150344266Y-78610033D02*
X150444266Y-78643366D01*
X150677600Y-78610033D02*
X150844266Y-79310033D01*
X150844266Y-79310033D02*
X150977600Y-78810033D01*
X150977600Y-78810033D02*
X151110933Y-79310033D01*
X151110933Y-79310033D02*
X151277600Y-78610033D01*
X151910933Y-79310033D02*
X151510933Y-79310033D01*
X151710933Y-79310033D02*
X151710933Y-78610033D01*
X151710933Y-78610033D02*
X151644266Y-78710033D01*
X151644266Y-78710033D02*
X151577600Y-78776700D01*
X151577600Y-78776700D02*
X151510933Y-78810033D01*
X143230665Y-85779100D02*
X143330665Y-85812433D01*
X143330665Y-85812433D02*
X143497332Y-85812433D01*
X143497332Y-85812433D02*
X143563998Y-85779100D01*
X143563998Y-85779100D02*
X143597332Y-85745766D01*
X143597332Y-85745766D02*
X143630665Y-85679100D01*
X143630665Y-85679100D02*
X143630665Y-85612433D01*
X143630665Y-85612433D02*
X143597332Y-85545766D01*
X143597332Y-85545766D02*
X143563998Y-85512433D01*
X143563998Y-85512433D02*
X143497332Y-85479100D01*
X143497332Y-85479100D02*
X143363998Y-85445766D01*
X143363998Y-85445766D02*
X143297332Y-85412433D01*
X143297332Y-85412433D02*
X143263998Y-85379100D01*
X143263998Y-85379100D02*
X143230665Y-85312433D01*
X143230665Y-85312433D02*
X143230665Y-85245766D01*
X143230665Y-85245766D02*
X143263998Y-85179100D01*
X143263998Y-85179100D02*
X143297332Y-85145766D01*
X143297332Y-85145766D02*
X143363998Y-85112433D01*
X143363998Y-85112433D02*
X143530665Y-85112433D01*
X143530665Y-85112433D02*
X143630665Y-85145766D01*
X143863999Y-85112433D02*
X144030665Y-85812433D01*
X144030665Y-85812433D02*
X144163999Y-85312433D01*
X144163999Y-85312433D02*
X144297332Y-85812433D01*
X144297332Y-85812433D02*
X144463999Y-85112433D01*
X144563999Y-85879100D02*
X145097332Y-85879100D01*
X145197332Y-85112433D02*
X145363998Y-85812433D01*
X145363998Y-85812433D02*
X145497332Y-85312433D01*
X145497332Y-85312433D02*
X145630665Y-85812433D01*
X145630665Y-85812433D02*
X145797332Y-85112433D01*
X146363998Y-85345766D02*
X146363998Y-85812433D01*
X146063998Y-85345766D02*
X146063998Y-85712433D01*
X146063998Y-85712433D02*
X146097332Y-85779100D01*
X146097332Y-85779100D02*
X146163998Y-85812433D01*
X146163998Y-85812433D02*
X146263998Y-85812433D01*
X146263998Y-85812433D02*
X146330665Y-85779100D01*
X146330665Y-85779100D02*
X146363998Y-85745766D01*
X146963998Y-85779100D02*
X146897331Y-85812433D01*
X146897331Y-85812433D02*
X146763998Y-85812433D01*
X146763998Y-85812433D02*
X146697331Y-85779100D01*
X146697331Y-85779100D02*
X146663998Y-85712433D01*
X146663998Y-85712433D02*
X146663998Y-85445766D01*
X146663998Y-85445766D02*
X146697331Y-85379100D01*
X146697331Y-85379100D02*
X146763998Y-85345766D01*
X146763998Y-85345766D02*
X146897331Y-85345766D01*
X146897331Y-85345766D02*
X146963998Y-85379100D01*
X146963998Y-85379100D02*
X146997331Y-85445766D01*
X146997331Y-85445766D02*
X146997331Y-85512433D01*
X146997331Y-85512433D02*
X146663998Y-85579100D01*
X147297331Y-85812433D02*
X147297331Y-85345766D01*
X147297331Y-85479100D02*
X147330665Y-85412433D01*
X147330665Y-85412433D02*
X147363998Y-85379100D01*
X147363998Y-85379100D02*
X147430665Y-85345766D01*
X147430665Y-85345766D02*
X147497331Y-85345766D01*
X147630664Y-85345766D02*
X147897331Y-85345766D01*
X147730664Y-85112433D02*
X147730664Y-85712433D01*
X147730664Y-85712433D02*
X147763998Y-85779100D01*
X147763998Y-85779100D02*
X147830664Y-85812433D01*
X147830664Y-85812433D02*
X147897331Y-85812433D01*
X148130664Y-85812433D02*
X148130664Y-85112433D01*
X148430664Y-85812433D02*
X148430664Y-85445766D01*
X148430664Y-85445766D02*
X148397331Y-85379100D01*
X148397331Y-85379100D02*
X148330664Y-85345766D01*
X148330664Y-85345766D02*
X148230664Y-85345766D01*
X148230664Y-85345766D02*
X148163998Y-85379100D01*
X148163998Y-85379100D02*
X148130664Y-85412433D01*
X148597331Y-85879100D02*
X149130664Y-85879100D01*
X149597330Y-85345766D02*
X149597330Y-85812433D01*
X149430664Y-85079100D02*
X149263997Y-85579100D01*
X149263997Y-85579100D02*
X149697330Y-85579100D01*
X150297331Y-85112433D02*
X149963997Y-85112433D01*
X149963997Y-85112433D02*
X149930664Y-85445766D01*
X149930664Y-85445766D02*
X149963997Y-85412433D01*
X149963997Y-85412433D02*
X150030664Y-85379100D01*
X150030664Y-85379100D02*
X150197331Y-85379100D01*
X150197331Y-85379100D02*
X150263997Y-85412433D01*
X150263997Y-85412433D02*
X150297331Y-85445766D01*
X150297331Y-85445766D02*
X150330664Y-85512433D01*
X150330664Y-85512433D02*
X150330664Y-85679100D01*
X150330664Y-85679100D02*
X150297331Y-85745766D01*
X150297331Y-85745766D02*
X150263997Y-85779100D01*
X150263997Y-85779100D02*
X150197331Y-85812433D01*
X150197331Y-85812433D02*
X150030664Y-85812433D01*
X150030664Y-85812433D02*
X149963997Y-85779100D01*
X149963997Y-85779100D02*
X149930664Y-85745766D01*
X150763998Y-85112433D02*
X150830664Y-85112433D01*
X150830664Y-85112433D02*
X150897331Y-85145766D01*
X150897331Y-85145766D02*
X150930664Y-85179100D01*
X150930664Y-85179100D02*
X150963998Y-85245766D01*
X150963998Y-85245766D02*
X150997331Y-85379100D01*
X150997331Y-85379100D02*
X150997331Y-85545766D01*
X150997331Y-85545766D02*
X150963998Y-85679100D01*
X150963998Y-85679100D02*
X150930664Y-85745766D01*
X150930664Y-85745766D02*
X150897331Y-85779100D01*
X150897331Y-85779100D02*
X150830664Y-85812433D01*
X150830664Y-85812433D02*
X150763998Y-85812433D01*
X150763998Y-85812433D02*
X150697331Y-85779100D01*
X150697331Y-85779100D02*
X150663998Y-85745766D01*
X150663998Y-85745766D02*
X150630664Y-85679100D01*
X150630664Y-85679100D02*
X150597331Y-85545766D01*
X150597331Y-85545766D02*
X150597331Y-85379100D01*
X150597331Y-85379100D02*
X150630664Y-85245766D01*
X150630664Y-85245766D02*
X150663998Y-85179100D01*
X150663998Y-85179100D02*
X150697331Y-85145766D01*
X150697331Y-85145766D02*
X150763998Y-85112433D01*
X151230665Y-85112433D02*
X151663998Y-85112433D01*
X151663998Y-85112433D02*
X151430665Y-85379100D01*
X151430665Y-85379100D02*
X151530665Y-85379100D01*
X151530665Y-85379100D02*
X151597331Y-85412433D01*
X151597331Y-85412433D02*
X151630665Y-85445766D01*
X151630665Y-85445766D02*
X151663998Y-85512433D01*
X151663998Y-85512433D02*
X151663998Y-85679100D01*
X151663998Y-85679100D02*
X151630665Y-85745766D01*
X151630665Y-85745766D02*
X151597331Y-85779100D01*
X151597331Y-85779100D02*
X151530665Y-85812433D01*
X151530665Y-85812433D02*
X151330665Y-85812433D01*
X151330665Y-85812433D02*
X151263998Y-85779100D01*
X151263998Y-85779100D02*
X151230665Y-85745766D01*
X152097332Y-85112433D02*
X152163998Y-85112433D01*
X152163998Y-85112433D02*
X152230665Y-85145766D01*
X152230665Y-85145766D02*
X152263998Y-85179100D01*
X152263998Y-85179100D02*
X152297332Y-85245766D01*
X152297332Y-85245766D02*
X152330665Y-85379100D01*
X152330665Y-85379100D02*
X152330665Y-85545766D01*
X152330665Y-85545766D02*
X152297332Y-85679100D01*
X152297332Y-85679100D02*
X152263998Y-85745766D01*
X152263998Y-85745766D02*
X152230665Y-85779100D01*
X152230665Y-85779100D02*
X152163998Y-85812433D01*
X152163998Y-85812433D02*
X152097332Y-85812433D01*
X152097332Y-85812433D02*
X152030665Y-85779100D01*
X152030665Y-85779100D02*
X151997332Y-85745766D01*
X151997332Y-85745766D02*
X151963998Y-85679100D01*
X151963998Y-85679100D02*
X151930665Y-85545766D01*
X151930665Y-85545766D02*
X151930665Y-85379100D01*
X151930665Y-85379100D02*
X151963998Y-85245766D01*
X151963998Y-85245766D02*
X151997332Y-85179100D01*
X151997332Y-85179100D02*
X152030665Y-85145766D01*
X152030665Y-85145766D02*
X152097332Y-85112433D01*
X152997332Y-85812433D02*
X152597332Y-85812433D01*
X152797332Y-85812433D02*
X152797332Y-85112433D01*
X152797332Y-85112433D02*
X152730665Y-85212433D01*
X152730665Y-85212433D02*
X152663999Y-85279100D01*
X152663999Y-85279100D02*
X152597332Y-85312433D01*
X153430666Y-85112433D02*
X153497332Y-85112433D01*
X153497332Y-85112433D02*
X153563999Y-85145766D01*
X153563999Y-85145766D02*
X153597332Y-85179100D01*
X153597332Y-85179100D02*
X153630666Y-85245766D01*
X153630666Y-85245766D02*
X153663999Y-85379100D01*
X153663999Y-85379100D02*
X153663999Y-85545766D01*
X153663999Y-85545766D02*
X153630666Y-85679100D01*
X153630666Y-85679100D02*
X153597332Y-85745766D01*
X153597332Y-85745766D02*
X153563999Y-85779100D01*
X153563999Y-85779100D02*
X153497332Y-85812433D01*
X153497332Y-85812433D02*
X153430666Y-85812433D01*
X153430666Y-85812433D02*
X153363999Y-85779100D01*
X153363999Y-85779100D02*
X153330666Y-85745766D01*
X153330666Y-85745766D02*
X153297332Y-85679100D01*
X153297332Y-85679100D02*
X153263999Y-85545766D01*
X153263999Y-85545766D02*
X153263999Y-85379100D01*
X153263999Y-85379100D02*
X153297332Y-85245766D01*
X153297332Y-85245766D02*
X153330666Y-85179100D01*
X153330666Y-85179100D02*
X153363999Y-85145766D01*
X153363999Y-85145766D02*
X153430666Y-85112433D01*
X154330666Y-85812433D02*
X153930666Y-85812433D01*
X154130666Y-85812433D02*
X154130666Y-85112433D01*
X154130666Y-85112433D02*
X154063999Y-85212433D01*
X154063999Y-85212433D02*
X153997333Y-85279100D01*
X153997333Y-85279100D02*
X153930666Y-85312433D01*
X154930666Y-85345766D02*
X154930666Y-85812433D01*
X154764000Y-85079100D02*
X154597333Y-85579100D01*
X154597333Y-85579100D02*
X155030666Y-85579100D01*
X155430667Y-85112433D02*
X155497333Y-85112433D01*
X155497333Y-85112433D02*
X155564000Y-85145766D01*
X155564000Y-85145766D02*
X155597333Y-85179100D01*
X155597333Y-85179100D02*
X155630667Y-85245766D01*
X155630667Y-85245766D02*
X155664000Y-85379100D01*
X155664000Y-85379100D02*
X155664000Y-85545766D01*
X155664000Y-85545766D02*
X155630667Y-85679100D01*
X155630667Y-85679100D02*
X155597333Y-85745766D01*
X155597333Y-85745766D02*
X155564000Y-85779100D01*
X155564000Y-85779100D02*
X155497333Y-85812433D01*
X155497333Y-85812433D02*
X155430667Y-85812433D01*
X155430667Y-85812433D02*
X155364000Y-85779100D01*
X155364000Y-85779100D02*
X155330667Y-85745766D01*
X155330667Y-85745766D02*
X155297333Y-85679100D01*
X155297333Y-85679100D02*
X155264000Y-85545766D01*
X155264000Y-85545766D02*
X155264000Y-85379100D01*
X155264000Y-85379100D02*
X155297333Y-85245766D01*
X155297333Y-85245766D02*
X155330667Y-85179100D01*
X155330667Y-85179100D02*
X155364000Y-85145766D01*
X155364000Y-85145766D02*
X155430667Y-85112433D01*
X156264000Y-85345766D02*
X156264000Y-85812433D01*
X156097334Y-85079100D02*
X155930667Y-85579100D01*
X155930667Y-85579100D02*
X156364000Y-85579100D01*
X156597334Y-85179100D02*
X156630667Y-85145766D01*
X156630667Y-85145766D02*
X156697334Y-85112433D01*
X156697334Y-85112433D02*
X156864001Y-85112433D01*
X156864001Y-85112433D02*
X156930667Y-85145766D01*
X156930667Y-85145766D02*
X156964001Y-85179100D01*
X156964001Y-85179100D02*
X156997334Y-85245766D01*
X156997334Y-85245766D02*
X156997334Y-85312433D01*
X156997334Y-85312433D02*
X156964001Y-85412433D01*
X156964001Y-85412433D02*
X156564001Y-85812433D01*
X156564001Y-85812433D02*
X156997334Y-85812433D01*
X154874133Y-89216033D02*
X154640800Y-88882700D01*
X154474133Y-89216033D02*
X154474133Y-88516033D01*
X154474133Y-88516033D02*
X154740800Y-88516033D01*
X154740800Y-88516033D02*
X154807467Y-88549366D01*
X154807467Y-88549366D02*
X154840800Y-88582700D01*
X154840800Y-88582700D02*
X154874133Y-88649366D01*
X154874133Y-88649366D02*
X154874133Y-88749366D01*
X154874133Y-88749366D02*
X154840800Y-88816033D01*
X154840800Y-88816033D02*
X154807467Y-88849366D01*
X154807467Y-88849366D02*
X154740800Y-88882700D01*
X154740800Y-88882700D02*
X154474133Y-88882700D01*
X155540800Y-89216033D02*
X155140800Y-89216033D01*
X155340800Y-89216033D02*
X155340800Y-88516033D01*
X155340800Y-88516033D02*
X155274133Y-88616033D01*
X155274133Y-88616033D02*
X155207467Y-88682700D01*
X155207467Y-88682700D02*
X155140800Y-88716033D01*
X150077600Y-88658033D02*
X150510933Y-88658033D01*
X150510933Y-88658033D02*
X150277600Y-88924700D01*
X150277600Y-88924700D02*
X150377600Y-88924700D01*
X150377600Y-88924700D02*
X150444266Y-88958033D01*
X150444266Y-88958033D02*
X150477600Y-88991366D01*
X150477600Y-88991366D02*
X150510933Y-89058033D01*
X150510933Y-89058033D02*
X150510933Y-89224700D01*
X150510933Y-89224700D02*
X150477600Y-89291366D01*
X150477600Y-89291366D02*
X150444266Y-89324700D01*
X150444266Y-89324700D02*
X150377600Y-89358033D01*
X150377600Y-89358033D02*
X150177600Y-89358033D01*
X150177600Y-89358033D02*
X150110933Y-89324700D01*
X150110933Y-89324700D02*
X150077600Y-89291366D01*
X150744267Y-88658033D02*
X151177600Y-88658033D01*
X151177600Y-88658033D02*
X150944267Y-88924700D01*
X150944267Y-88924700D02*
X151044267Y-88924700D01*
X151044267Y-88924700D02*
X151110933Y-88958033D01*
X151110933Y-88958033D02*
X151144267Y-88991366D01*
X151144267Y-88991366D02*
X151177600Y-89058033D01*
X151177600Y-89058033D02*
X151177600Y-89224700D01*
X151177600Y-89224700D02*
X151144267Y-89291366D01*
X151144267Y-89291366D02*
X151110933Y-89324700D01*
X151110933Y-89324700D02*
X151044267Y-89358033D01*
X151044267Y-89358033D02*
X150844267Y-89358033D01*
X150844267Y-89358033D02*
X150777600Y-89324700D01*
X150777600Y-89324700D02*
X150744267Y-89291366D01*
X151610934Y-88658033D02*
X151677600Y-88658033D01*
X151677600Y-88658033D02*
X151744267Y-88691366D01*
X151744267Y-88691366D02*
X151777600Y-88724700D01*
X151777600Y-88724700D02*
X151810934Y-88791366D01*
X151810934Y-88791366D02*
X151844267Y-88924700D01*
X151844267Y-88924700D02*
X151844267Y-89091366D01*
X151844267Y-89091366D02*
X151810934Y-89224700D01*
X151810934Y-89224700D02*
X151777600Y-89291366D01*
X151777600Y-89291366D02*
X151744267Y-89324700D01*
X151744267Y-89324700D02*
X151677600Y-89358033D01*
X151677600Y-89358033D02*
X151610934Y-89358033D01*
X151610934Y-89358033D02*
X151544267Y-89324700D01*
X151544267Y-89324700D02*
X151510934Y-89291366D01*
X151510934Y-89291366D02*
X151477600Y-89224700D01*
X151477600Y-89224700D02*
X151444267Y-89091366D01*
X151444267Y-89091366D02*
X151444267Y-88924700D01*
X151444267Y-88924700D02*
X151477600Y-88791366D01*
X151477600Y-88791366D02*
X151510934Y-88724700D01*
X151510934Y-88724700D02*
X151544267Y-88691366D01*
X151544267Y-88691366D02*
X151610934Y-88658033D01*
X133934266Y-100418033D02*
X133934266Y-100984700D01*
X133934266Y-100984700D02*
X133967600Y-101051366D01*
X133967600Y-101051366D02*
X134000933Y-101084700D01*
X134000933Y-101084700D02*
X134067600Y-101118033D01*
X134067600Y-101118033D02*
X134200933Y-101118033D01*
X134200933Y-101118033D02*
X134267600Y-101084700D01*
X134267600Y-101084700D02*
X134300933Y-101051366D01*
X134300933Y-101051366D02*
X134334266Y-100984700D01*
X134334266Y-100984700D02*
X134334266Y-100418033D01*
X134634266Y-100484700D02*
X134667599Y-100451366D01*
X134667599Y-100451366D02*
X134734266Y-100418033D01*
X134734266Y-100418033D02*
X134900933Y-100418033D01*
X134900933Y-100418033D02*
X134967599Y-100451366D01*
X134967599Y-100451366D02*
X135000933Y-100484700D01*
X135000933Y-100484700D02*
X135034266Y-100551366D01*
X135034266Y-100551366D02*
X135034266Y-100618033D01*
X135034266Y-100618033D02*
X135000933Y-100718033D01*
X135000933Y-100718033D02*
X134600933Y-101118033D01*
X134600933Y-101118033D02*
X135034266Y-101118033D01*
X130950933Y-107418033D02*
X130617599Y-107418033D01*
X130617599Y-107418033D02*
X130617599Y-106718033D01*
X131184266Y-107418033D02*
X131184266Y-106718033D01*
X131184266Y-106718033D02*
X131417600Y-107218033D01*
X131417600Y-107218033D02*
X131650933Y-106718033D01*
X131650933Y-106718033D02*
X131650933Y-107418033D01*
X131917600Y-106718033D02*
X132350933Y-106718033D01*
X132350933Y-106718033D02*
X132117600Y-106984700D01*
X132117600Y-106984700D02*
X132217600Y-106984700D01*
X132217600Y-106984700D02*
X132284266Y-107018033D01*
X132284266Y-107018033D02*
X132317600Y-107051366D01*
X132317600Y-107051366D02*
X132350933Y-107118033D01*
X132350933Y-107118033D02*
X132350933Y-107284700D01*
X132350933Y-107284700D02*
X132317600Y-107351366D01*
X132317600Y-107351366D02*
X132284266Y-107384700D01*
X132284266Y-107384700D02*
X132217600Y-107418033D01*
X132217600Y-107418033D02*
X132017600Y-107418033D01*
X132017600Y-107418033D02*
X131950933Y-107384700D01*
X131950933Y-107384700D02*
X131917600Y-107351366D01*
X133017600Y-107418033D02*
X132617600Y-107418033D01*
X132817600Y-107418033D02*
X132817600Y-106718033D01*
X132817600Y-106718033D02*
X132750933Y-106818033D01*
X132750933Y-106818033D02*
X132684267Y-106884700D01*
X132684267Y-106884700D02*
X132617600Y-106918033D01*
X133250934Y-106718033D02*
X133717600Y-106718033D01*
X133717600Y-106718033D02*
X133417600Y-107418033D01*
X133817601Y-107484700D02*
X134350934Y-107484700D01*
X134417600Y-106718033D02*
X134817600Y-106718033D01*
X134617600Y-107418033D02*
X134617600Y-106718033D01*
X135184267Y-106718033D02*
X135317600Y-106718033D01*
X135317600Y-106718033D02*
X135384267Y-106751366D01*
X135384267Y-106751366D02*
X135450933Y-106818033D01*
X135450933Y-106818033D02*
X135484267Y-106951366D01*
X135484267Y-106951366D02*
X135484267Y-107184700D01*
X135484267Y-107184700D02*
X135450933Y-107318033D01*
X135450933Y-107318033D02*
X135384267Y-107384700D01*
X135384267Y-107384700D02*
X135317600Y-107418033D01*
X135317600Y-107418033D02*
X135184267Y-107418033D01*
X135184267Y-107418033D02*
X135117600Y-107384700D01*
X135117600Y-107384700D02*
X135050933Y-107318033D01*
X135050933Y-107318033D02*
X135017600Y-107184700D01*
X135017600Y-107184700D02*
X135017600Y-106951366D01*
X135017600Y-106951366D02*
X135050933Y-106818033D01*
X135050933Y-106818033D02*
X135117600Y-106751366D01*
X135117600Y-106751366D02*
X135184267Y-106718033D01*
X135784266Y-107151366D02*
X136317600Y-107151366D01*
X136617600Y-106784700D02*
X136650933Y-106751366D01*
X136650933Y-106751366D02*
X136717600Y-106718033D01*
X136717600Y-106718033D02*
X136884267Y-106718033D01*
X136884267Y-106718033D02*
X136950933Y-106751366D01*
X136950933Y-106751366D02*
X136984267Y-106784700D01*
X136984267Y-106784700D02*
X137017600Y-106851366D01*
X137017600Y-106851366D02*
X137017600Y-106918033D01*
X137017600Y-106918033D02*
X136984267Y-107018033D01*
X136984267Y-107018033D02*
X136584267Y-107418033D01*
X136584267Y-107418033D02*
X137017600Y-107418033D01*
X137284267Y-106784700D02*
X137317600Y-106751366D01*
X137317600Y-106751366D02*
X137384267Y-106718033D01*
X137384267Y-106718033D02*
X137550934Y-106718033D01*
X137550934Y-106718033D02*
X137617600Y-106751366D01*
X137617600Y-106751366D02*
X137650934Y-106784700D01*
X137650934Y-106784700D02*
X137684267Y-106851366D01*
X137684267Y-106851366D02*
X137684267Y-106918033D01*
X137684267Y-106918033D02*
X137650934Y-107018033D01*
X137650934Y-107018033D02*
X137250934Y-107418033D01*
X137250934Y-107418033D02*
X137684267Y-107418033D01*
X138117601Y-106718033D02*
X138184267Y-106718033D01*
X138184267Y-106718033D02*
X138250934Y-106751366D01*
X138250934Y-106751366D02*
X138284267Y-106784700D01*
X138284267Y-106784700D02*
X138317601Y-106851366D01*
X138317601Y-106851366D02*
X138350934Y-106984700D01*
X138350934Y-106984700D02*
X138350934Y-107151366D01*
X138350934Y-107151366D02*
X138317601Y-107284700D01*
X138317601Y-107284700D02*
X138284267Y-107351366D01*
X138284267Y-107351366D02*
X138250934Y-107384700D01*
X138250934Y-107384700D02*
X138184267Y-107418033D01*
X138184267Y-107418033D02*
X138117601Y-107418033D01*
X138117601Y-107418033D02*
X138050934Y-107384700D01*
X138050934Y-107384700D02*
X138017601Y-107351366D01*
X138017601Y-107351366D02*
X137984267Y-107284700D01*
X137984267Y-107284700D02*
X137950934Y-107151366D01*
X137950934Y-107151366D02*
X137950934Y-106984700D01*
X137950934Y-106984700D02*
X137984267Y-106851366D01*
X137984267Y-106851366D02*
X138017601Y-106784700D01*
X138017601Y-106784700D02*
X138050934Y-106751366D01*
X138050934Y-106751366D02*
X138117601Y-106718033D01*
D12*
%TO.C,C3*%
X132438600Y-110394000D02*
X130908600Y-110394000D01*
X130908600Y-108554000D02*
X132438600Y-108554000D01*
%TO.C,J5*%
X145643600Y-68834000D02*
X145643600Y-76454000D01*
X145643600Y-76454000D02*
X155803600Y-76454000D01*
X155803600Y-68834000D02*
X145643600Y-68834000D01*
X155803600Y-75184000D02*
X145643600Y-75184000D01*
X155803600Y-76454000D02*
X155803600Y-68834000D01*
%TO.C,J1*%
X159757600Y-68973000D02*
X161137600Y-68973000D01*
X159757600Y-70353000D02*
X159757600Y-68973000D01*
X159757600Y-71623000D02*
X159757600Y-74273000D01*
X159757600Y-71623000D02*
X162517600Y-71623000D01*
X159757600Y-74273000D02*
X162517600Y-74273000D01*
X162517600Y-71623000D02*
X162517600Y-74273000D01*
%TO.C,J7*%
X144615600Y-89780500D02*
X144615600Y-88730500D01*
X144415600Y-98130500D02*
X142515600Y-98130500D01*
X144415600Y-95430500D02*
X144415600Y-98130500D01*
X144415600Y-88930500D02*
X144415600Y-91530500D01*
X143565600Y-88730500D02*
X144615600Y-88730500D01*
X138515600Y-98130500D02*
X129715600Y-98130500D01*
X129715600Y-98130500D02*
X129715600Y-88930500D01*
X129715600Y-88930500D02*
X144415600Y-88930500D01*
%TO.C,C1*%
X138788600Y-80168000D02*
X137258600Y-80168000D01*
X137258600Y-78328000D02*
X138788600Y-78328000D01*
%TO.C,J2*%
X159757600Y-114748800D02*
X161137600Y-114748800D01*
X159757600Y-116128800D02*
X159757600Y-114748800D01*
X159757600Y-117398800D02*
X159757600Y-120048800D01*
X159757600Y-117398800D02*
X162517600Y-117398800D01*
X159757600Y-120048800D02*
X162517600Y-120048800D01*
X162517600Y-117398800D02*
X162517600Y-120048800D01*
%TO.C,C2*%
X133962600Y-80168000D02*
X132432600Y-80168000D01*
X132432600Y-78328000D02*
X133962600Y-78328000D01*
%TO.C,J6*%
X145643600Y-113030000D02*
X145643600Y-120650000D01*
X145643600Y-120650000D02*
X155803600Y-120650000D01*
X155803600Y-113030000D02*
X145643600Y-113030000D01*
X155803600Y-119380000D02*
X145643600Y-119380000D01*
X155803600Y-120650000D02*
X155803600Y-113030000D01*
%TO.C,D1*%
X154493600Y-93477000D02*
G75*
G02*
X149493600Y-93477000I-2500000J0D01*
G01*
X149493600Y-93477000D02*
G75*
G02*
X154493600Y-93477000I2500000J0D01*
G01*
X151993600Y-90487000D02*
G75*
G02*
X153538430Y-96037000I0J-2990000D01*
G01*
X150448770Y-96037000D02*
G75*
G02*
X151993600Y-90487000I1544830J2560000D01*
G01*
X150448600Y-96037000D02*
X153538600Y-96037000D01*
%TO.C,R2*%
X152897600Y-104298000D02*
X149057600Y-104298000D01*
X149057600Y-102458000D01*
X152897600Y-102458000D01*
X152897600Y-104298000D01*
X153847600Y-103378000D02*
X152897600Y-103378000D01*
X148107600Y-103378000D02*
X149057600Y-103378000D01*
%TO.C,R3*%
X149039600Y-105760000D02*
X152879600Y-105760000D01*
X152879600Y-107600000D01*
X149039600Y-107600000D01*
X149039600Y-105760000D01*
X153829600Y-106680000D02*
X152879600Y-106680000D01*
X148089600Y-106680000D02*
X149039600Y-106680000D01*
D13*
%TO.C,S2*%
X138805600Y-115864000D02*
G75*
G02*
X138605600Y-115864000I-100000J0D01*
G01*
X138605600Y-115864000D02*
G75*
G02*
X138805600Y-115864000I100000J0D01*
G01*
D14*
X142005600Y-120364000D02*
X130405600Y-120364000D01*
X142005600Y-116364000D02*
X142005600Y-120364000D01*
X130405600Y-120364000D02*
X130405600Y-116364000D01*
X130405600Y-116364000D02*
X142005600Y-116364000D01*
D13*
%TO.C,S1*%
X138805600Y-68620000D02*
G75*
G02*
X138605600Y-68620000I-100000J0D01*
G01*
X138605600Y-68620000D02*
G75*
G02*
X138805600Y-68620000I100000J0D01*
G01*
D14*
X142005600Y-73120000D02*
X130405600Y-73120000D01*
X142005600Y-69120000D02*
X142005600Y-73120000D01*
X130405600Y-73120000D02*
X130405600Y-69120000D01*
X130405600Y-69120000D02*
X142005600Y-69120000D01*
D12*
%TO.C,U1*%
X139577600Y-86638000D02*
X129357600Y-86638000D01*
X139577600Y-85258000D02*
X129357600Y-85258000D01*
X139577600Y-82018000D02*
X139577600Y-86638000D01*
X136317600Y-86638000D02*
X136317600Y-85258000D01*
X132617600Y-86638000D02*
X132617600Y-85258000D01*
X129357600Y-86638000D02*
X129357600Y-82018000D01*
X129357600Y-82018000D02*
X139577600Y-82018000D01*
%TO.C,SW1*%
X145867600Y-80174000D02*
X156087600Y-80174000D01*
X156087600Y-82894000D01*
X145867600Y-82894000D01*
X145867600Y-80174000D01*
%TO.C,R1*%
X149057600Y-86202000D02*
X152897600Y-86202000D01*
X152897600Y-88042000D01*
X149057600Y-88042000D01*
X149057600Y-86202000D01*
X153847600Y-87122000D02*
X152897600Y-87122000D01*
X148107600Y-87122000D02*
X149057600Y-87122000D01*
%TO.C,U2*%
X139577600Y-106262000D02*
X129357600Y-106262000D01*
X139577600Y-101642000D02*
X139577600Y-106262000D01*
X136317600Y-101642000D02*
X136317600Y-103022000D01*
X132617600Y-101642000D02*
X132617600Y-103022000D01*
X129357600Y-106262000D02*
X129357600Y-101642000D01*
X129357600Y-103022000D02*
X139577600Y-103022000D01*
X129357600Y-101642000D02*
X139577600Y-101642000D01*
%TD*%
M02*
