M48
; DRILL file {KiCad 9.0.4} date 2025-09-23T18:33:20+0100
; FORMAT={-:-/ absolute / metric / decimal}
; #@! TF.CreationDate,2025-09-23T18:33:20+01:00
; #@! TF.GenerationSoftware,Kicad,Pcbnew,9.0.4
; #@! TF.FileFunction,Plated,1,2,PTH
FMAT,2
METRIC
; #@! TA.AperFunction,Plated,PTH,ViaDrill
T1C0.500
; #@! TA.AperFunction,Plated,PTH,ComponentDrill
T2C0.700
; #@! TA.AperFunction,Plated,PTH,ComponentDrill
T3C0.800
; #@! TA.AperFunction,Plated,PTH,ComponentDrill
T4C0.900
; #@! TA.AperFunction,Plated,PTH,ComponentDrill
T5C1.000
; #@! TA.AperFunction,Plated,PTH,ComponentDrill
T6C1.100
; #@! TA.AperFunction,Plated,PTH,ComponentDrill
T7C1.520
%
G90
G05
T1
X142.342Y-106.426
T2
X147.15Y-106.68
X147.168Y-87.122
X147.168Y-103.378
X154.77Y-106.68
X154.788Y-87.122
X154.788Y-103.378
T3
X130.424Y-109.474
X131.948Y-79.248
X132.924Y-109.474
X134.448Y-79.248
X136.774Y-79.248
X139.274Y-79.248
X148.438Y-81.534
X150.978Y-81.534
X153.518Y-81.534
T4
X151.994Y-92.207
X151.994Y-94.747
T5
X133.706Y-71.12
X133.706Y-118.364
X136.206Y-71.12
X136.206Y-118.364
X138.706Y-71.12
X138.706Y-118.364
X161.138Y-70.353
X161.138Y-72.893
X161.138Y-116.129
X161.138Y-118.669
T6
X131.928Y-83.378
X131.928Y-104.902
X134.468Y-83.378
X134.468Y-104.902
X137.008Y-83.378
X137.008Y-104.902
T7
X148.184Y-72.644
X148.184Y-116.84
X153.264Y-72.644
X153.264Y-116.84
T5
G00X137.516Y-92.53
M15
G01X137.516Y-94.53
M16
G05
G00X139.516Y-98.23
M15
G01X141.516Y-98.23
M16
G05
G00X143.516Y-92.53
M15
G01X143.516Y-94.53
M16
G05
M30
